SplineFontDB: 3.0
FontName: NovaRound-Bold
FullName: Nova Round Bold
FamilyName: Nova Round
Weight: Bold
Copyright: Copyright (c) 2020-2024 by Wojciech Kalinowski "wmk69" with Reserved Font Name "NovaRound-Bold".\nThis Font Software is licensed under the SIL Open Font License, Version 1.1.
Version: 3.1.0; 2021-05-23
ItalicAngle: 0
UnderlinePosition: -80
UnderlineWidth: 320
Ascent: 1638
Descent: 410
InvalidEm: 0
LayerCount: 2
Layer: 0 1 "Warstwa t+AUIA-a" 1
Layer: 1 1 "Plan pierwszy" 0
XUID: [1021 783 23647091 8360855]
StyleMap: 0x0020
FSType: 0
OS2Version: 3
OS2_WeightWidthSlopeOnly: 0
OS2_UseTypoMetrics: 1
CreationTime: 1260698820
ModificationTime: 1621761823
PfmFamily: 33
TTFWeight: 700
TTFWidth: 5
LineGap: 200
VLineGap: 0
Panose: 2 12 8 4 2 5 3 6 2 4
OS2TypoAscent: 2000
OS2TypoAOffset: 0
OS2TypoDescent: -500
OS2TypoDOffset: 0
OS2TypoLinegap: 200
OS2WinAscent: 2000
OS2WinAOffset: 0
OS2WinDescent: 500
OS2WinDOffset: 0
HheadAscent: 2000
HheadAOffset: 0
HheadDescent: -500
HheadDOffset: 0
OS2SubXSize: 1434
OS2SubYSize: 1331
OS2SubXOff: 0
OS2SubYOff: 287
OS2SupXSize: 1434
OS2SupYSize: 1331
OS2SupXOff: 0
OS2SupYOff: 977
OS2StrikeYSize: 102
OS2StrikeYPos: 512
OS2CapHeight: 1530
OS2XHeight: 1120
OS2Vendor: '    '
OS2CodePages: 20000093.00000000
OS2UnicodeRanges: 8000002f.4000204b.00000000.00000000
Lookup: 258 0 0 "'kern' Horizontal Kerning lookup 0" { "'kern' Horizontal Kerning lookup 0-1 subtable" [307,0,4] } ['kern' ('DFLT' <'dflt' > 'grek' <'dflt' > 'latn' <'dflt' > ) ]
MarkAttachClasses: 1
DEI: 91125
KernClass2: 65 55 "'kern' Horizontal Kerning lookup 0-1 subtable"
 134 A M N Agrave Aacute Acircumflex Atilde Adieresis Aring Ntilde Amacron Abreve Aogonek Nacute Ncommaaccent Ncaron Eng Aringacute uni1E40
 28 B germandbls uni1E02 uni1E9E
 47 C Ccedilla Cacute Ccircumflex Cdotaccent Ccaron
 122 D O Q Eth Ograve Oacute Ocircumflex Otilde Odieresis Oslash Dcaron Dcroat Omacron Obreve Ohungarumlaut Oslashacute uni1E0A

StartChar: .notdef
Encoding: 65536 -1 0
Width: 1034
Flags: W
HStem: 0 118<298 736> 1392 118<298 736>
VStem: 110 188<118 1392> 736 188<118 1392>
LayerCount: 2
Fore
SplineSet
110 0 m 1,0,-1
 110 1510 l 1,1,-1
 924 1510 l 1,2,-1
 924 0 l 1,3,-1
 110 0 l 1,0,-1
298 118 m 1,4,-1
 736 118 l 1,5,-1
 736 1392 l 1,6,-1
 298 1392 l 1,7,-1
 298 118 l 1,4,-1
EndSplineSet
Validated: 19457
EndChar

StartChar: exclam
Encoding: 33 33 4
Width: 640
GlyphClass: 2
Flags: W
HStem: -20 365<202.131 436.878> 1510 20G<427.823 480>
VStem: 140 360<42.5657 282.578> 160 320<542 1383>
LayerCount: 2
Fore
SplineSet
470 1530 m 1,0,-1
 480 1530 l 1,1,-1
 480 542 l 1,2,-1
 170 395 l 1,3,-1
 160 395 l 1,4,-1
 160 1383 l 1,5,-1
 470 1530 l 1,0,-1
320 -20 m 0,6,7
 244 -20 244 -20 192 34 c 128,-1,8
 140 88 140 88 140 162 c 0,9,10
 140 238 140 238 192 291 c 0,11,12
 245 345 245 345 320 345 c 128,-1,13
 395 345 395 345 447.5 291.5 c 128,-1,14
 500 238 500 238 500 163 c 128,-1,15
 500 88 500 88 447 34 c 128,-1,16
 394 -20 394 -20 320 -20 c 0,6,7
EndSplineSet
Validated: 19457
EndChar

StartChar: quotedbl
Encoding: 34 34 5
Width: 510
GlyphClass: 2
Flags: W
HStem: 1100 480
VStem: 30 180<1181 1499> 300 180<1181 1499>
LayerCount: 2
Fore
SplineSet
470 1580 m 1,0,-1
 480 1580 l 1,1,-1
 480 1181 l 1,2,-1
 310 1100 l 1,3,-1
 300 1100 l 1,4,-1
 300 1499 l 1,5,-1
 470 1580 l 1,0,-1
200 1580 m 1,6,-1
 210 1580 l 1,7,-1
 210 1181 l 1,8,-1
 40 1100 l 1,9,-1
 30 1100 l 1,10,-1
 30 1499 l 1,11,-1
 200 1580 l 1,6,-1
EndSplineSet
Validated: 19457
EndChar

StartChar: numbersign
Encoding: 35 35 6
Width: 1408
GlyphClass: 2
Flags: W
HStem: 460 180<190 408 588 820 1000 1218> 872 180<190 408 588 820 1000 1218>
VStem: 408 180<242 460 640 872 1052 1269> 820 180<242 460 640 872 1052 1269>
LayerCount: 2
Fore
SplineSet
578 1350 m 1,0,-1
 588 1350 l 1,1,-1
 588 1052 l 1,2,-1
 820 1052 l 1,3,-1
 820 1269 l 1,4,-1
 990 1350 l 1,5,-1
 1000 1350 l 1,6,-1
 1000 1052 l 1,7,-1
 1298 1052 l 1,8,-1
 1298 1042 l 1,9,-1
 1218 872 l 1,10,-1
 1000 872 l 1,11,-1
 1000 640 l 1,12,-1
 1298 640 l 1,13,-1
 1298 630 l 1,14,-1
 1218 460 l 1,15,-1
 1000 460 l 1,16,-1
 1000 242 l 1,17,-1
 830 161 l 1,18,-1
 820 161 l 1,19,-1
 820 460 l 1,20,-1
 588 460 l 1,21,-1
 588 242 l 1,22,-1
 418 161 l 1,23,-1
 408 161 l 1,24,-1
 408 460 l 1,25,-1
 110 460 l 1,26,-1
 110 470 l 1,27,-1
 190 640 l 1,28,-1
 408 640 l 1,29,-1
 408 872 l 1,30,-1
 110 872 l 1,31,-1
 110 882 l 1,32,-1
 190 1052 l 1,33,-1
 408 1052 l 1,34,-1
 408 1269 l 1,35,-1
 578 1350 l 1,0,-1
820 640 m 1,36,-1
 820 872 l 1,37,-1
 588 872 l 1,38,-1
 588 640 l 1,39,-1
 820 640 l 1,36,-1
EndSplineSet
Validated: 19457
EndChar

StartChar: dollar
Encoding: 36 36 7
Width: 1179
GlyphClass: 2
Flags: W
VStem: 112 305<1017.23 1218.66> 515 120<-69 -13.0332 285 664 989 1251 1522.11 1579> 813 326<358.537 597.486>
LayerCount: 2
Fore
SplineSet
635 -69 m 1,0,-1
 525 -120 l 1,1,-1
 515 -120 l 1,2,-1
 515 -18 l 1,3,4
 318 -1 318 -1 174 131 c 0,5,6
 56 239 56 239 20 395 c 1,7,-1
 318 536 l 1,8,-1
 328 536 l 1,9,10
 328 391 328 391 399 335 c 0,11,12
 449 296 449 296 515 285 c 1,13,-1
 515 681 l 1,14,15
 351 709 351 709 242 798 c 0,16,17
 112 904 112 904 112 1098 c 0,18,19
 112 1294 112 1294 249 1412 c 0,20,21
 362 1509 362 1509 515 1526 c 1,22,-1
 515 1579 l 1,23,-1
 625 1630 l 1,24,-1
 635 1630 l 1,25,-1
 635 1528 l 1,26,27
 795 1513 795 1513 909 1404 c 0,28,29
 1009 1309 1009 1309 1036 1194 c 1,30,-1
 743 1055 l 1,31,-1
 733 1055 l 1,32,33
 733 1168 733 1168 696 1213 c 0,34,35
 671 1244 671 1244 635 1255 c 1,36,-1
 635 966 l 1,37,38
 875 938 875 938 1005 812 c 0,39,40
 1139 682 1139 682 1139 488 c 0,41,42
 1139 271 1139 271 973 125 c 0,43,44
 830 -1 830 -1 635 -17 c 1,45,-1
 635 -69 l 1,0,-1
515 989 m 1,46,-1
 515 1251 l 1,47,48
 488 1241 488 1241 466 1223 c 0,49,50
 417 1182 417 1182 417 1115 c 0,51,52
 417 1022 417 1022 515 989 c 1,46,-1
635 664 m 1,53,-1
 635 285 l 1,54,55
 702 297 702 297 748 337 c 0,56,57
 813 395 813 395 813 481 c 0,58,59
 813 552 813 552 762 604 c 0,60,61
 721 646 721 646 635 664 c 1,53,-1
EndSplineSet
Validated: 19457
EndChar

StartChar: percent
Encoding: 37 37 8
Width: 1846
GlyphClass: 2
Flags: W
HStem: -20 205<1269.83 1463.27> 516 206<1270.49 1463.93> 788 206<382.069 575.512> 1325 205<382.73 576.173>
VStem: 110 228<1041.02 1278.79> 619 228<1039.71 1279.83> 999 228<230.173 470.291> 1508 228<231.209 468.981>
DStem2: 464 93 711 -20 0.423093 0.906086<2.11609 1585.94>
LayerCount: 2
Fore
SplineSet
1366 185 m 128,-1,1
 1426 185 1426 185 1467 232.5 c 128,-1,2
 1508 280 1508 280 1508 350.5 c 128,-1,3
 1508 421 1508 421 1467 468.5 c 128,-1,4
 1426 516 1426 516 1366 516 c 128,-1,5
 1306 516 1306 516 1266.5 468.5 c 128,-1,6
 1227 421 1227 421 1227 350.5 c 128,-1,7
 1227 280 1227 280 1266.5 232.5 c 128,-1,0
 1306 185 1306 185 1366 185 c 128,-1,1
1367 -20 m 0,8,9
 1212 -20 1212 -20 1107 89 c 0,10,11
 999 199 999 199 999 352 c 0,12,13
 999 506 999 506 1107 613 c 0,14,15
 1215 722 1215 722 1367 722 c 0,16,17
 1522 722 1522 722 1628 613 c 0,18,19
 1736 502 1736 502 1736 350 c 0,20,21
 1736 196 1736 196 1628 89 c 0,22,23
 1519 -20 1519 -20 1367 -20 c 0,8,9
701 -20 m 1,24,-1
 464 93 l 1,25,-1
 1135 1530 l 1,26,-1
 1145 1530 l 1,27,-1
 1381 1417 l 1,28,-1
 711 -20 l 1,29,-1
 701 -20 l 1,24,-1
480 1325 m 128,-1,31
 420 1325 420 1325 379 1277.5 c 128,-1,32
 338 1230 338 1230 338 1159.5 c 128,-1,33
 338 1089 338 1089 379 1041.5 c 128,-1,34
 420 994 420 994 480 994 c 128,-1,35
 540 994 540 994 579.5 1041.5 c 128,-1,36
 619 1089 619 1089 619 1159.5 c 128,-1,37
 619 1230 619 1230 579.5 1277.5 c 128,-1,30
 540 1325 540 1325 480 1325 c 128,-1,31
479 1530 m 0,38,39
 634 1530 634 1530 739 1421 c 0,40,41
 847 1311 847 1311 847 1158 c 0,42,43
 847 1004 847 1004 739 897 c 0,44,45
 631 788 631 788 479 788 c 0,46,47
 324 788 324 788 218 897 c 0,48,49
 110 1008 110 1008 110 1160 c 0,50,51
 110 1314 110 1314 218 1421 c 0,52,53
 327 1530 327 1530 479 1530 c 0,38,39
EndSplineSet
Validated: 19457
EndChar

StartChar: ampersand
Encoding: 38 38 9
Width: 1692
GlyphClass: 2
Flags: W
HStem: -20 293<524.887 886.558> 1250 280<555.492 789.322>
VStem: 110 322<359.024 616.791> 200 307<1001.18 1202.91>
DStem2: 834 955 637 701 0.666352 -0.745637<32.2007 475.935 814.192 1024.86>
LayerCount: 2
Fore
SplineSet
1291 -20 m 1,0,-1
 1281 -20 l 1,1,-1
 1143 134 l 1,2,3
 943 -20 943 -20 670 -20 c 0,4,5
 441 -20 441 -20 275.5 120.5 c 128,-1,6
 110 261 110 261 110 473 c 0,7,8
 110 719 110 719 309 851 c 1,9,10
 200 955 200 955 200 1122 c 0,11,12
 200 1287 200 1287 341 1409 c 0,13,14
 480 1530 480 1530 677 1530 c 128,-1,15
 874 1530 874 1530 1013 1406 c 0,16,17
 1115 1315 1115 1315 1144 1187 c 1,18,-1
 855 1050 l 1,19,-1
 845 1050 l 1,20,21
 845 1148 845 1148 796 1199 c 128,-1,22
 747 1250 747 1250 675.5 1250 c 128,-1,23
 604 1250 604 1250 555.5 1208 c 128,-1,24
 507 1166 507 1166 507 1101.5 c 128,-1,25
 507 1037 507 1037 557.5 996 c 128,-1,26
 608 955 608 955 680 955 c 2,27,-1
 834 955 l 1,28,-1
 1151 600 l 1,29,30
 1200 722 1200 722 1210 851 c 1,31,-1
 1525 1000 l 1,32,-1
 1535 1000 l 1,33,34
 1534 612 1534 612 1364 361 c 1,35,-1
 1582 118 l 1,36,-1
 1291 -20 l 1,0,-1
946 355 m 1,37,-1
 637 701 l 1,38,39
 557 693 557 693 494.5 636.5 c 128,-1,40
 432 580 432 580 432 487.5 c 128,-1,41
 432 395 432 395 500 335 c 0,42,43
 570 273 570 273 695 273 c 0,44,45
 837 273 837 273 946 355 c 1,37,-1
EndSplineSet
Validated: 19457
EndChar

StartChar: quotesingle
Encoding: 39 39 10
Width: 240
GlyphClass: 2
Flags: W
HStem: 1100 480
VStem: 30 180<1181 1499>
LayerCount: 2
Fore
SplineSet
200 1580 m 1,0,-1
 210 1580 l 1,1,-1
 210 1181 l 1,2,-1
 40 1100 l 1,3,-1
 30 1100 l 1,4,-1
 30 1499 l 1,5,-1
 200 1580 l 1,0,-1
EndSplineSet
Validated: 19457
EndChar

StartChar: parenleft
Encoding: 40 40 11
Width: 756
GlyphClass: 2
Flags: W
HStem: -240 300<573.16 726> 1449 301<573.611 726>
VStem: 160 320<143.629 1361.11>
LayerCount: 2
Fore
SplineSet
726 -240 m 1,0,1
 492 -240 492 -240 326 -93 c 128,-1,2
 160 54 160 54 160 274 c 2,3,-1
 160 1236 l 2,4,5
 160 1458 160 1458 326 1604 c 0,6,7
 493 1750 493 1750 726 1750 c 1,8,-1
 726 1449 l 1,9,10
 623 1448 623 1448 552 1392 c 0,11,12
 480 1334 480 1334 480 1248 c 2,13,-1
 480 262 l 2,14,15
 480 174 480 174 552 116 c 0,16,17
 622 60 622 60 726 60 c 1,18,-1
 726 -240 l 1,0,1
EndSplineSet
Validated: 19457
EndChar

StartChar: parenright
Encoding: 41 41 12
Width: 756
GlyphClass: 2
Flags: W
HStem: -240 300<30 182.84> 1449 301<30 182.389>
VStem: 276 320<143.629 1361.11>
LayerCount: 2
Fore
SplineSet
30 -240 m 1,0,1
 30 60 l 1,2,3
 134 60 134 60 204 116 c 0,4,5
 276 174 276 174 276 262 c 2,6,-1
 276 1248 l 2,7,8
 276 1334 276 1334 204 1392 c 0,9,10
 133 1448 133 1448 30 1449 c 1,11,-1
 30 1750 l 1,12,13
 263 1750 263 1750 430 1604 c 0,14,15
 596 1458 596 1458 596 1236 c 2,16,-1
 596 274 l 2,17,18
 596 54 596 54 430 -93 c 128,-1,19
 264 -240 264 -240 30 -240 c 1,0,1
EndSplineSet
Validated: 19457
EndChar

StartChar: asterisk
Encoding: 42 42 13
Width: 790
GlyphClass: 2
Flags: W
VStem: 305 180<921 1054 1366 1499>
DStem2: 190 1432 30 1317 0.866084 -0.499898<0 132.593 444.456 577.049> 30 1103 190 988 0.866084 0.499898<81.0853 213.678 525.542 658.134>
LayerCount: 2
Fore
SplineSet
475 1580 m 1,0,-1
 485 1580 l 1,1,-1
 485 1366 l 1,2,-1
 600 1432 l 1,3,-1
 755 1326 l 1,4,-1
 760 1317 l 1,5,-1
 575 1210 l 1,6,-1
 760 1103 l 1,7,-1
 755 1094 l 1,8,-1
 600 988 l 1,9,-1
 485 1054 l 1,10,-1
 485 921 l 1,11,-1
 315 840 l 1,12,-1
 305 840 l 1,13,-1
 305 1054 l 1,14,-1
 190 988 l 1,15,-1
 35 1094 l 1,16,-1
 30 1103 l 1,17,-1
 215 1210 l 1,18,-1
 30 1317 l 1,19,-1
 35 1326 l 1,20,-1
 190 1432 l 1,21,-1
 305 1366 l 1,22,-1
 305 1499 l 1,23,-1
 475 1580 l 1,0,-1
EndSplineSet
Validated: 19457
EndChar

StartChar: plus
Encoding: 43 43 14
Width: 1240
GlyphClass: 2
Flags: W
HStem: 620 270<235 485 755 1005>
VStem: 485 270<370 620 890 1140>
LayerCount: 2
Fore
SplineSet
745 1265 m 1,0,-1
 755 1265 l 1,1,-1
 755 890 l 1,2,-1
 1130 890 l 1,3,-1
 1130 880 l 1,4,-1
 1005 620 l 1,5,-1
 755 620 l 1,6,-1
 755 370 l 1,7,-1
 495 245 l 1,8,-1
 485 245 l 1,9,-1
 485 620 l 1,10,-1
 110 620 l 1,11,-1
 110 630 l 1,12,-1
 235 890 l 1,13,-1
 485 890 l 1,14,-1
 485 1140 l 1,15,-1
 745 1265 l 1,0,-1
EndSplineSet
Validated: 19457
EndChar

StartChar: comma
Encoding: 44 44 15
Width: 496
GlyphClass: 2
Flags: W
HStem: -328 666
VStem: 202 264<-112.817 113.6>
LayerCount: 2
Fore
SplineSet
30 212 m 1,0,-1
 299 338 l 1,1,-1
 309 338 l 1,2,3
 466 236 466 236 466 54 c 0,4,5
 466 -203 466 -203 130 -328 c 1,6,-1
 123 -321 l 1,7,8
 202 -172 202 -172 202 -24 c 0,9,10
 202 132 202 132 30 212 c 1,0,-1
EndSplineSet
Validated: 19457
EndChar

StartChar: hyphen
Encoding: 45 45 16
Width: 1240
GlyphClass: 2
Flags: W
HStem: 620 270<235 1005>
LayerCount: 2
Fore
SplineSet
235 890 m 1,0,-1
 1130 890 l 1,1,-1
 1130 880 l 1,2,-1
 1005 620 l 1,3,-1
 110 620 l 1,4,-1
 110 630 l 1,5,-1
 235 890 l 1,0,-1
EndSplineSet
Validated: 19457
EndChar

StartChar: period
Encoding: 46 46 17
Width: 420
GlyphClass: 2
Flags: W
HStem: -20 365<92.1309 326.878>
VStem: 30 360<42.5657 282.578>
LayerCount: 2
Fore
SplineSet
210 -20 m 0,0,1
 134 -20 134 -20 82 34 c 128,-1,2
 30 88 30 88 30 162 c 0,3,4
 30 238 30 238 82 291 c 0,5,6
 135 345 135 345 210 345 c 128,-1,7
 285 345 285 345 337.5 291.5 c 128,-1,8
 390 238 390 238 390 163 c 128,-1,9
 390 88 390 88 337 34 c 128,-1,10
 284 -20 284 -20 210 -20 c 0,0,1
EndSplineSet
Validated: 19457
EndChar

StartChar: slash
Encoding: 47 47 18
Width: 1105
GlyphClass: 2
Flags: W
DStem2: 10 -87 257 -200 0.423051 0.906106<2.10366 1983.21>
LayerCount: 2
Fore
SplineSet
247 -200 m 1,0,-1
 10 -87 l 1,1,-1
 849 1710 l 1,2,-1
 859 1710 l 1,3,-1
 1095 1597 l 1,4,-1
 257 -200 l 1,5,-1
 247 -200 l 1,0,-1
EndSplineSet
Validated: 1
EndChar

StartChar: zero
Encoding: 48 48 19
Width: 1370
GlyphClass: 2
Flags: W
HStem: -20 300<530.54 840.349> 1229 301<527.388 840.921>
VStem: 120 320<363.629 1146.27> 930 320<362.672 1146.37>
LayerCount: 2
Fore
SplineSet
686.5 280 m 128,-1,1
 790 280 790 280 860 337 c 128,-1,2
 930 394 930 394 930 482 c 2,3,-1
 930 1028 l 2,4,5
 929 1117 929 1117 858.5 1173 c 128,-1,6
 788 1229 788 1229 685 1229 c 128,-1,7
 582 1229 582 1229 511.5 1172.5 c 128,-1,8
 441 1116 441 1116 440 1028 c 2,9,-1
 440 482 l 2,10,11
 441 393 441 393 512 336.5 c 128,-1,0
 583 280 583 280 686.5 280 c 128,-1,1
686 -20 m 128,-1,13
 452 -20 452 -20 286 127 c 128,-1,14
 120 274 120 274 120 494 c 2,15,-1
 120 1016 l 2,16,17
 120 1238 120 1238 286 1384 c 0,18,19
 453 1530 453 1530 687 1530 c 0,20,21
 920 1530 920 1530 1085 1383 c 128,-1,22
 1250 1236 1250 1236 1250 1016 c 2,23,-1
 1250 494 l 2,24,25
 1250 272 1250 272 1085 126 c 128,-1,12
 920 -20 920 -20 686 -20 c 128,-1,13
EndSplineSet
Validated: 19457
EndChar

StartChar: one
Encoding: 49 49 20
Width: 794
GlyphClass: 2
Flags: W
HStem: -20 21G<264 316.177> 1510 20G<531.871 584>
VStem: 264 320<127 1078>
LayerCount: 2
Fore
SplineSet
274 -20 m 1,0,-1
 264 -20 l 1,1,-1
 264 1078 l 1,2,-1
 20 973 l 1,3,-1
 20 1267 l 1,4,-1
 574 1530 l 1,5,-1
 584 1530 l 1,6,-1
 584 127 l 1,7,-1
 274 -20 l 1,0,-1
EndSplineSet
Validated: 1
EndChar

StartChar: two
Encoding: 50 50 21
Width: 1273
GlyphClass: 2
Flags: W
HStem: 0 300<620 1047> 1230 300<455.428 767.915>
VStem: 50 320<911.637 1144.36> 854 326<866.006 1146.42>
DStem2: 622 667 620 300 0.784375 0.620287<-229.214 281.053>
LayerCount: 2
Fore
SplineSet
40 0 m 1,0,-1
 40 10 l 1,1,-1
 187 323 l 1,2,-1
 622 667 l 2,3,4
 854 850 854 850 854 1007 c 0,5,6
 854 1101 854 1101 802 1158 c 0,7,8
 734 1230 734 1230 614.5 1230 c 128,-1,9
 495 1230 495 1230 432.5 1167 c 128,-1,10
 370 1104 370 1104 370 1015 c 0,11,12
 370 969 370 969 399 927 c 1,13,-1
 129 800 l 1,14,-1
 119 800 l 1,15,16
 50 912 50 912 50 1048 c 0,17,18
 50 1229 50 1229 204 1380 c 0,19,20
 358 1530 358 1530 615 1530 c 0,21,22
 873 1530 873 1530 1026.5 1379.5 c 128,-1,23
 1180 1229 1180 1229 1180 1018 c 0,24,25
 1180 745 1180 745 883 509 c 2,26,-1
 620 300 l 1,27,-1
 1183 300 l 1,28,-1
 1183 290 l 1,29,-1
 1047 0 l 1,30,-1
 40 0 l 1,0,-1
EndSplineSet
Validated: 19457
EndChar

StartChar: three
Encoding: 51 51 22
Width: 1262
GlyphClass: 2
Flags: W
HStem: -20 300<469.354 774.97> 1210 300<308 626>
VStem: 862 320<369.276 630.848>
LayerCount: 2
Fore
SplineSet
616 -20 m 128,-1,1
 356 -20 356 -20 204 136 c 0,2,3
 85 258 85 258 60 419 c 1,4,-1
 363 563 l 1,5,-1
 373 563 l 1,6,7
 373 415 373 415 438 349 c 0,8,9
 506 280 506 280 621 280 c 0,10,11
 737 280 737 280 800 347 c 0,12,13
 862 413 862 413 862 500 c 0,14,15
 862 580 862 580 814 636 c 0,16,17
 748 712 748 712 642.5 712 c 128,-1,18
 537 712 537 712 457 680 c 1,19,-1
 368 780 l 1,20,-1
 626 1210 l 1,21,-1
 172 1210 l 1,22,-1
 172 1220 l 1,23,-1
 308 1510 l 1,24,-1
 1139 1510 l 1,25,-1
 798 948 l 1,26,27
 946 919 946 919 1047 824 c 0,28,29
 1182 696 1182 696 1182 493 c 0,30,31
 1182 276 1182 276 1032 130 c 0,32,0
 876 -20 876 -20 616 -20 c 128,-1,1
EndSplineSet
Validated: 19457
EndChar

StartChar: four
Encoding: 52 52 23
Width: 1317
GlyphClass: 2
Flags: W
HStem: -20 21G<787 839.177> 304 300<532 787 1107 1121> 1510 20G<1054.79 1107>
VStem: 787 320<127 304 604 965>
DStem2: 10 314 532 604 0.582974 0.812491<539.935 981.902>
LayerCount: 2
Fore
SplineSet
532 604 m 1,0,-1
 787 604 l 1,1,-1
 787 965 l 1,2,-1
 532 604 l 1,0,-1
797 -20 m 1,3,-1
 787 -20 l 1,4,-1
 787 304 l 1,5,-1
 10 304 l 1,6,-1
 10 314 l 1,7,-1
 772 1376 l 1,8,-1
 1097 1530 l 1,9,-1
 1107 1530 l 1,10,-1
 1107 604 l 1,11,-1
 1257 604 l 1,12,-1
 1257 594 l 1,13,-1
 1121 304 l 1,14,-1
 1107 304 l 1,15,-1
 1107 127 l 1,16,-1
 797 -20 l 1,3,-1
EndSplineSet
Validated: 1
EndChar

StartChar: five
Encoding: 53 53 24
Width: 1261
GlyphClass: 2
Flags: W
HStem: -20 300<469.354 774.84> 697 301<481.364 782.813> 1210 300<551 968>
VStem: 861 320<365.136 622.792>
LayerCount: 2
Fore
SplineSet
616 -20 m 0,0,1
 356 -20 356 -20 204 136 c 0,2,3
 85 258 85 258 60 419 c 1,4,-1
 363 563 l 1,5,-1
 373 563 l 1,6,7
 373 415 373 415 438 349 c 0,8,9
 506 280 506 280 621 280 c 0,10,11
 732 280 732 280 797 343 c 0,12,13
 861 405 861 405 861 498 c 0,14,15
 861 578 861 578 808 633 c 0,16,17
 746 697 746 697 621 697 c 0,18,19
 501 697 501 697 397 636 c 1,20,-1
 114 761 l 1,21,-1
 304 1510 l 1,22,-1
 1104 1510 l 1,23,-1
 1104 1500 l 1,24,-1
 968 1210 l 1,25,-1
 551 1210 l 1,26,-1
 480 978 l 1,27,28
 545 998 545 998 633 998 c 0,29,30
 872 998 872 998 1027 862 c 0,31,32
 1181 728 1181 728 1181 501 c 0,33,34
 1181 283 1181 283 1028 131 c 0,35,36
 874 -20 874 -20 616 -20 c 0,0,1
EndSplineSet
Validated: 19457
EndChar

StartChar: six
Encoding: 54 54 25
Width: 1340
GlyphClass: 2
Flags: W
HStem: -20 300<534.673 831.432> 713 302<534.035 832.719> 1230 300<524.612 830.577>
VStem: 120 320<369.809 624.662 950 1147.33> 928 322<371.001 623.502>
LayerCount: 2
Fore
SplineSet
683 -20 m 0,0,1
 448 -20 448 -20 284 127 c 128,-1,2
 120 274 120 274 120 494 c 2,3,-1
 120 1016 l 2,4,5
 120 1238 120 1238 285 1384 c 128,-1,6
 450 1530 450 1530 684 1530 c 128,-1,7
 918 1530 918 1530 1083 1383 c 0,8,9
 1203 1276 1203 1276 1237 1130 c 1,10,-1
 940 989 l 1,11,-1
 930 989 l 1,12,13
 930 1103 930 1103 857 1166.5 c 128,-1,14
 784 1230 784 1230 681 1230 c 128,-1,15
 578 1230 578 1230 509 1175 c 128,-1,16
 440 1120 440 1120 440 1035 c 2,17,-1
 440 950 l 1,18,19
 554 1015 554 1015 684 1015 c 0,20,21
 918 1015 918 1015 1084 867.5 c 128,-1,22
 1250 720 1250 720 1250 498 c 0,23,24
 1250 273 1250 273 1084 127 c 0,25,26
 917 -20 917 -20 683 -20 c 0,0,1
512.5 340.5 m 128,-1,28
 583 280 583 280 683.5 280 c 128,-1,29
 784 280 784 280 857 342 c 0,30,31
 928 404 928 404 928 497.5 c 128,-1,32
 928 591 928 591 856 652 c 128,-1,33
 784 713 784 713 684 713 c 128,-1,34
 584 713 584 713 512 653 c 0,35,36
 442 592 442 592 442 496.5 c 128,-1,27
 442 401 442 401 512.5 340.5 c 128,-1,28
EndSplineSet
Validated: 19457
EndChar

StartChar: seven
Encoding: 55 55 26
Width: 1098
GlyphClass: 2
Flags: W
HStem: -20 21G<132 184.412> 1210 300<146 626>
DStem2: 132 -20 564 179 0.36872 0.92954<344.266 1325.48>
LayerCount: 2
Fore
SplineSet
142 -20 m 1,0,-1
 132 -20 l 1,1,-1
 626 1210 l 1,2,-1
 10 1210 l 1,3,-1
 10 1220 l 1,4,-1
 146 1510 l 1,5,-1
 1088 1510 l 1,6,-1
 1088 1500 l 1,7,-1
 564 179 l 1,8,-1
 142 -20 l 1,0,-1
EndSplineSet
Validated: 1
EndChar

StartChar: eight
Encoding: 56 56 27
Width: 1250
GlyphClass: 2
Flags: W
HStem: -20 293<471.59 777.367> 686 271<495.178 754.338> 1264 266<495.383 753.429>
VStem: 60 322<358.94 599.803> 151 289<1009.98 1212.9> 809 289<1008.95 1211.14> 868 322<358.794 602.786>
LayerCount: 2
Fore
SplineSet
624 1264 m 128,-1,1
 546 1264 546 1264 493 1220 c 128,-1,2
 440 1176 440 1176 440 1109.5 c 128,-1,3
 440 1043 440 1043 493.5 1000 c 128,-1,4
 547 957 547 957 625 957 c 128,-1,5
 703 957 703 957 756 1001 c 128,-1,6
 809 1045 809 1045 809 1111 c 128,-1,7
 809 1177 809 1177 755.5 1220.5 c 128,-1,0
 702 1264 702 1264 624 1264 c 128,-1,1
626 273 m 128,-1,9
 728 273 728 273 798 332 c 128,-1,10
 868 391 868 391 868 480 c 0,11,12
 868 570 868 570 798 628 c 0,13,14
 727 686 727 686 625.5 686 c 128,-1,15
 524 686 524 686 452 627 c 0,16,17
 382 568 382 568 382 479 c 128,-1,18
 382 390 382 390 453 331.5 c 128,-1,8
 524 273 524 273 626 273 c 128,-1,9
624.5 -20 m 128,-1,20
 391 -20 391 -20 225 121 c 0,21,22
 60 262 60 262 60 484 c 0,23,24
 60 726 60 726 259 853 c 1,25,26
 151 957 151 957 151 1123 c 128,-1,27
 151 1289 151 1289 290 1410 c 0,28,29
 428 1530 428 1530 624 1530 c 0,30,31
 822 1530 822 1530 960 1410 c 0,32,33
 1098 1291 1098 1291 1098 1125.5 c 128,-1,34
 1098 960 1098 960 991 855 c 1,35,36
 1190 715 1190 715 1190 488 c 0,37,38
 1190 260 1190 260 1024 120 c 128,-1,19
 858 -20 858 -20 624.5 -20 c 128,-1,20
EndSplineSet
Validated: 19457
EndChar

StartChar: nine
Encoding: 57 57 28
Width: 1340
GlyphClass: 2
Flags: W
HStem: -20 300<509.423 815.388> 495 302<507.281 805.965> 1230 300<508.568 805.327>
VStem: 90 322<886.498 1139> 900 320<362.672 560 885.338 1140.19>
LayerCount: 2
Fore
SplineSet
656 -20 m 128,-1,1
 422 -20 422 -20 257 127 c 0,2,3
 137 234 137 234 103 380 c 1,4,-1
 400 521 l 1,5,-1
 410 521 l 1,6,7
 410 407 410 407 483 343.5 c 128,-1,8
 556 280 556 280 659 280 c 128,-1,9
 762 280 762 280 831 335 c 128,-1,10
 900 390 900 390 900 475 c 2,11,-1
 900 560 l 1,12,13
 786 495 786 495 656 495 c 0,14,15
 422 495 422 495 256 642.5 c 128,-1,16
 90 790 90 790 90 1012 c 0,17,18
 90 1237 90 1237 256 1383 c 0,19,20
 423 1530 423 1530 657 1530 c 0,21,22
 892 1530 892 1530 1056 1383 c 128,-1,23
 1220 1236 1220 1236 1220 1016 c 2,24,-1
 1220 494 l 2,25,26
 1220 272 1220 272 1055 126 c 128,-1,0
 890 -20 890 -20 656 -20 c 128,-1,1
827.5 1169.5 m 128,-1,28
 757 1230 757 1230 656.5 1230 c 128,-1,29
 556 1230 556 1230 483 1168 c 0,30,31
 412 1106 412 1106 412 1012.5 c 128,-1,32
 412 919 412 919 484 858 c 128,-1,33
 556 797 556 797 656 797 c 128,-1,34
 756 797 756 797 828 857 c 0,35,36
 898 918 898 918 898 1013.5 c 128,-1,27
 898 1109 898 1109 827.5 1169.5 c 128,-1,28
EndSplineSet
Validated: 19457
EndChar

StartChar: colon
Encoding: 58 58 29
Width: 420
GlyphClass: 2
Flags: W
HStem: -20 365<92.1309 326.878> 573 365<92.1309 326.878>
VStem: 30 360<42.5657 282.578 635.566 875.578>
LayerCount: 2
Fore
SplineSet
210 938 m 128,-1,1
 285 938 285 938 337.5 884.5 c 128,-1,2
 390 831 390 831 390 756 c 128,-1,3
 390 681 390 681 337 627 c 128,-1,4
 284 573 284 573 210 573 c 0,5,6
 134 573 134 573 82 627 c 128,-1,7
 30 681 30 681 30 755 c 0,8,9
 30 831 30 831 82 884 c 0,10,0
 135 938 135 938 210 938 c 128,-1,1
210 -20 m 0,11,12
 134 -20 134 -20 82 34 c 128,-1,13
 30 88 30 88 30 162 c 0,14,15
 30 238 30 238 82 291 c 0,16,17
 135 345 135 345 210 345 c 128,-1,18
 285 345 285 345 337.5 291.5 c 128,-1,19
 390 238 390 238 390 163 c 128,-1,20
 390 88 390 88 337 34 c 128,-1,21
 284 -20 284 -20 210 -20 c 0,11,12
EndSplineSet
Validated: 19457
EndChar

StartChar: semicolon
Encoding: 59 59 30
Width: 496
GlyphClass: 2
Flags: W
HStem: 573 365<130.131 364.878>
VStem: 68 360<635.566 875.578> 202 264<-112.817 113.6>
LayerCount: 2
Fore
SplineSet
30 212 m 1,0,-1
 299 338 l 1,1,-1
 309 338 l 1,2,3
 466 236 466 236 466 54 c 0,4,5
 466 -203 466 -203 130 -328 c 1,6,-1
 123 -321 l 1,7,8
 202 -172 202 -172 202 -24 c 0,9,10
 202 132 202 132 30 212 c 1,0,-1
248 938 m 128,-1,12
 323 938 323 938 375.5 884.5 c 128,-1,13
 428 831 428 831 428 756 c 128,-1,14
 428 681 428 681 375 627 c 128,-1,15
 322 573 322 573 248 573 c 0,16,17
 172 573 172 573 120 627 c 128,-1,18
 68 681 68 681 68 755 c 0,19,20
 68 831 68 831 120 884 c 0,21,11
 173 938 173 938 248 938 c 128,-1,12
EndSplineSet
Validated: 19457
EndChar

StartChar: less
Encoding: 60 60 31
Width: 1355
GlyphClass: 2
Flags: W
DStem2: 586 751 110 638 0.942398 -0.334493<0 620.627> 227 891 586 751 0.937801 0.347172<288.067 915.972>
LayerCount: 2
Fore
SplineSet
110 638 m 1,0,-1
 110 648 l 1,1,-1
 227 891 l 1,2,-1
 1086 1209 l 1,3,-1
 1195 983 l 1,4,-1
 1195 973 l 1,5,-1
 586 751 l 1,6,-1
 1195 539 l 1,7,-1
 1195 529 l 1,8,-1
 1082 293 l 1,9,-1
 110 638 l 1,0,-1
EndSplineSet
Validated: 19457
EndChar

StartChar: equal
Encoding: 61 61 32
Width: 1240
GlyphClass: 2
Flags: W
HStem: 390 270<235 1005> 850 270<235 1005>
LayerCount: 2
Fore
SplineSet
235 660 m 1,0,-1
 1130 660 l 1,1,-1
 1130 650 l 1,2,-1
 1005 390 l 1,3,-1
 110 390 l 1,4,-1
 110 400 l 1,5,-1
 235 660 l 1,0,-1
235 1120 m 1,6,-1
 1130 1120 l 1,7,-1
 1130 1110 l 1,8,-1
 1005 850 l 1,9,-1
 110 850 l 1,10,-1
 110 860 l 1,11,-1
 235 1120 l 1,6,-1
EndSplineSet
Validated: 19457
EndChar

StartChar: greater
Encoding: 62 62 33
Width: 1355
GlyphClass: 2
Flags: W
DStem2: 273 1217 160 971 0.942398 -0.334493<0 620.627> 160 537 269 301 0.937801 0.347172<20.2877 648.193>
LayerCount: 2
Fore
SplineSet
1245 872 m 1,0,-1
 1245 862 l 1,1,-1
 1128 619 l 1,2,-1
 269 301 l 1,3,-1
 160 527 l 1,4,-1
 160 537 l 1,5,-1
 769 759 l 1,6,-1
 160 971 l 1,7,-1
 160 981 l 1,8,-1
 273 1217 l 1,9,-1
 1245 872 l 1,0,-1
EndSplineSet
Validated: 19457
EndChar

StartChar: question
Encoding: 63 63 34
Width: 1340
GlyphClass: 2
Flags: W
HStem: -20 365<527.131 761.878> 1231 299<515.834 828.942>
VStem: 110 317<911.079 1144.53> 465 360<42.5657 282.578> 909 321<895.718 1156.17>
LayerCount: 2
Fore
SplineSet
677 1530 m 0,0,1
 937 1530 937 1530 1084 1385 c 0,2,3
 1230 1240 1230 1240 1230 1056 c 0,4,5
 1230 736 1230 736 868 571 c 0,6,7
 811 545 811 545 811 506 c 1,8,-1
 498 359 l 1,9,-1
 488 359 l 1,10,11
 488 692 488 692 731 796 c 24,12,13
 909 872 909 872 909 1038 c 0,14,15
 909 1110 909 1110 862 1159 c 0,16,17
 793 1231 793 1231 674 1231 c 0,18,19
 554 1231 554 1231 490 1166 c 0,20,21
 427 1103 427 1103 427 1014 c 0,22,23
 427 968 427 968 456 926 c 1,24,-1
 186 799 l 1,25,-1
 176 799 l 1,26,27
 110 905 110 905 110 1047 c 0,28,29
 110 1234 110 1234 261 1379 c 0,30,31
 418 1530 418 1530 677 1530 c 0,0,1
645 -20 m 0,32,33
 569 -20 569 -20 517 34 c 128,-1,34
 465 88 465 88 465 162 c 0,35,36
 465 238 465 238 517 291 c 0,37,38
 570 345 570 345 645 345 c 128,-1,39
 720 345 720 345 772.5 291.5 c 128,-1,40
 825 238 825 238 825 163 c 128,-1,41
 825 88 825 88 772 34 c 128,-1,42
 719 -20 719 -20 645 -20 c 0,32,33
EndSplineSet
Validated: 19457
EndChar

StartChar: at
Encoding: 64 64 35
Width: 1420
GlyphClass: 2
Flags: W
HStem: -430 280<551 706> -20 223<827.943 980> 455 204<833.636 980> 840 280<550.847 889.359>
VStem: 140 300<-50.4932 738.323> 535 245<250.629 407.665> 980 300<203 455 659 754.401>
LayerCount: 2
Fore
SplineSet
990 -20 m 1,0,-1
 952 -20 l 2,1,2
 767 -20 767 -20 651 82 c 128,-1,3
 535 184 535 184 535 324 c 0,4,5
 535 487 535 487 682 588 c 0,6,7
 785 659 785 659 965 659 c 2,8,-1
 980 659 l 1,9,10
 980 724 980 724 914 778 c 0,11,12
 839 840 839 840 723 840 c 0,13,14
 602 840 602 840 521 776.5 c 128,-1,15
 440 713 440 713 440 608 c 2,16,-1
 440 82 l 2,17,18
 440 -18 440 -18 516 -84 c 0,19,20
 591 -150 591 -150 705 -150 c 2,21,-1
 836 -150 l 1,22,-1
 836 -160 l 1,23,-1
 706 -430 l 1,24,25
 374 -429 374 -429 218 -189 c 0,26,27
 140 -69 140 -69 140 90 c 2,28,-1
 140 600 l 2,29,30
 140 823 140 823 296 971.5 c 128,-1,31
 452 1120 452 1120 710 1120 c 128,-1,32
 968 1120 968 1120 1124 973.5 c 128,-1,33
 1280 827 1280 827 1280 604 c 2,34,-1
 1280 118 l 1,35,-1
 990 -20 l 1,0,-1
980 455 m 1,36,37
 884 448 884 448 832 414.5 c 128,-1,38
 780 381 780 381 780 322 c 0,39,40
 780 284 780 284 819 252 c 0,41,42
 878 204 878 204 980 203 c 1,43,-1
 980 455 l 1,36,37
EndSplineSet
Validated: 19457
EndChar

StartChar: A
Encoding: 65 65 36
Width: 1410
GlyphClass: 2
Flags: W
HStem: -20 21G<140 192.177 950 1002.18> 605 300<460 950> 1230 300<552.799 859.72>
VStem: 140 320<127 605 905 1141.11> 950 320<127 605 905 1140.19>
LayerCount: 2
Fore
SplineSet
150 -20 m 1,0,-1
 140 -20 l 1,1,-1
 140 1016 l 2,2,3
 140 1238 140 1238 306 1384 c 128,-1,4
 472 1530 472 1530 706.5 1530 c 128,-1,5
 941 1530 941 1530 1105.5 1383 c 128,-1,6
 1270 1236 1270 1236 1270 1016 c 2,7,-1
 1270 127 l 1,8,-1
 960 -20 l 1,9,-1
 950 -20 l 1,10,-1
 950 605 l 1,11,-1
 460 605 l 1,12,-1
 460 127 l 1,13,-1
 150 -20 l 1,0,-1
950 905 m 1,14,-1
 950 1022 l 2,15,16
 950 1113 950 1113 878 1172 c 0,17,18
 808 1230 808 1230 705.5 1230 c 128,-1,19
 603 1230 603 1230 531.5 1171 c 128,-1,20
 460 1112 460 1112 460 1022 c 2,21,-1
 460 905 l 1,22,-1
 950 905 l 1,14,-1
EndSplineSet
Validated: 19457
EndChar

StartChar: B
Encoding: 66 66 37
Width: 1300
GlyphClass: 2
Flags: W
HStem: 0 300<480 853.147> 676 285<480 815.588> 1225 285<480 815.711>
VStem: 160 320<300 676 961 1225> 859 300<1000.39 1184.85> 930 320<372.01 603.283>
LayerCount: 2
Fore
SplineSet
480 1225 m 1,0,-1
 480 961 l 1,1,-1
 705 961 l 2,2,3
 772 961 772 961 817 1000 c 0,4,5
 859 1036 859 1036 859 1093 c 0,6,7
 859 1146 859 1146 817 1186 c 0,8,9
 776 1225 776 1225 705 1225 c 2,10,-1
 480 1225 l 1,0,-1
480 300 m 1,11,-1
 685 300 l 2,12,13
 814 301 814 301 872 356 c 128,-1,14
 930 411 930 411 930 487 c 128,-1,15
 930 563 930 563 872.5 619.5 c 128,-1,16
 815 676 815 676 685 676 c 2,17,-1
 480 676 l 1,18,-1
 480 300 l 1,11,-1
160 0 m 1,19,-1
 160 1384 l 1,20,-1
 428 1510 l 1,21,-1
 685 1510 l 2,22,23
 870 1510 870 1510 1003 1413 c 0,24,25
 1159 1299 1159 1299 1159 1112 c 0,26,27
 1159 966 1159 966 1050 858 c 1,28,29
 1070 845 1070 845 1086 831 c 0,30,31
 1250 691 1250 691 1250 485 c 0,32,33
 1250 278 1250 278 1100 139 c 0,34,35
 949 0 949 0 685 0 c 2,36,-1
 160 0 l 1,19,-1
EndSplineSet
Validated: 19457
EndChar

StartChar: C
Encoding: 67 67 38
Width: 1290
GlyphClass: 2
Flags: W
HStem: -20 300<529.915 845.472> 1228 302<526.547 840.247>
VStem: 120 320<363.629 1147.33>
LayerCount: 2
Fore
SplineSet
685 -20 m 128,-1,1
 450 -20 450 -20 285 127 c 128,-1,2
 120 274 120 274 120 494 c 2,3,-1
 120 1016 l 2,4,5
 120 1238 120 1238 286 1384 c 128,-1,6
 452 1530 452 1530 686 1530 c 128,-1,7
 920 1530 920 1530 1084 1378 c 0,8,9
 1205 1266 1205 1266 1238 1116 c 1,10,-1
 940 974 l 1,11,-1
 930 974 l 1,12,13
 930 1116 930 1116 858 1172 c 128,-1,14
 786 1228 786 1228 684 1228 c 0,15,16
 584 1228 584 1228 510 1172 c 0,17,18
 440 1118 440 1118 440 1028 c 2,19,-1
 440 482 l 2,20,21
 440 392 440 392 512 336 c 128,-1,22
 584 280 584 280 687 280 c 128,-1,23
 790 280 790 280 850 328 c 0,24,25
 886 357 886 357 909 401 c 1,26,-1
 1240 558 l 1,27,-1
 1250 558 l 1,28,-1
 1250 502 l 2,29,30
 1250 278 1250 278 1084 128 c 0,31,0
 920 -20 920 -20 685 -20 c 128,-1,1
EndSplineSet
Validated: 19457
EndChar

StartChar: D
Encoding: 68 68 39
Width: 1390
GlyphClass: 2
Flags: W
HStem: 0 300<480 858.291> 1210 300<480 857.84>
VStem: 160 320<300 1210> 950 320<384.113 1126.75>
LayerCount: 2
Fore
SplineSet
480 300 m 1,0,-1
 705 300 l 2,1,2
 808 300 808 300 880 357 c 0,3,4
 950 413 950 413 950 501 c 2,5,-1
 950 1009 l 2,6,7
 950 1097 950 1097 878 1153 c 0,8,9
 806 1210 806 1210 705 1210 c 2,10,-1
 480 1210 l 1,11,-1
 480 300 l 1,0,-1
160 0 m 1,12,-1
 160 1383 l 1,13,-1
 428 1510 l 1,14,-1
 705 1510 l 2,15,16
 939 1510 939 1510 1105 1362 c 0,17,18
 1270 1216 1270 1216 1270 997 c 2,19,-1
 1270 513 l 2,20,21
 1270 296 1270 296 1105 148 c 128,-1,22
 940 0 940 0 705 0 c 2,23,-1
 160 0 l 1,12,-1
EndSplineSet
Validated: 19457
EndChar

StartChar: E
Encoding: 69 69 40
Width: 1100
GlyphClass: 2
Flags: W
HStem: 0 300<480 954> 605 300<480 904> 1210 300<480 904>
VStem: 160 320<300 605 905 1210>
CounterMasks: 1 e0
LayerCount: 2
Fore
SplineSet
160 0 m 1,0,-1
 160 1384 l 1,1,-1
 428 1510 l 1,2,-1
 1040 1510 l 1,3,-1
 1040 1500 l 1,4,-1
 904 1210 l 1,5,-1
 480 1210 l 1,6,-1
 480 905 l 1,7,-1
 1040 905 l 1,8,-1
 1040 895 l 1,9,-1
 904 605 l 1,10,-1
 480 605 l 1,11,-1
 480 300 l 1,12,-1
 1090 300 l 1,13,-1
 1090 290 l 1,14,-1
 954 0 l 1,15,-1
 160 0 l 1,0,-1
EndSplineSet
Validated: 19457
EndChar

StartChar: F
Encoding: 70 70 41
Width: 1050
GlyphClass: 2
Flags: W
HStem: -20 21G<160 212.177> 605 300<480 904> 1210 300<480 904>
VStem: 160 320<127 605 905 1210>
LayerCount: 2
Fore
SplineSet
170 -20 m 1,0,-1
 160 -20 l 1,1,-1
 160 1384 l 1,2,-1
 428 1510 l 1,3,-1
 1040 1510 l 1,4,-1
 1040 1500 l 1,5,-1
 904 1210 l 1,6,-1
 480 1210 l 1,7,-1
 480 905 l 1,8,-1
 1040 905 l 1,9,-1
 1040 895 l 1,10,-1
 904 605 l 1,11,-1
 480 605 l 1,12,-1
 480 127 l 1,13,-1
 170 -20 l 1,0,-1
EndSplineSet
Validated: 19457
EndChar

StartChar: G
Encoding: 71 71 42
Width: 1370
GlyphClass: 2
Flags: W
HStem: -20 301<530.641 845.931> 605 300<718 930> 1230 300<527.048 839.067>
VStem: 120 320<363.629 1146.85> 930 320<361.183 605 1109.43 1114>
LayerCount: 2
Fore
SplineSet
686 -20 m 128,-1,1
 452 -20 452 -20 286 127 c 128,-1,2
 120 274 120 274 120 494 c 2,3,-1
 120 1016 l 2,4,5
 120 1238 120 1238 286 1384 c 128,-1,6
 452 1530 452 1530 686 1530 c 128,-1,7
 920 1530 920 1530 1084 1378 c 0,8,9
 1205 1266 1205 1266 1238 1116 c 1,10,-1
 940 974 l 1,11,-1
 930 974 l 1,12,13
 930 1114 930 1114 858 1172 c 128,-1,14
 786 1230 786 1230 684 1230 c 0,15,16
 581 1230 581 1230 512 1174 c 0,17,18
 440 1115 440 1115 440 1028 c 2,19,-1
 440 482 l 2,20,21
 440 394 440 394 512 337 c 0,22,23
 584 281 584 281 687 281 c 128,-1,24
 790 281 790 281 860 334.5 c 128,-1,25
 930 388 930 388 930 472 c 2,26,-1
 930 605 l 1,27,-1
 582 605 l 1,28,-1
 582 615 l 1,29,-1
 718 905 l 1,30,-1
 1250 905 l 1,31,-1
 1250 500 l 2,32,33
 1250 276 1250 276 1085 128 c 128,-1,0
 920 -20 920 -20 686 -20 c 128,-1,1
EndSplineSet
Validated: 19457
EndChar

StartChar: H
Encoding: 72 72 43
Width: 1440
GlyphClass: 2
Flags: W
HStem: -20 21G<160 212.177 960 1012.18> 605 300<480 960> 1510 20G<427.823 480 1227.82 1280>
VStem: 160 320<127 605 905 1383> 960 320<127 605 905 1383>
LayerCount: 2
Fore
SplineSet
170 -20 m 1,0,-1
 160 -20 l 1,1,-1
 160 1383 l 1,2,-1
 470 1530 l 1,3,-1
 480 1530 l 1,4,-1
 480 905 l 1,5,-1
 960 905 l 1,6,-1
 960 1383 l 1,7,-1
 1270 1530 l 1,8,-1
 1280 1530 l 1,9,-1
 1280 127 l 1,10,-1
 970 -20 l 1,11,-1
 960 -20 l 1,12,-1
 960 605 l 1,13,-1
 480 605 l 1,14,-1
 480 127 l 1,15,-1
 170 -20 l 1,0,-1
EndSplineSet
Validated: 19457
EndChar

StartChar: I
Encoding: 73 73 44
Width: 640
GlyphClass: 2
Flags: W
HStem: -20 21G<160 212.177> 1510 20G<427.823 480>
VStem: 160 320<127 1383>
LayerCount: 2
Fore
SplineSet
170 -20 m 1,0,-1
 160 -20 l 1,1,-1
 160 1383 l 1,2,-1
 470 1530 l 1,3,-1
 480 1530 l 1,4,-1
 480 127 l 1,5,-1
 170 -20 l 1,0,-1
EndSplineSet
Validated: 19457
EndChar

StartChar: J
Encoding: 74 74 45
Width: 1224
GlyphClass: 2
Flags: W
HStem: -20 300<400.528 701.475> 1210 300<255 784>
VStem: 784 320<359.16 1210>
LayerCount: 2
Fore
SplineSet
553 -20 m 0,0,1
 320 -20 320 -20 158 131 c 0,2,3
 43 238 43 238 10 397 c 1,4,-1
 303 535 l 1,5,-1
 313 535 l 1,6,-1
 313 482 l 2,7,8
 313 393 313 393 384 336.5 c 128,-1,9
 455 280 455 280 553 280 c 0,10,11
 650 280 650 280 718 337 c 0,12,13
 784 393 784 393 784 482 c 2,14,-1
 784 1210 l 1,15,-1
 119 1210 l 1,16,-1
 119 1220 l 1,17,-1
 255 1510 l 1,18,-1
 1104 1510 l 1,19,-1
 1104 494 l 2,20,21
 1104 274 1104 274 943 127 c 128,-1,22
 782 -20 782 -20 553 -20 c 0,0,1
EndSplineSet
Validated: 1
EndChar

StartChar: K
Encoding: 75 75 46
Width: 1390
GlyphClass: 2
Flags: W
HStem: -20 21G<160 212.177 950 1002.18> 1510 20G<427.823 480 949.836 1023.33>
VStem: 160 320<127 730.67 1066 1383> 950 320<127 723.191>
LayerCount: 2
Fore
SplineSet
170 -20 m 1,0,-1
 160 -20 l 1,1,-1
 160 1383 l 1,2,-1
 470 1530 l 1,3,-1
 480 1530 l 1,4,-1
 480 1066 l 1,5,-1
 971 1530 l 1,6,-1
 981 1530 l 1,7,-1
 1254 1401 l 1,8,-1
 904 1084 l 1,9,10
 1014 1048 1014 1048 1106 966 c 0,11,12
 1270 819 1270 819 1270 599 c 2,13,-1
 1270 127 l 1,14,-1
 960 -20 l 1,15,-1
 950 -20 l 1,16,-1
 950 605 l 2,17,18
 950 697 950 697 874 758 c 0,19,20
 804 813 804 813 716 813 c 0,21,22
 625 813 625 813 555 760 c 0,23,24
 480 702 480 702 480 605 c 2,25,-1
 480 127 l 1,26,-1
 170 -20 l 1,0,-1
EndSplineSet
Validated: 19457
EndChar

StartChar: L
Encoding: 76 76 47
Width: 1100
GlyphClass: 2
Flags: W
HStem: 0 300<480 954> 1510 20G<427.534 480>
VStem: 160 320<300 1384>
LayerCount: 2
Fore
SplineSet
160 0 m 1,0,-1
 160 1384 l 1,1,-1
 470 1530 l 1,2,-1
 480 1530 l 1,3,-1
 480 300 l 1,4,-1
 1090 300 l 1,5,-1
 1090 290 l 1,6,-1
 954 0 l 1,7,-1
 160 0 l 1,0,-1
EndSplineSet
Validated: 19457
EndChar

StartChar: M
Encoding: 77 77 48
Width: 2220
GlyphClass: 2
Flags: W
HStem: -20 21G<140 192.177 950 1002.18 1760 1812.18> 1230 300<552.691 860.104 1362.54 1670.3>
VStem: 140 320<127 1141.11> 950 320<127 1143.7> 1760 320<127 1140.19>
CounterMasks: 1 38
LayerCount: 2
Fore
SplineSet
150 -20 m 1,0,-1
 140 -20 l 1,1,-1
 140 1016 l 2,2,3
 140 1238 140 1238 306 1384 c 128,-1,4
 472 1530 472 1530 706 1530 c 0,5,6
 942 1530 942 1530 1110 1379 c 1,7,8
 1281 1530 1281 1530 1518 1530 c 0,9,10
 1752 1530 1752 1530 1916 1383 c 128,-1,11
 2080 1236 2080 1236 2080 1016 c 2,12,-1
 2080 127 l 1,13,-1
 1770 -20 l 1,14,-1
 1760 -20 l 1,15,-1
 1760 1022 l 2,16,17
 1760 1113 1760 1113 1688 1172 c 0,18,19
 1618 1230 1618 1230 1515.5 1230 c 128,-1,20
 1413 1230 1413 1230 1341.5 1171 c 128,-1,21
 1270 1112 1270 1112 1270 1022 c 2,22,-1
 1270 127 l 1,23,-1
 960 -20 l 1,24,-1
 950 -20 l 1,25,-1
 950 1022 l 2,26,27
 950 1113 950 1113 878 1172 c 0,28,29
 808 1230 808 1230 705.5 1230 c 128,-1,30
 603 1230 603 1230 531.5 1171 c 128,-1,31
 460 1112 460 1112 460 1022 c 2,32,-1
 460 127 l 1,33,-1
 150 -20 l 1,0,-1
EndSplineSet
Validated: 19457
EndChar

StartChar: N
Encoding: 78 78 49
Width: 1410
GlyphClass: 2
Flags: W
HStem: -20 21G<140 192.177 950 1002.18> 1230 300<552.799 859.72>
VStem: 140 320<127 1141.11> 950 320<127 1140.19>
LayerCount: 2
Fore
SplineSet
150 -20 m 1,0,-1
 140 -20 l 1,1,-1
 140 1016 l 2,2,3
 140 1238 140 1238 306 1384 c 128,-1,4
 472 1530 472 1530 706.5 1530 c 128,-1,5
 941 1530 941 1530 1105.5 1383 c 128,-1,6
 1270 1236 1270 1236 1270 1016 c 2,7,-1
 1270 127 l 1,8,-1
 960 -20 l 1,9,-1
 950 -20 l 1,10,-1
 950 1022 l 2,11,12
 950 1113 950 1113 878 1172 c 0,13,14
 808 1230 808 1230 705.5 1230 c 128,-1,15
 603 1230 603 1230 531.5 1171 c 128,-1,16
 460 1112 460 1112 460 1022 c 2,17,-1
 460 127 l 1,18,-1
 150 -20 l 1,0,-1
EndSplineSet
Validated: 19457
EndChar

StartChar: O
Encoding: 79 79 50
Width: 1370
GlyphClass: 2
Flags: W
HStem: -20 300<530.54 840.349> 1229 301<527.388 840.921>
VStem: 120 320<363.629 1146.27> 930 320<362.672 1146.37>
LayerCount: 2
Fore
SplineSet
686.5 280 m 128,-1,1
 790 280 790 280 860 337 c 128,-1,2
 930 394 930 394 930 482 c 2,3,-1
 930 1028 l 2,4,5
 929 1117 929 1117 858.5 1173 c 128,-1,6
 788 1229 788 1229 685 1229 c 128,-1,7
 582 1229 582 1229 511.5 1172.5 c 128,-1,8
 441 1116 441 1116 440 1028 c 2,9,-1
 440 482 l 2,10,11
 441 393 441 393 512 336.5 c 128,-1,0
 583 280 583 280 686.5 280 c 128,-1,1
686 -20 m 128,-1,13
 452 -20 452 -20 286 127 c 128,-1,14
 120 274 120 274 120 494 c 2,15,-1
 120 1016 l 2,16,17
 120 1238 120 1238 286 1384 c 0,18,19
 453 1530 453 1530 687 1530 c 0,20,21
 920 1530 920 1530 1085 1383 c 128,-1,22
 1250 1236 1250 1236 1250 1016 c 2,23,-1
 1250 494 l 2,24,25
 1250 272 1250 272 1085 126 c 128,-1,12
 920 -20 920 -20 686 -20 c 128,-1,13
EndSplineSet
Validated: 19457
EndChar

StartChar: P
Encoding: 80 80 51
Width: 1270
GlyphClass: 2
Flags: W
HStem: -20 21G<160 212.177> 440 301<480 824.983> 1210 300<480 821.097>
VStem: 160 320<127 440 741 1210> 920 320<836.943 1113.23>
LayerCount: 2
Fore
SplineSet
480 741 m 1,0,-1
 692 741 l 2,1,2
 790 741 790 741 855 812 c 128,-1,3
 920 883 920 883 920 975 c 128,-1,4
 920 1067 920 1067 855 1138.5 c 128,-1,5
 790 1210 790 1210 692 1210 c 2,6,-1
 480 1210 l 1,7,-1
 480 741 l 1,0,-1
170 -20 m 1,8,-1
 160 -20 l 1,9,-1
 160 1383 l 1,10,-1
 428 1510 l 1,11,-1
 686 1510 l 2,12,13
 926 1510 926 1510 1082 1353 c 0,14,15
 1240 1196 1240 1196 1240 975 c 128,-1,16
 1240 754 1240 754 1081 597 c 128,-1,17
 922 440 922 440 686 440 c 2,18,-1
 480 440 l 1,19,-1
 480 127 l 1,20,-1
 170 -20 l 1,8,-1
EndSplineSet
Validated: 19457
EndChar

StartChar: Q
Encoding: 81 81 52
Width: 1370
GlyphClass: 2
Flags: W
HStem: -20 21G<569 734> 1229 301<527.388 840.921>
VStem: 120 320<363.629 1146.27> 930 320<434.19 1146.37>
LayerCount: 2
Fore
SplineSet
686 -20 m 0,0,1
 452 -20 452 -20 286 127 c 128,-1,2
 120 274 120 274 120 494 c 2,3,-1
 120 1016 l 2,4,5
 120 1238 120 1238 286 1384 c 0,6,7
 453 1530 453 1530 687 1530 c 0,8,9
 920 1530 920 1530 1085 1383 c 128,-1,10
 1250 1236 1250 1236 1250 1016 c 2,11,-1
 1250 494 l 2,12,13
 1250 298 1250 298 1121 161 c 1,14,-1
 1197 57 l 1,15,-1
 910 -40 l 1,16,-1
 900 -40 l 1,17,-1
 867 5 l 1,18,19
 782 -20 782 -20 686 -20 c 0,0,1
664 281 m 1,20,-1
 494 512 l 1,21,-1
 781 609 l 1,22,-1
 791 609 l 1,23,-1
 923 430 l 1,24,25
 930 455 930 455 930 482 c 2,26,-1
 930 1028 l 2,27,28
 929 1117 929 1117 858.5 1173 c 128,-1,29
 788 1229 788 1229 685 1229 c 128,-1,30
 582 1229 582 1229 511.5 1172.5 c 128,-1,31
 441 1116 441 1116 440 1028 c 2,32,-1
 440 482 l 2,33,34
 441 392 441 392 512 336 c 0,35,36
 575 286 575 286 664 281 c 1,20,-1
EndSplineSet
Validated: 19457
EndChar

StartChar: R
Encoding: 82 82 53
Width: 1369
GlyphClass: 2
Flags: W
HStem: -20 21G<160 212.177 998.87 1068> 440 301<480 688> 1210 300<480 821.097>
VStem: 160 320<127 440 741 1210> 920 320<836.943 1113.23>
DStem2: 1020 543 688 440 0.577032 -0.816722<-3.05354 455.775>
LayerCount: 2
Fore
SplineSet
170 -20 m 1,0,-1
 160 -20 l 1,1,-1
 160 1383 l 1,2,-1
 428 1510 l 1,3,-1
 686 1510 l 2,4,5
 926 1510 926 1510 1082 1353 c 0,6,7
 1240 1196 1240 1196 1240 975 c 128,-1,8
 1240 754 1240 754 1082 597 c 0,9,10
 1052 567 1052 567 1020 543 c 1,11,-1
 1329 116 l 1,12,-1
 1023 -20 l 1,13,-1
 1013 -20 l 1,14,-1
 688 440 l 1,15,-1
 480 440 l 1,16,-1
 480 127 l 1,17,-1
 170 -20 l 1,0,-1
480 741 m 1,18,-1
 692 741 l 2,19,20
 790 741 790 741 855 812 c 128,-1,21
 920 883 920 883 920 975 c 128,-1,22
 920 1067 920 1067 855 1138.5 c 128,-1,23
 790 1210 790 1210 692 1210 c 2,24,-1
 480 1210 l 1,25,-1
 480 741 l 1,18,-1
EndSplineSet
Validated: 19457
EndChar

StartChar: T
Encoding: 84 84 54
Width: 1190
GlyphClass: 2
Flags: W
HStem: -20 21G<435 487.466> 1210 300<146 435 755 1044>
VStem: 435 320<126 1210>
LayerCount: 2
Fore
SplineSet
445 -20 m 1,0,-1
 435 -20 l 1,1,-1
 435 1210 l 1,2,-1
 10 1210 l 1,3,-1
 10 1220 l 1,4,-1
 146 1510 l 1,5,-1
 1180 1510 l 1,6,-1
 1180 1500 l 1,7,-1
 1044 1210 l 1,8,-1
 755 1210 l 1,9,-1
 755 126 l 1,10,-1
 445 -20 l 1,0,-1
EndSplineSet
Validated: 1
EndChar

StartChar: U
Encoding: 85 85 55
Width: 1410
GlyphClass: 2
Flags: W
HStem: -20 300<550.28 857.201> 1510 20G<407.823 460 1217.82 1270>
VStem: 140 320<369.809 1383> 950 320<368.886 1383>
LayerCount: 2
Fore
SplineSet
703.5 -20 m 128,-1,1
 469 -20 469 -20 304.5 127 c 128,-1,2
 140 274 140 274 140 494 c 2,3,-1
 140 1383 l 1,4,-1
 450 1530 l 1,5,-1
 460 1530 l 1,6,-1
 460 488 l 2,7,8
 460 397 460 397 532 338 c 0,9,10
 602 280 602 280 704.5 280 c 128,-1,11
 807 280 807 280 878.5 339 c 128,-1,12
 950 398 950 398 950 488 c 2,13,-1
 950 1383 l 1,14,-1
 1260 1530 l 1,15,-1
 1270 1530 l 1,16,-1
 1270 494 l 2,17,18
 1270 272 1270 272 1104 126 c 128,-1,0
 938 -20 938 -20 703.5 -20 c 128,-1,1
EndSplineSet
Validated: 19457
EndChar

StartChar: V
Encoding: 86 86 56
Width: 1362
GlyphClass: 2
Flags: W
HStem: -20 21G<540.336 600.222> 1510 20G<244.594 304.652 1080.83 1141.64>
DStem2: 297 1530 5 1397 0.357831 -0.933786<19.707 1071.77> 680 529 824 106 0.378605 0.925558<0 1070.81>
LayerCount: 2
Fore
SplineSet
558 -20 m 1,0,-1
 548 -20 l 1,1,-1
 5 1397 l 1,2,-1
 287 1530 l 1,3,-1
 297 1530 l 1,4,-1
 680 529 l 1,5,-1
 1089 1530 l 1,6,-1
 1099 1530 l 1,7,-1
 1357 1409 l 1,8,-1
 824 106 l 1,9,-1
 558 -20 l 1,0,-1
EndSplineSet
Validated: 1
EndChar

StartChar: W
Encoding: 87 87 57
Width: 2220
GlyphClass: 2
Flags: W
HStem: -20 300<549.702 857.458 1359.9 1667.31> 1510 20G<407.823 460 1217.82 1270 2027.82 2080>
VStem: 140 320<369.809 1383> 950 320<366.296 1383> 1760 320<368.886 1383>
CounterMasks: 1 38
LayerCount: 2
Fore
SplineSet
702 -20 m 0,0,1
 468 -20 468 -20 304 127 c 128,-1,2
 140 274 140 274 140 494 c 2,3,-1
 140 1383 l 1,4,-1
 450 1530 l 1,5,-1
 460 1530 l 1,6,-1
 460 488 l 2,7,8
 460 397 460 397 532 338 c 0,9,10
 602 280 602 280 704.5 280 c 128,-1,11
 807 280 807 280 878.5 339 c 128,-1,12
 950 398 950 398 950 488 c 2,13,-1
 950 1383 l 1,14,-1
 1260 1530 l 1,15,-1
 1270 1530 l 1,16,-1
 1270 488 l 2,17,18
 1270 397 1270 397 1342 338 c 0,19,20
 1412 280 1412 280 1514.5 280 c 128,-1,21
 1617 280 1617 280 1688.5 339 c 128,-1,22
 1760 398 1760 398 1760 488 c 2,23,-1
 1760 1383 l 1,24,-1
 2070 1530 l 1,25,-1
 2080 1530 l 1,26,-1
 2080 494 l 2,27,28
 2080 272 2080 272 1914 126 c 128,-1,29
 1748 -20 1748 -20 1514 -20 c 0,30,31
 1278 -20 1278 -20 1110 131 c 1,32,33
 939 -20 939 -20 702 -20 c 0,0,1
EndSplineSet
Validated: 19457
EndChar

StartChar: X
Encoding: 88 88 58
Width: 1254
GlyphClass: 2
Flags: W
HStem: -20 21G<216.797 282.643 954.55 1020.22> 1510 20G<233.778 299.45 971.357 1036.85>
DStem2: 286 1530 10 1404 0.558191 -0.829712<0 621.824 1044.92 1666.74> 10 98 269 -20 0.562799 0.826594<48.227 672.855 1107.78 1732.41>
LayerCount: 2
Fore
SplineSet
269 -20 m 1,0,-1
 259 -20 l 1,1,-1
 10 98 l 1,2,-1
 452 747 l 1,3,-1
 10 1404 l 1,4,-1
 276 1530 l 1,5,-1
 286 1530 l 1,6,-1
 633 1014 l 1,7,-1
 985 1530 l 1,8,-1
 995 1530 l 1,9,-1
 1244 1411 l 1,10,-1
 802 763 l 1,11,-1
 1244 106 l 1,12,-1
 978 -20 l 1,13,-1
 968 -20 l 1,14,-1
 621 496 l 1,15,-1
 269 -20 l 1,0,-1
EndSplineSet
Validated: 19457
EndChar

StartChar: Y
Encoding: 89 89 59
Width: 1270
GlyphClass: 2
Flags: W
HStem: -20 21G<475 527.177> 1510 20G<347.823 400 1137.82 1190>
VStem: 80 320<766.809 1383> 475 320<127 410.017> 870 320<759.672 1383>
CounterMasks: 1 38
LayerCount: 2
Fore
SplineSet
485 -20 m 1,0,-1
 475 -20 l 1,1,-1
 475 397 l 1,2,3
 348 431 348 431 244 524 c 0,4,5
 80 671 80 671 80 891 c 2,6,-1
 80 1383 l 1,7,-1
 390 1530 l 1,8,-1
 400 1530 l 1,9,-1
 400 885 l 2,10,11
 400 799 400 799 472 735 c 0,12,13
 534 677 534 677 635 677 c 128,-1,14
 736 677 736 677 803 736 c 128,-1,15
 870 795 870 795 870 885 c 2,16,-1
 870 1383 l 1,17,-1
 1180 1530 l 1,18,-1
 1190 1530 l 1,19,-1
 1190 891 l 2,20,21
 1190 669 1190 669 1024 523 c 0,22,23
 921 432 921 432 795 398 c 1,24,-1
 795 127 l 1,25,-1
 485 -20 l 1,0,-1
EndSplineSet
Validated: 19457
EndChar

StartChar: Z
Encoding: 90 90 60
Width: 1138
GlyphClass: 2
Flags: W
HStem: 0 300<501 992> 1210 300<177 637>
DStem2: 10 10 501 300 0.463096 0.886308<484.409 1353.93>
LayerCount: 2
Fore
SplineSet
10 0 m 1,0,-1
 10 10 l 1,1,-1
 637 1210 l 1,2,-1
 41 1210 l 1,3,-1
 41 1220 l 1,4,-1
 177 1510 l 1,5,-1
 1128 1510 l 1,6,-1
 1128 1500 l 1,7,-1
 501 300 l 5,8,-1
 1128 300 l 1,9,-1
 1128 290 l 1,10,-1
 992 0 l 1,11,-1
 10 0 l 1,0,-1
EndSplineSet
Validated: 19457
EndChar

StartChar: bracketleft
Encoding: 91 91 61
Width: 920
GlyphClass: 2
Flags: W
HStem: -240 300<480 774> 1450 300<480 774>
VStem: 160 320<60 1450>
LayerCount: 2
Fore
SplineSet
160 -240 m 1,0,-1
 160 1624 l 1,1,-1
 428 1750 l 1,2,-1
 910 1750 l 1,3,-1
 910 1740 l 1,4,-1
 774 1450 l 1,5,-1
 480 1450 l 1,6,-1
 480 60 l 1,7,-1
 910 60 l 1,8,-1
 910 50 l 1,9,-1
 774 -240 l 1,10,-1
 160 -240 l 1,0,-1
EndSplineSet
Validated: 19457
EndChar

StartChar: backslash
Encoding: 92 92 62
Width: 1105
GlyphClass: 2
Flags: W
DStem2: 256 1710 10 1597 0.423051 -0.906106<0 1981.11>
LayerCount: 2
Fore
SplineSet
858 -200 m 1,0,-1
 848 -200 l 1,1,-1
 10 1597 l 1,2,-1
 246 1710 l 1,3,-1
 256 1710 l 1,4,-1
 1095 -87 l 1,5,-1
 858 -200 l 1,0,-1
EndSplineSet
Validated: 1
EndChar

StartChar: bracketright
Encoding: 93 93 63
Width: 920
GlyphClass: 2
Flags: W
HStem: -240 300<146 440> 1450 300<146 440>
VStem: 440 320<60 1450>
LayerCount: 2
Fore
SplineSet
492 -240 m 1,0,-1
 10 -240 l 1,1,-1
 10 -230 l 1,2,-1
 146 60 l 1,3,-1
 440 60 l 1,4,-1
 440 1450 l 1,5,-1
 10 1450 l 1,6,-1
 10 1460 l 1,7,-1
 146 1750 l 1,8,-1
 760 1750 l 1,9,-1
 760 -114 l 1,10,-1
 492 -240 l 1,0,-1
EndSplineSet
Validated: 19457
EndChar

StartChar: asciicircum
Encoding: 94 94 64
Width: 1010
GlyphClass: 2
Flags: W
HStem: 1039 531
LayerCount: 2
Fore
SplineSet
304 1039 m 1,0,-1
 294 1039 l 1,1,-1
 30 1165 l 1,2,-1
 304 1442 l 1,3,-1
 573 1570 l 1,4,-1
 583 1570 l 1,5,-1
 980 1166 l 1,6,-1
 713 1039 l 1,7,-1
 703 1039 l 1,8,-1
 500 1246 l 1,9,-1
 304 1039 l 1,0,-1
EndSplineSet
Validated: 19457
EndChar

StartChar: underscore
Encoding: 95 95 65
Width: 1404
GlyphClass: 2
Flags: W
HStem: -410 200<201 1203>
LayerCount: 2
Fore
SplineSet
110 -410 m 1,0,-1
 110 -400 l 1,1,-1
 201 -210 l 1,2,-1
 1294 -210 l 1,3,-1
 1294 -220 l 1,4,-1
 1203 -410 l 1,5,-1
 110 -410 l 1,0,-1
EndSplineSet
Validated: 19457
EndChar

StartChar: grave
Encoding: 96 96 66
Width: 405
GlyphClass: 2
Flags: W
HStem: 1160 410
VStem: 30 345
DStem2: 220 1570 30 1485 0.429396 -0.903116<0 356.108>
LayerCount: 2
Fore
SplineSet
210 1570 m 1,0,-1
 220 1570 l 1,1,-1
 375 1244 l 1,2,-1
 197 1160 l 1,3,-1
 187 1160 l 1,4,-1
 30 1485 l 1,5,-1
 210 1570 l 1,0,-1
EndSplineSet
Validated: 19457
EndChar

StartChar: a
Encoding: 97 97 67
Width: 1104
GlyphClass: 2
Flags: W
HStem: -20 267<372.502 632.963> 505 212<370.558 630.528> 820 280<363 608.771>
VStem: 40 285<288.644 464.733> 664 300<284.099 468.9 664 774.554>
LayerCount: 2
Fore
SplineSet
501.5 247 m 128,-1,1
 576 247 576 247 628 283 c 0,2,3
 678 318 678 318 678 376 c 0,4,5
 678 435 678 435 626 470 c 0,6,7
 575 505 575 505 500.5 505 c 128,-1,8
 426 505 426 505 375.5 469.5 c 128,-1,9
 325 434 325 434 325 375.5 c 128,-1,10
 325 317 325 317 376 282 c 128,-1,0
 427 247 427 247 501.5 247 c 128,-1,1
674 -20 m 1,11,-1
 664 -20 l 1,12,-1
 664 35 l 1,13,14
 590 -20 590 -20 462 -20 c 0,15,16
 296 -20 296 -20 175 75 c 0,17,18
 40 181 40 181 40 353 c 0,19,20
 40 526 40 526 198 636 c 0,21,22
 314 717 314 717 462 717 c 0,23,24
 579 717 579 717 664 664 c 1,25,26
 664 740 664 740 610 786 c 0,27,28
 571 820 571 820 489 820 c 2,29,-1
 234 820 l 1,30,-1
 234 830 l 1,31,-1
 363 1100 l 1,32,-1
 489 1100 l 2,33,34
 692 1100 692 1100 827 984 c 0,35,36
 964 866 964 866 964 681 c 2,37,-1
 964 118 l 1,38,-1
 674 -20 l 1,11,-1
EndSplineSet
Validated: 19457
EndChar

StartChar: b
Encoding: 98 98 68
Width: 1210
GlyphClass: 2
Flags: W
HStem: -20 280<489.669 743.624> 839 281<489.569 740.976> 1510 20G<387.971 440>
VStem: 140 300<307.226 792.793 1072 1392> 790 300<306.338 792.662>
LayerCount: 2
Fore
SplineSet
615.5 260 m 128,-1,1
 690 260 690 260 741 299 c 0,2,3
 790 338 790 338 790 398 c 2,4,-1
 790 694 l 2,5,6
 790 758 790 758 739.5 798.5 c 128,-1,7
 689 839 689 839 614.5 839 c 128,-1,8
 540 839 540 839 490 798 c 128,-1,9
 440 757 440 757 440 695 c 2,10,-1
 440 398 l 2,11,12
 441 337 441 337 491 298.5 c 128,-1,0
 541 260 541 260 615.5 260 c 128,-1,1
614.5 -20 m 128,-1,14
 419 -20 419 -20 280 102 c 0,15,16
 140 225 140 225 140 403 c 2,17,-1
 140 1392 l 1,18,-1
 430 1530 l 1,19,-1
 440 1530 l 1,20,-1
 440 1072 l 1,21,22
 517 1120 517 1120 615 1120 c 0,23,24
 813 1120 813 1120 951 998 c 0,25,26
 1090 876 1090 876 1090 696 c 2,27,-1
 1090 403 l 2,28,29
 1090 223 1090 223 950 101 c 0,30,13
 810 -20 810 -20 614.5 -20 c 128,-1,14
EndSplineSet
Validated: 19457
EndChar

StartChar: c
Encoding: 99 99 69
Width: 1110
GlyphClass: 2
Flags: W
HStem: -20 280<470.018 723.022> 839 281<466.124 721.422>
VStem: 120 300<307.226 794.066>
LayerCount: 2
Fore
SplineSet
595 -20 m 128,-1,1
 400 -20 400 -20 260 102 c 0,2,3
 120 225 120 225 120 403 c 2,4,-1
 120 697 l 2,5,6
 120 878 120 878 260 999 c 128,-1,7
 400 1120 400 1120 594.5 1120 c 128,-1,8
 789 1120 789 1120 929 993 c 0,9,10
 1027 904 1027 904 1057 785 c 1,11,-1
 780 653 l 1,12,-1
 770 653 l 1,13,14
 770 753 770 753 719.5 796 c 128,-1,15
 669 839 669 839 594 839 c 0,16,17
 517 839 517 839 469 801 c 0,18,19
 420 762 420 762 420 702 c 2,20,-1
 420 398 l 2,21,22
 420 337 420 337 471 298 c 0,23,24
 522 260 522 260 595 260 c 0,25,26
 671 260 671 260 727 307 c 1,27,-1
 1060 465 l 1,28,-1
 1070 465 l 1,29,-1
 1070 410 l 2,30,31
 1070 226 1070 226 930 103 c 128,-1,0
 790 -20 790 -20 595 -20 c 128,-1,1
EndSplineSet
Validated: 19457
EndChar

StartChar: d
Encoding: 100 100 70
Width: 1210
GlyphClass: 2
Flags: W
HStem: -20 280<466.376 720.331> 839 281<469.024 720.431> 1510 20G<1017.97 1070>
VStem: 120 300<306.338 792.662> 770 300<307.63 792.793 1072 1392>
LayerCount: 2
Fore
SplineSet
594.5 260 m 128,-1,1
 669 260 669 260 719 298.5 c 128,-1,2
 769 337 769 337 770 398 c 2,3,-1
 770 695 l 2,4,5
 770 757 770 757 720 798 c 128,-1,6
 670 839 670 839 595.5 839 c 128,-1,7
 521 839 521 839 470.5 798.5 c 128,-1,8
 420 758 420 758 420 694 c 2,9,-1
 420 398 l 2,10,11
 420 338 420 338 469 299 c 0,12,0
 520 260 520 260 594.5 260 c 128,-1,1
595.5 -20 m 128,-1,14
 400 -20 400 -20 260 101 c 0,15,16
 120 223 120 223 120 403 c 2,17,-1
 120 696 l 2,18,19
 120 876 120 876 259 998 c 0,20,21
 397 1120 397 1120 595 1120 c 0,22,23
 693 1120 693 1120 770 1072 c 1,24,-1
 770 1392 l 1,25,-1
 1060 1530 l 1,26,-1
 1070 1530 l 1,27,-1
 1070 403 l 2,28,29
 1070 226 1070 226 930 102 c 0,30,13
 791 -20 791 -20 595.5 -20 c 128,-1,14
EndSplineSet
Validated: 19457
EndChar

StartChar: e
Encoding: 101 101 71
Width: 1190
GlyphClass: 2
Flags: W
HStem: -20 280<464.912 723.022> 839 281<466.109 727.813>
VStem: 120 300<558 794.066>
DStem2: 420 558 434 340 0.903622 0.428331<0 389.356>
LayerCount: 2
Fore
SplineSet
595 -20 m 128,-1,1
 400 -20 400 -20 260 102 c 0,2,3
 120 225 120 225 120 403 c 2,4,-1
 120 697 l 2,5,6
 120 878 120 878 260 999 c 128,-1,7
 400 1120 400 1120 594.5 1120 c 128,-1,8
 789 1120 789 1120 929 993 c 128,-1,9
 1069 866 1069 866 1069 692 c 2,10,-1
 1069 641 l 1,11,-1
 434 340 l 1,12,13
 447 316 447 316 471 298 c 0,14,15
 522 260 522 260 595 260 c 0,16,17
 671 260 671 260 727 307 c 1,18,-1
 1060 465 l 1,19,-1
 1070 465 l 1,20,-1
 1070 410 l 2,21,22
 1070 226 1070 226 930 103 c 128,-1,0
 790 -20 790 -20 595 -20 c 128,-1,1
420 558 m 1,23,-1
 768 724 l 1,24,25
 760 770 760 770 720 801 c 0,26,27
 670 839 670 839 594 839 c 0,28,29
 516 839 516 839 469 801 c 0,30,31
 420 762 420 762 420 702 c 2,32,-1
 420 558 l 1,23,-1
EndSplineSet
Validated: 19457
EndChar

StartChar: f
Encoding: 102 102 72
Width: 860
GlyphClass: 2
Flags: W
HStem: -20 21G<140 192.029> 662 280<440 682> 1230 280<490.538 721>
VStem: 140 300<118 662 942 1180.56>
LayerCount: 2
Fore
SplineSet
150 -20 m 1,0,-1
 140 -20 l 1,1,-1
 140 1076 l 2,2,3
 140 1261 140 1261 280 1386 c 0,4,5
 420 1510 420 1510 615 1510 c 2,6,-1
 850 1510 l 1,7,-1
 850 1500 l 1,8,-1
 721 1230 l 1,9,-1
 615 1230 l 2,10,11
 538 1230 538 1230 489 1189 c 128,-1,12
 440 1148 440 1148 440 1085 c 2,13,-1
 440 942 l 1,14,-1
 811 942 l 1,15,-1
 811 932 l 1,16,-1
 682 662 l 1,17,-1
 440 662 l 1,18,-1
 440 118 l 1,19,-1
 150 -20 l 1,0,-1
EndSplineSet
Validated: 19457
EndChar

StartChar: g
Encoding: 103 103 73
Width: 1210
GlyphClass: 2
Flags: W
HStem: -410 250<375 705.934> -20 280<469.562 723.396> 840 280<466.709 720.664>
VStem: 120 300<307.226 794.471> 770 300<-96.0977 28 302.702 792.774>
LayerCount: 2
Fore
SplineSet
595.5 260 m 128,-1,1
 670 260 670 260 721 299 c 0,2,3
 770 338 770 338 770 398 c 2,4,-1
 770 702 l 2,5,6
 769 763 769 763 719 801.5 c 128,-1,7
 669 840 669 840 594.5 840 c 128,-1,8
 520 840 520 840 469 801 c 0,9,10
 420 762 420 762 420 702 c 2,11,-1
 420 398 l 2,12,13
 421 337 421 337 471 298.5 c 128,-1,0
 521 260 521 260 595.5 260 c 128,-1,1
260 -410 m 1,14,-1
 260 -400 l 1,15,-1
 375 -160 l 1,16,-1
 581 -160 l 2,17,18
 674 -160 674 -160 727 -96 c 0,19,20
 765 -51 765 -51 769 28 c 1,21,22
 694 -20 694 -20 594 -20 c 0,23,24
 399 -20 399 -20 260 102 c 0,25,26
 120 225 120 225 120 403 c 2,27,-1
 120 697 l 2,28,29
 120 879 120 879 260 999 c 0,30,31
 401 1120 401 1120 596 1120 c 0,32,33
 792 1120 792 1120 930 998 c 0,34,35
 1070 875 1070 875 1070 697 c 2,36,-1
 1070 24 l 2,37,38
 1070 -161 1070 -161 930 -286 c 0,39,40
 790 -410 790 -410 595 -410 c 2,41,-1
 260 -410 l 1,14,-1
EndSplineSet
Validated: 19457
EndChar

StartChar: h
Encoding: 104 104 74
Width: 1250
GlyphClass: 2
Flags: W
HStem: -20 21G<160 212.029 810 862.029> 839 281<509.569 760.976> 1510 20G<407.971 460>
VStem: 160 300<118 792.793 1072 1392> 810 300<118 792.662>
LayerCount: 2
Fore
SplineSet
170 -20 m 1,0,-1
 160 -20 l 1,1,-1
 160 1392 l 1,2,-1
 450 1530 l 1,3,-1
 460 1530 l 1,4,-1
 460 1072 l 1,5,6
 537 1120 537 1120 635 1120 c 0,7,8
 833 1120 833 1120 971 998 c 0,9,10
 1110 876 1110 876 1110 696 c 2,11,-1
 1110 118 l 1,12,-1
 820 -20 l 1,13,-1
 810 -20 l 1,14,-1
 810 694 l 2,15,16
 810 758 810 758 759.5 798.5 c 128,-1,17
 709 839 709 839 634.5 839 c 128,-1,18
 560 839 560 839 510 798 c 128,-1,19
 460 757 460 757 460 695 c 2,20,-1
 460 118 l 1,21,-1
 170 -20 l 1,0,-1
EndSplineSet
Validated: 19457
EndChar

StartChar: i
Encoding: 105 105 75
Width: 620
GlyphClass: 2
Flags: W
HStem: -20 21G<160 212.029> 1100 20G<407.971 460> 1180 364<192.131 426.338>
VStem: 130 360<1244.3 1481.73> 160 300<118 982>
LayerCount: 2
Fore
SplineSet
170 -20 m 1,0,-1
 160 -20 l 1,1,-1
 160 982 l 1,2,-1
 450 1120 l 1,3,-1
 460 1120 l 1,4,-1
 460 118 l 1,5,-1
 170 -20 l 1,0,-1
310 1544 m 0,6,7
 386 1544 386 1544 438 1491 c 128,-1,8
 490 1438 490 1438 490 1363 c 0,9,10
 490 1289 490 1289 437 1234 c 0,11,12
 385 1180 385 1180 310 1180 c 0,13,14
 233 1180 233 1180 181.5 1234 c 128,-1,15
 130 1288 130 1288 130 1362 c 0,16,17
 130 1438 130 1438 182 1490 c 0,18,19
 235 1544 235 1544 310 1544 c 0,6,7
EndSplineSet
Validated: 19457
EndChar

StartChar: j
Encoding: 106 106 76
Width: 620
GlyphClass: 2
Flags: W
HStem: -410 21G<-75 69.5> 1100 20G<407.971 460> 1180 364<192.131 426.338>
VStem: 130 360<1244.3 1481.73> 160 300<-92.9999 982>
LayerCount: 2
Fore
SplineSet
310 1544 m 0,0,1
 386 1544 386 1544 438 1491 c 128,-1,2
 490 1438 490 1438 490 1363 c 0,3,4
 490 1289 490 1289 437 1234 c 0,5,6
 385 1180 385 1180 310 1180 c 0,7,8
 233 1180 233 1180 181.5 1234 c 128,-1,9
 130 1288 130 1288 130 1362 c 0,10,11
 130 1438 130 1438 182 1490 c 0,12,13
 235 1544 235 1544 310 1544 c 0,0,1
-75 -410 m 1,14,-1
 -75 -400 l 1,15,-1
 54 -130 l 1,16,17
 91 -119 91 -119 125.5 -83.5 c 128,-1,18
 160 -48 160 -48 160 20 c 2,19,-1
 160 982 l 1,20,-1
 450 1120 l 1,21,-1
 460 1120 l 1,22,-1
 460 41 l 2,23,24
 460 -177 460 -177 279 -315 c 0,25,26
 154 -410 154 -410 -15 -410 c 2,27,-1
 -75 -410 l 1,14,-1
EndSplineSet
Validated: 19457
EndChar

StartChar: k
Encoding: 107 107 77
Width: 1210
GlyphClass: 2
Flags: W
HStem: -20 21G<160 212.029 790 842.029> 1100 20G<790.4 866.034> 1510 20G<407.971 460>
VStem: 160 300<118 498.712 820 1392> 790 300<118 490.211>
LayerCount: 2
Fore
SplineSet
170 -20 m 1,0,-1
 160 -20 l 1,1,-1
 160 1392 l 1,2,-1
 450 1530 l 1,3,-1
 460 1530 l 1,4,-1
 460 820 l 1,5,-1
 814 1120 l 1,6,-1
 824 1120 l 1,7,-1
 1072 1002 l 1,8,-1
 800 780 l 1,9,10
 896 755 896 755 950 709 c 0,11,12
 1090 591 1090 591 1090 408 c 2,13,-1
 1090 118 l 1,14,-1
 800 -20 l 1,15,-1
 790 -20 l 1,16,-1
 790 392 l 2,17,18
 790 457 790 457 739 500 c 0,19,20
 688 542 688 542 621 542 c 0,21,22
 553 542 553 542 506 500 c 0,23,24
 460 459 460 459 460 392 c 2,25,-1
 460 118 l 1,26,-1
 170 -20 l 1,0,-1
EndSplineSet
Validated: 19457
EndChar

StartChar: l
Encoding: 108 108 78
Width: 620
GlyphClass: 2
Flags: W
HStem: -20 21G<160 212.029> 1510 20G<407.971 460>
VStem: 160 300<118 1392>
LayerCount: 2
Fore
SplineSet
170 -20 m 1,0,-1
 160 -20 l 1,1,-1
 160 1392 l 1,2,-1
 450 1530 l 1,3,-1
 460 1530 l 1,4,-1
 460 118 l 1,5,-1
 170 -20 l 1,0,-1
EndSplineSet
Validated: 19457
EndChar

StartChar: m
Encoding: 109 109 79
Width: 1880
GlyphClass: 2
Flags: W
HStem: -20 21G<140 192.029 790 842.029 1440 1492.03> 839 281<489.503 741.123 1138.72 1390.98>
VStem: 140 300<118 788.923> 790 300<118 792.793> 1440 300<118 792.662>
CounterMasks: 1 38
LayerCount: 2
Fore
SplineSet
150 -20 m 1,0,-1
 140 -20 l 1,1,-1
 140 697 l 2,2,3
 140 878 140 878 280 999 c 128,-1,4
 420 1120 420 1120 615 1120 c 0,5,6
 805 1120 805 1120 939 1007 c 1,7,8
 1076 1120 1076 1120 1265 1120 c 0,9,10
 1463 1120 1463 1120 1601 998 c 0,11,12
 1740 876 1740 876 1740 696 c 2,13,-1
 1740 118 l 1,14,-1
 1450 -20 l 1,15,-1
 1440 -20 l 1,16,-1
 1440 694 l 2,17,18
 1440 758 1440 758 1389.5 798.5 c 128,-1,19
 1339 839 1339 839 1264.5 839 c 128,-1,20
 1190 839 1190 839 1140 798 c 128,-1,21
 1090 757 1090 757 1090 695 c 2,22,-1
 1090 118 l 1,23,-1
 800 -20 l 1,24,-1
 790 -20 l 1,25,-1
 790 694 l 2,26,27
 790 758 790 758 739.5 798.5 c 128,-1,28
 689 839 689 839 614.5 839 c 128,-1,29
 540 839 540 839 490 798 c 128,-1,30
 440 757 440 757 440 695 c 2,31,-1
 440 118 l 1,32,-1
 150 -20 l 1,0,-1
EndSplineSet
Validated: 19457
EndChar

StartChar: n
Encoding: 110 110 80
Width: 1230
GlyphClass: 2
Flags: W
HStem: -20 21G<140 192.029 790 842.029> 839 281<489.503 740.976>
VStem: 140 300<118 788.923> 790 300<118 792.258>
LayerCount: 2
Fore
SplineSet
150 -20 m 1,0,-1
 140 -20 l 1,1,-1
 140 697 l 2,2,3
 140 878 140 878 280 999 c 128,-1,4
 420 1120 420 1120 615 1120 c 0,5,6
 813 1120 813 1120 951 998 c 0,7,8
 1090 875 1090 875 1090 696 c 2,9,-1
 1090 118 l 1,10,-1
 800 -20 l 1,11,-1
 790 -20 l 1,12,-1
 790 694 l 2,13,14
 790 758 790 758 739.5 798.5 c 128,-1,15
 689 839 689 839 614.5 839 c 128,-1,16
 540 839 540 839 490 798 c 128,-1,17
 440 757 440 757 440 695 c 2,18,-1
 440 118 l 1,19,-1
 150 -20 l 1,0,-1
EndSplineSet
Validated: 19457
EndChar

StartChar: o
Encoding: 111 111 81
Width: 1190
GlyphClass: 2
Flags: W
HStem: -20 280<469.669 723.624> 840 280<466.709 720.664>
VStem: 120 300<307.226 794.471> 770 300<306.338 792.774>
LayerCount: 2
Fore
SplineSet
595.5 260 m 128,-1,1
 670 260 670 260 721 299 c 0,2,3
 770 338 770 338 770 398 c 2,4,-1
 770 702 l 2,5,6
 769 763 769 763 719 801.5 c 128,-1,7
 669 840 669 840 594.5 840 c 128,-1,8
 520 840 520 840 469 801 c 0,9,10
 420 762 420 762 420 702 c 2,11,-1
 420 398 l 2,12,13
 421 337 421 337 471 298.5 c 128,-1,0
 521 260 521 260 595.5 260 c 128,-1,1
594.5 -20 m 128,-1,15
 399 -20 399 -20 260 102 c 0,16,17
 120 225 120 225 120 403 c 2,18,-1
 120 697 l 2,19,20
 120 879 120 879 260 999 c 0,21,22
 401 1120 401 1120 596 1120 c 0,23,24
 792 1120 792 1120 930 998 c 0,25,26
 1070 875 1070 875 1070 697 c 2,27,-1
 1070 403 l 2,28,29
 1070 223 1070 223 930 101 c 0,30,14
 790 -20 790 -20 594.5 -20 c 128,-1,15
EndSplineSet
Validated: 19457
EndChar

StartChar: p
Encoding: 112 112 82
Width: 1210
GlyphClass: 2
Flags: W
HStem: -430 21G<140 192.029> -20 281<489.569 740.976> 840 280<489.669 743.624>
VStem: 140 300<-292 28 307.207 792.37> 790 300<307.338 793.662>
LayerCount: 2
Fore
SplineSet
615.5 840 m 128,-1,1
 541 840 541 840 491 801.5 c 128,-1,2
 441 763 441 763 440 702 c 2,3,-1
 440 405 l 2,4,5
 440 343 440 343 490 302 c 128,-1,6
 540 261 540 261 614.5 261 c 128,-1,7
 689 261 689 261 739.5 301.5 c 128,-1,8
 790 342 790 342 790 406 c 2,9,-1
 790 702 l 2,10,11
 790 762 790 762 741 801 c 0,12,0
 690 840 690 840 615.5 840 c 128,-1,1
150 -430 m 1,13,-1
 140 -430 l 1,14,-1
 140 697 l 2,15,16
 140 874 140 874 280 998 c 0,17,18
 419 1120 419 1120 614.5 1120 c 128,-1,19
 810 1120 810 1120 950 999 c 0,20,21
 1090 877 1090 877 1090 697 c 2,22,-1
 1090 404 l 2,23,24
 1090 224 1090 224 951 102 c 0,25,26
 813 -20 813 -20 615 -20 c 0,27,28
 517 -20 517 -20 440 28 c 1,29,-1
 440 -292 l 1,30,-1
 150 -430 l 1,13,-1
EndSplineSet
Validated: 19457
EndChar

StartChar: q
Encoding: 113 113 83
Width: 1210
GlyphClass: 2
Flags: W
HStem: -430 21G<770 822.029> -20 281<469.024 720.431> 840 280<466.376 720.331>
VStem: 120 300<307.338 793.662> 770 300<-292 28 307.207 792.774>
LayerCount: 2
Fore
SplineSet
594.5 840 m 128,-1,1
 520 840 520 840 469 801 c 0,2,3
 420 762 420 762 420 702 c 2,4,-1
 420 406 l 2,5,6
 420 342 420 342 470.5 301.5 c 128,-1,7
 521 261 521 261 595.5 261 c 128,-1,8
 670 261 670 261 720 302 c 128,-1,9
 770 343 770 343 770 405 c 2,10,-1
 770 702 l 2,11,12
 769 763 769 763 719 801.5 c 128,-1,0
 669 840 669 840 594.5 840 c 128,-1,1
780 -430 m 1,13,-1
 770 -430 l 1,14,-1
 770 28 l 1,15,16
 693 -20 693 -20 595 -20 c 0,17,18
 397 -20 397 -20 259 102 c 0,19,20
 120 224 120 224 120 404 c 2,21,-1
 120 697 l 2,22,23
 120 877 120 877 260 999 c 0,24,25
 400 1120 400 1120 595.5 1120 c 128,-1,26
 791 1120 791 1120 930 998 c 0,27,28
 1070 875 1070 875 1070 697 c 2,29,-1
 1070 -292 l 1,30,-1
 780 -430 l 1,13,-1
EndSplineSet
Validated: 19457
EndChar

StartChar: r
Encoding: 114 114 84
Width: 860
GlyphClass: 2
Flags: W
HStem: -20 21G<140 192.029> 820 280<490.538 721>
VStem: 140 300<118 774.066>
LayerCount: 2
Fore
SplineSet
150 -20 m 1,0,-1
 140 -20 l 1,1,-1
 140 677 l 2,2,3
 140 858 140 858 280 979 c 0,4,5
 421 1100 421 1100 615 1100 c 2,6,-1
 850 1100 l 1,7,-1
 850 1090 l 1,8,-1
 721 820 l 1,9,-1
 615 820 l 2,10,11
 538 820 538 820 489 779 c 128,-1,12
 440 738 440 738 440 675 c 2,13,-1
 440 118 l 1,14,-1
 150 -20 l 1,0,-1
EndSplineSet
Validated: 19457
EndChar

StartChar: t
Encoding: 116 116 85
Width: 890
GlyphClass: 2
Flags: W
HStem: -20 21G<300 352.105> 820 280<139 300 590 751> 1510 20G<537.895 590>
VStem: 300 290<113 820 1100 1397>
LayerCount: 2
Fore
SplineSet
310 -20 m 1,0,-1
 300 -20 l 1,1,-1
 300 820 l 1,2,-1
 10 820 l 1,3,-1
 10 830 l 1,4,-1
 139 1100 l 1,5,-1
 300 1100 l 1,6,-1
 300 1397 l 1,7,-1
 580 1530 l 1,8,-1
 590 1530 l 1,9,-1
 590 1100 l 1,10,-1
 880 1100 l 1,11,-1
 880 1090 l 1,12,-1
 751 820 l 1,13,-1
 590 820 l 1,14,-1
 590 113 l 1,15,-1
 310 -20 l 1,0,-1
EndSplineSet
Validated: 1
EndChar

StartChar: u
Encoding: 117 117 86
Width: 1230
GlyphClass: 2
Flags: W
HStem: -20 281<489.024 740.497> 1100 20G<387.971 440 1037.97 1090>
VStem: 140 300<307.742 982> 790 300<311.077 982>
LayerCount: 2
Fore
SplineSet
615 -20 m 0,0,1
 417 -20 417 -20 279 102 c 0,2,3
 140 225 140 225 140 404 c 2,4,-1
 140 982 l 1,5,-1
 430 1120 l 1,6,-1
 440 1120 l 1,7,-1
 440 406 l 2,8,9
 440 342 440 342 490.5 301.5 c 128,-1,10
 541 261 541 261 615.5 261 c 128,-1,11
 690 261 690 261 740 302 c 128,-1,12
 790 343 790 343 790 405 c 2,13,-1
 790 982 l 1,14,-1
 1080 1120 l 1,15,-1
 1090 1120 l 1,16,-1
 1090 403 l 2,17,18
 1090 222 1090 222 950 101 c 128,-1,19
 810 -20 810 -20 615 -20 c 0,0,1
EndSplineSet
Validated: 19457
EndChar

StartChar: v
Encoding: 118 118 87
Width: 1082
GlyphClass: 2
Flags: W
HStem: -20 21G<404.961 465.031> 1100 20G<225.08 284.661 812.754 872.695>
DStem2: 277 1120 5 995 0.372966 -0.927845<14.5338 732.363> 539 436 692 108 0.395531 0.918453<0 732.64>
LayerCount: 2
Fore
SplineSet
423 -20 m 1,0,-1
 413 -20 l 1,1,-1
 5 995 l 1,2,-1
 267 1120 l 1,3,-1
 277 1120 l 1,4,-1
 539 436 l 1,5,-1
 821 1120 l 1,6,-1
 831 1120 l 1,7,-1
 1077 1002 l 1,8,-1
 692 108 l 1,9,-1
 423 -20 l 1,0,-1
EndSplineSet
Validated: 19457
EndChar

StartChar: w
Encoding: 119 119 88
Width: 1880
GlyphClass: 2
Flags: W
HStem: -20 281<489.024 741.28 1138.88 1390.5> 1100 20G<387.971 440 1037.97 1090 1687.97 1740>
VStem: 140 300<307.338 982> 790 300<307.207 982> 1440 300<311.077 982>
CounterMasks: 1 38
LayerCount: 2
Fore
SplineSet
615 -20 m 0,0,1
 417 -20 417 -20 279 102 c 0,2,3
 140 224 140 224 140 404 c 2,4,-1
 140 982 l 1,5,-1
 430 1120 l 1,6,-1
 440 1120 l 1,7,-1
 440 406 l 2,8,9
 440 342 440 342 490.5 301.5 c 128,-1,10
 541 261 541 261 615.5 261 c 128,-1,11
 690 261 690 261 740 302 c 128,-1,12
 790 343 790 343 790 405 c 2,13,-1
 790 982 l 1,14,-1
 1080 1120 l 1,15,-1
 1090 1120 l 1,16,-1
 1090 406 l 2,17,18
 1090 342 1090 342 1140.5 301.5 c 128,-1,19
 1191 261 1191 261 1265.5 261 c 128,-1,20
 1340 261 1340 261 1390 302 c 128,-1,21
 1440 343 1440 343 1440 405 c 2,22,-1
 1440 982 l 1,23,-1
 1730 1120 l 1,24,-1
 1740 1120 l 1,25,-1
 1740 403 l 2,26,27
 1740 222 1740 222 1600 101 c 128,-1,28
 1460 -20 1460 -20 1265 -20 c 0,29,30
 1075 -20 1075 -20 941 93 c 1,31,32
 804 -20 804 -20 615 -20 c 0,0,1
EndSplineSet
Validated: 19457
EndChar

StartChar: x
Encoding: 120 120 89
Width: 984
GlyphClass: 2
Flags: W
HStem: -20 21G<198.615 265.03 704.149 770.414> 1100 20G<213.949 279.81 719.952 785.818>
DStem2: 266 1120 10 1003 0.568709 -0.822539<0 408.314 787.26 1194.75> 10 89 251 -20 0.574687 0.818373<49.2969 458.503 849.217 1259.82>
LayerCount: 2
Fore
SplineSet
251 -20 m 1,0,-1
 241 -20 l 1,1,-1
 10 89 l 1,2,-1
 329 543 l 1,3,-1
 10 1003 l 1,4,-1
 256 1120 l 1,5,-1
 266 1120 l 1,6,-1
 498 784 l 1,7,-1
 734 1120 l 1,8,-1
 744 1120 l 1,9,-1
 974 1010 l 1,10,-1
 656 556 l 1,11,-1
 974 96 l 1,12,-1
 728 -20 l 1,13,-1
 718 -20 l 1,14,-1
 486 315 l 1,15,-1
 251 -20 l 1,0,-1
EndSplineSet
Validated: 19457
EndChar

StartChar: y
Encoding: 121 121 90
Width: 1250
GlyphClass: 2
Flags: W
HStem: -410 250<395 725.934> -20 280<489.562 743.396> 1100 20G<387.971 440 1037.97 1090>
VStem: 140 300<307.226 982> 790 300<-96.0977 28 302.702 982>
LayerCount: 2
Fore
SplineSet
280 -410 m 1,0,-1
 280 -400 l 1,1,-1
 395 -160 l 1,2,-1
 601 -160 l 2,3,4
 694 -160 694 -160 747 -96 c 0,5,6
 785 -51 785 -51 789 28 c 1,7,8
 714 -20 714 -20 614 -20 c 0,9,10
 419 -20 419 -20 280 102 c 0,11,12
 140 225 140 225 140 403 c 2,13,-1
 140 982 l 1,14,-1
 430 1120 l 1,15,-1
 440 1120 l 1,16,-1
 440 398 l 2,17,18
 441 337 441 337 491 298.5 c 128,-1,19
 541 260 541 260 615.5 260 c 128,-1,20
 690 260 690 260 741 299 c 0,21,22
 790 338 790 338 790 398 c 2,23,-1
 790 982 l 1,24,-1
 1080 1120 l 1,25,-1
 1090 1120 l 1,26,-1
 1090 24 l 2,27,28
 1090 -161 1090 -161 950 -286 c 0,29,30
 810 -410 810 -410 615 -410 c 2,31,-1
 280 -410 l 1,0,-1
EndSplineSet
Validated: 19457
EndChar

StartChar: z
Encoding: 122 122 91
Width: 974
GlyphClass: 2
Flags: W
HStem: 0 280<486 835> 820 280<171 488>
DStem2: 488 820 486 280 0.508228 0.861223<-466.077 0>
LayerCount: 2
Fore
SplineSet
10 0 m 1,0,-1
 10 10 l 1,1,-1
 488 820 l 1,2,-1
 42 820 l 1,3,-1
 42 830 l 1,4,-1
 171 1100 l 1,5,-1
 964 1100 l 1,6,-1
 964 1090 l 1,7,-1
 486 280 l 1,8,-1
 964 280 l 1,9,-1
 964 270 l 1,10,-1
 835 0 l 1,11,-1
 10 0 l 1,0,-1
EndSplineSet
Validated: 19457
EndChar

StartChar: braceleft
Encoding: 123 123 92
Width: 830
GlyphClass: 2
Flags: W
HStem: -240 300<647.16 800> 1449 301<647.611 800>
VStem: 234 320<143.629 620 890 1361.11>
LayerCount: 2
Fore
SplineSet
800 -240 m 1,0,1
 566 -240 566 -240 400 -93 c 128,-1,2
 234 54 234 54 234 274 c 2,3,-1
 234 620 l 1,4,-1
 10 620 l 1,5,-1
 10 630 l 1,6,-1
 135 890 l 1,7,-1
 234 890 l 1,8,-1
 234 1236 l 2,9,10
 234 1458 234 1458 400 1604 c 0,11,12
 567 1750 567 1750 800 1750 c 1,13,-1
 800 1449 l 1,14,15
 697 1448 697 1448 626 1392 c 0,16,17
 554 1334 554 1334 554 1248 c 2,18,-1
 554 262 l 2,19,20
 554 174 554 174 626 116 c 0,21,22
 696 60 696 60 800 60 c 1,23,-1
 800 -240 l 1,0,1
EndSplineSet
Validated: 19457
EndChar

StartChar: bar
Encoding: 124 124 93
Width: 690
GlyphClass: 2
Flags: W
VStem: 210 270<-76 1586>
LayerCount: 2
Fore
SplineSet
210 -200 m 1,0,-1
 210 1586 l 1,1,-1
 470 1710 l 1,2,-1
 480 1710 l 1,3,-1
 480 -76 l 1,4,-1
 220 -200 l 1,5,-1
 210 -200 l 1,0,-1
EndSplineSet
Validated: 19457
EndChar

StartChar: braceright
Encoding: 125 125 94
Width: 830
GlyphClass: 2
Flags: W
HStem: -240 301<30 182.389> 1450 300<30 182.84>
VStem: 276 320<148.886 620 890 1366.37>
LayerCount: 2
Fore
SplineSet
30 -240 m 1,0,-1
 30 61 l 1,1,2
 133 62 133 62 204 118 c 0,3,4
 276 176 276 176 276 262 c 2,5,-1
 276 1248 l 2,6,7
 276 1336 276 1336 204 1394 c 0,8,9
 134 1450 134 1450 30 1450 c 1,10,-1
 30 1750 l 1,11,12
 264 1750 264 1750 430 1603 c 128,-1,13
 596 1456 596 1456 596 1236 c 2,14,-1
 596 890 l 1,15,-1
 820 890 l 1,16,-1
 820 880 l 1,17,-1
 695 620 l 1,18,-1
 596 620 l 1,19,-1
 596 274 l 2,20,21
 596 52 596 52 430 -94 c 0,22,23
 263 -240 263 -240 30 -240 c 1,0,-1
EndSplineSet
Validated: 19457
EndChar

StartChar: asciitilde
Encoding: 126 126 95
Width: 1178
GlyphClass: 2
Flags: W
HStem: 515 482
LayerCount: 2
Fore
SplineSet
1058 997 m 1,0,-1
 1068 997 l 1,1,2
 1068 515 1068 515 752 515 c 0,3,4
 616 515 616 515 489 666 c 0,5,6
 453 709 453 709 444 718 c 0,7,8
 433 729 433 729 421 729 c 0,9,10
 387 729 387 729 387 642 c 1,11,-1
 120 515 l 1,12,-1
 110 515 l 1,13,14
 110 997 110 997 426 997 c 0,15,16
 562 997 562 997 689 846 c 0,17,18
 725 803 725 803 734 794 c 0,19,20
 745 783 745 783 757 783 c 0,21,22
 791 783 791 783 791 870 c 1,23,-1
 1058 997 l 1,0,-1
EndSplineSet
Validated: 19457
EndChar

StartChar: exclamdown
Encoding: 161 161 97
Width: 640
GlyphClass: 2
Flags: W
HStem: -430 21G<160 212.177> 755 365<203.122 437.869>
VStem: 140 360<817.422 1057.43> 160 320<-283 558>
LayerCount: 2
Fore
SplineSet
170 -430 m 1,0,-1
 160 -430 l 1,1,-1
 160 558 l 1,2,-1
 470 705 l 1,3,-1
 480 705 l 1,4,-1
 480 -283 l 1,5,-1
 170 -430 l 1,0,-1
320 1120 m 0,6,7
 396 1120 396 1120 448 1066 c 128,-1,8
 500 1012 500 1012 500 938 c 0,9,10
 500 862 500 862 448 809 c 0,11,12
 395 755 395 755 320 755 c 128,-1,13
 245 755 245 755 192.5 808.5 c 128,-1,14
 140 862 140 862 140 937 c 128,-1,15
 140 1012 140 1012 193 1066 c 128,-1,16
 246 1120 246 1120 320 1120 c 0,6,7
EndSplineSet
Validated: 19457
EndChar

StartChar: cent
Encoding: 162 162 98
Width: 1110
GlyphClass: 2
Flags: W
VStem: 120 300<307.226 794.066> 535 120<-69 -10.7795 268 831 1111.34 1169>
LayerCount: 2
Fore
SplineSet
655 -69 m 1,0,-1
 545 -120 l 1,1,-1
 535 -120 l 1,2,-1
 535 -17 l 1,3,4
 378 -1 378 -1 260 102 c 0,5,6
 120 225 120 225 120 403 c 2,7,-1
 120 697 l 2,8,9
 120 878 120 878 260 999 c 0,10,11
 378 1101 378 1101 535 1117 c 1,12,-1
 535 1169 l 1,13,-1
 645 1220 l 1,14,-1
 655 1220 l 1,15,-1
 655 1117 l 1,16,17
 811 1100 811 1100 929 993 c 0,18,19
 1027 904 1027 904 1057 785 c 1,20,-1
 780 653 l 1,21,-1
 770 653 l 1,22,23
 770 753 770 753 720 796 c 0,24,25
 692 820 692 820 655 831 c 1,26,-1
 655 268 l 1,27,28
 694 279 694 279 727 307 c 1,29,-1
 1060 465 l 1,30,-1
 1070 465 l 1,31,-1
 1070 410 l 2,32,33
 1070 226 1070 226 930 103 c 0,34,35
 812 -1 812 -1 655 -17 c 1,36,-1
 655 -69 l 1,0,-1
535 832 m 1,37,38
 497 823 497 823 469 801 c 0,39,40
 420 762 420 762 420 702 c 2,41,-1
 420 398 l 2,42,43
 420 337 420 337 471 298 c 0,44,45
 500 277 500 277 535 267 c 1,46,-1
 535 832 l 1,37,38
EndSplineSet
Validated: 19457
EndChar

StartChar: sterling
Encoding: 163 163 99
Width: 1375
GlyphClass: 2
Flags: W
HStem: 0 300<246 260 580 1129> 550 300<247 260 580 859> 1252 278<621.133 846.916>
VStem: 260 320<300 550 850 1214.75>
LayerCount: 2
Fore
SplineSet
110 0 m 1,0,-1
 110 10 l 1,1,-1
 246 300 l 1,2,-1
 260 300 l 1,3,-1
 260 550 l 1,4,-1
 111 550 l 1,5,-1
 111 560 l 1,6,-1
 247 850 l 1,7,-1
 260 850 l 1,8,-1
 260 1119 l 2,9,10
 260 1323 260 1323 401 1427 c 0,11,12
 542 1530 542 1530 733 1530 c 0,13,14
 923 1530 923 1530 1063 1426 c 0,15,16
 1175 1342 1175 1342 1201 1194 c 1,17,-1
 900 1052 l 1,18,-1
 890 1052 l 1,19,-1
 890 1103 l 2,20,21
 890 1186 890 1186 843 1219 c 128,-1,22
 796 1252 796 1252 735 1252 c 0,23,24
 667 1252 667 1252 628 1222 c 0,25,26
 580 1185 580 1185 580 1103 c 2,27,-1
 580 850 l 1,28,-1
 995 850 l 1,29,-1
 995 840 l 1,30,-1
 859 550 l 1,31,-1
 580 550 l 1,32,-1
 580 300 l 1,33,-1
 1265 300 l 1,34,-1
 1265 290 l 1,35,-1
 1129 0 l 1,36,-1
 110 0 l 1,0,-1
EndSplineSet
Validated: 19457
EndChar

StartChar: currency
Encoding: 164 164 100
Width: 1535
GlyphClass: 2
Flags: W
HStem: 180 284<626.143 905.683> 1044 284<625.29 905.418>
VStem: 203 312<585.395 923.461> 1017 312<584.751 923.063>
LayerCount: 2
Fore
SplineSet
766 1044 m 128,-1,1
 654 1044 654 1044 586 962 c 0,2,3
 515 877 515 877 515 754 c 128,-1,4
 515 631 515 631 586 546 c 0,5,6
 654 464 654 464 766 464 c 128,-1,7
 878 464 878 464 946 546 c 0,8,9
 1017 631 1017 631 1017 754 c 128,-1,10
 1017 877 1017 877 946 962 c 0,11,0
 878 1044 878 1044 766 1044 c 128,-1,1
1418 1215 m 1,12,-1
 1425 1208 l 1,13,-1
 1257 1040 l 1,14,15
 1329 913 1329 913 1329 756 c 128,-1,16
 1329 599 1329 599 1258 472 c 1,17,-1
 1425 305 l 1,18,-1
 1418 298 l 1,19,-1
 1112 190 l 1,20,-1
 1048 254 l 1,21,22
 921 180 921 180 764 180 c 128,-1,23
 607 180 607 180 476 260 c 1,24,-1
 423 206 l 1,25,-1
 117 314 l 1,26,-1
 110 321 l 1,27,-1
 270 480 l 1,28,29
 203 604 203 604 203 758.5 c 128,-1,30
 203 913 203 913 277 1041 c 1,31,-1
 110 1209 l 1,32,-1
 117 1216 l 1,33,-1
 421 1323 l 1,34,-1
 489 1256 l 1,35,36
 614 1328 614 1328 767 1328 c 128,-1,37
 920 1328 920 1328 1044 1255 c 1,38,-1
 1113 1323 l 1,39,-1
 1418 1215 l 1,12,-1
EndSplineSet
Validated: 19457
EndChar

StartChar: yen
Encoding: 165 165 101
Width: 1270
GlyphClass: 2
Flags: W
HStem: -20 21G<475 527.105> 94 140<271 475 795 999> 294 140<271 376 891 999> 1510 20G<347.823 400 1137.82 1190>
VStem: 80 320<766.809 1383> 870 320<759.672 1383>
LayerCount: 2
Fore
SplineSet
485 -20 m 1,0,-1
 475 -20 l 1,1,-1
 475 94 l 1,2,-1
 210 94 l 1,3,-1
 210 104 l 1,4,-1
 271 234 l 1,5,-1
 475 234 l 1,6,-1
 475 294 l 1,7,-1
 210 294 l 1,8,-1
 210 304 l 1,9,-1
 271 434 l 1,10,-1
 376 434 l 1,11,12
 306 468 306 468 244 524 c 0,13,14
 80 671 80 671 80 891 c 2,15,-1
 80 1383 l 1,16,-1
 390 1530 l 1,17,-1
 400 1530 l 1,18,-1
 400 885 l 2,19,20
 400 799 400 799 472 735 c 0,21,22
 534 677 534 677 635 677 c 128,-1,23
 736 677 736 677 803 736 c 128,-1,24
 870 795 870 795 870 885 c 2,25,-1
 870 1383 l 1,26,-1
 1180 1530 l 1,27,-1
 1190 1530 l 1,28,-1
 1190 891 l 2,29,30
 1190 669 1190 669 1024 523 c 0,31,32
 962 468 962 468 891 434 c 1,33,-1
 1060 434 l 1,34,-1
 1060 424 l 1,35,-1
 999 294 l 1,36,-1
 795 294 l 1,37,-1
 795 234 l 1,38,-1
 1060 234 l 1,39,-1
 1060 224 l 1,40,-1
 999 94 l 1,41,-1
 725 94 l 1,42,-1
 485 -20 l 1,0,-1
EndSplineSet
Validated: 19457
EndChar

StartChar: brokenbar
Encoding: 166 166 102
Width: 690
GlyphClass: 2
Flags: W
VStem: 210 270<-76 589 913 1586>
LayerCount: 2
Fore
SplineSet
210 -200 m 1,0,-1
 210 589 l 1,1,-1
 470 713 l 1,2,-1
 480 713 l 1,3,-1
 480 -76 l 1,4,-1
 220 -200 l 1,5,-1
 210 -200 l 1,0,-1
470 1710 m 1,6,-1
 480 1710 l 1,7,-1
 480 913 l 1,8,-1
 220 789 l 1,9,-1
 210 789 l 1,10,-1
 210 1586 l 1,11,-1
 470 1710 l 1,6,-1
EndSplineSet
Validated: 19457
EndChar

StartChar: section
Encoding: 167 167 103
Width: 1127
GlyphClass: 2
Flags: W
HStem: -20 225<471.671 654.908> 1305 225<472.092 655.329>
VStem: 110 278<678.962 845.261> 176 274<1141.25 1286.01> 677 274<223.985 368.75> 739 278<664.739 831.038>
LayerCount: 2
Fore
SplineSet
559 -20 m 0,0,1
 397 -20 397 -20 291 77 c 0,2,3
 212 149 212 149 185 246 c 1,4,-1
 432 364 l 1,5,-1
 442 364 l 1,6,7
 442 291 442 291 469 252 c 0,8,9
 501 205 501 205 571 205 c 0,10,11
 619 205 619 205 648 228 c 128,-1,12
 677 251 677 251 677 293 c 0,13,14
 677 361 677 361 603 380 c 0,15,16
 565 390 565 390 524 394 c 0,17,18
 321 415 321 415 216 508 c 0,19,20
 110 603 110 603 110 742 c 0,21,22
 110 861 110 861 177 948 c 1,23,-1
 417 829 l 1,24,25
 388 795 388 795 388 753 c 0,26,27
 388 696 388 696 448 671 c 0,28,29
 482 657 482 657 570 649 c 0,30,31
 724 634 724 634 828 562 c 0,32,33
 951 477 951 477 951 316 c 0,34,35
 951 157 951 157 838.5 68.5 c 128,-1,36
 726 -20 726 -20 559 -20 c 0,0,1
568 1530 m 0,37,38
 730 1530 730 1530 836 1433 c 0,39,40
 915 1361 915 1361 942 1264 c 1,41,-1
 695 1146 l 1,42,-1
 685 1146 l 1,43,44
 685 1219 685 1219 658 1258 c 0,45,46
 626 1305 626 1305 556 1305 c 0,47,48
 508 1305 508 1305 479 1282 c 128,-1,49
 450 1259 450 1259 450 1217 c 0,50,51
 450 1149 450 1149 524 1130 c 0,52,53
 562 1120 562 1120 603 1116 c 0,54,55
 806 1095 806 1095 911 1002 c 0,56,57
 1017 907 1017 907 1017 768 c 0,58,59
 1017 649 1017 649 950 562 c 1,60,-1
 710 681 l 1,61,62
 739 715 739 715 739 757 c 0,63,64
 739 814 739 814 679 839 c 0,65,66
 645 853 645 853 557 861 c 0,67,68
 403 876 403 876 299 948 c 0,69,70
 176 1033 176 1033 176 1194 c 0,71,72
 176 1353 176 1353 288.5 1441.5 c 128,-1,73
 401 1530 401 1530 568 1530 c 0,37,38
EndSplineSet
Validated: 19457
EndChar

StartChar: dieresis
Encoding: 168 168 104
Width: 690
GlyphClass: 2
Flags: W
HStem: 1210 297<73.8326 277.652 411.833 616.167>
VStem: 30 292<1255.38 1461.62> 368 292<1255.38 1461.62>
LayerCount: 2
Fore
SplineSet
514.5 1507 m 128,-1,1
 575 1507 575 1507 617.5 1463 c 128,-1,2
 660 1419 660 1419 660 1358.5 c 128,-1,3
 660 1298 660 1298 617.5 1254 c 128,-1,4
 575 1210 575 1210 514 1210 c 128,-1,5
 453 1210 453 1210 410.5 1254 c 128,-1,6
 368 1298 368 1298 368 1358 c 0,7,8
 368 1419 368 1419 411 1462 c 0,9,0
 454 1507 454 1507 514.5 1507 c 128,-1,1
175.5 1507 m 128,-1,11
 236 1507 236 1507 279 1463 c 128,-1,12
 322 1419 322 1419 322 1358.5 c 128,-1,13
 322 1298 322 1298 279 1254 c 128,-1,14
 236 1210 236 1210 176 1210 c 0,15,16
 115 1210 115 1210 72.5 1254 c 128,-1,17
 30 1298 30 1298 30 1358 c 0,18,19
 30 1419 30 1419 72 1462 c 0,20,10
 115 1507 115 1507 175.5 1507 c 128,-1,11
EndSplineSet
Validated: 19457
EndChar

StartChar: copyright
Encoding: 169 169 105
Width: 1321
GlyphClass: 2
Flags: W
HStem: 386 48<505.181 810.676> 544 191<584.672 758.254> 1168 190<583.858 744.535> 1478 52<504.168 816.773>
VStem: 110 50<794.694 1125.05> 364 200<758.783 1145.31> 1160 51<785.868 1126.58>
LayerCount: 2
Fore
SplineSet
667 1358 m 0,0,1
 795 1358 795 1358 880 1277 c 0,2,3
 944 1216 944 1216 968 1114 c 1,4,-1
 780 1040 l 1,5,-1
 770 1040 l 1,6,7
 770 1109 770 1109 740 1140 c 0,8,9
 713 1168 713 1168 666 1168 c 0,10,11
 620 1168 620 1168 592 1146 c 128,-1,12
 564 1124 564 1124 564 1088 c 2,13,-1
 564 815 l 2,14,15
 564 783 564 783 594 758 c 0,16,17
 622 735 622 735 668 735 c 0,18,19
 738 735 738 735 762 786 c 1,20,-1
 960 873 l 1,21,-1
 970 873 l 1,22,-1
 970 825 l 2,23,24
 970 704 970 704 880 624 c 128,-1,25
 790 544 790 544 666 544 c 128,-1,26
 542 544 542 544 453 623 c 128,-1,27
 364 702 364 702 364 820 c 2,28,-1
 364 1083 l 2,29,30
 364 1201 364 1201 453 1279.5 c 128,-1,31
 542 1358 542 1358 667 1358 c 0,0,1
661 1530 m 0,32,33
 903 1530 903 1530 1059 1357 c 0,34,35
 1211 1188 1211 1188 1211 953 c 0,36,37
 1211 701 1211 701 1050 549 c 0,38,39
 879 386 879 386 659 386 c 0,40,41
 436 386 436 386 271 549 c 0,42,43
 110 708 110 708 110 953 c 0,44,45
 110 1197 110 1197 268 1362 c 0,46,47
 429 1530 429 1530 661 1530 c 0,32,33
659 1478 m 0,48,49
 459 1478 459 1478 310 1330 c 0,50,51
 160 1181 160 1181 160 953 c 0,52,53
 160 750 160 750 307 587 c 0,54,55
 445 434 445 434 661 434 c 0,56,57
 862 434 862 434 1014 587 c 0,58,59
 1160 734 1160 734 1160 953 c 0,60,61
 1160 1185 1160 1185 1016 1327 c 0,62,63
 863 1478 863 1478 659 1478 c 0,48,49
EndSplineSet
Validated: 19457
EndChar

StartChar: ordfeminine
Encoding: 170 170 106
Width: 581
GlyphClass: 2
Flags: W
HStem: 733 180<101 470> 969 146<213.528 351.591> 1239 106<216.474 350.224> 1406 164<207 357.32>
VStem: 50 150<1126.65 1228.68> 364 187<1133.5 1220.95 1335 1401.31>
LayerCount: 2
Fore
SplineSet
101 913 m 1,0,-1
 551 913 l 1,1,-1
 551 903 l 1,2,-1
 470 733 l 1,3,-1
 20 733 l 1,4,-1
 20 743 l 1,5,-1
 101 913 l 1,0,-1
200 1177 m 0,6,7
 200 1150 200 1150 222 1132 c 0,8,9
 243 1115 243 1115 282.5 1115 c 128,-1,10
 322 1115 322 1115 344 1133 c 0,11,12
 364 1149 364 1149 364 1176.5 c 128,-1,13
 364 1204 364 1204 340.5 1221.5 c 128,-1,14
 317 1239 317 1239 281 1239 c 0,15,16
 252 1239 252 1239 228 1225 c 0,17,18
 200 1208 200 1208 200 1177 c 0,6,7
371 969 m 1,19,-1
 361 969 l 1,20,-1
 361 983 l 1,21,22
 325 969 325 969 280 969 c 0,23,24
 189 969 189 969 119 1022 c 0,25,26
 50 1075 50 1075 50 1158 c 0,27,28
 50 1253 50 1253 131 1305 c 0,29,30
 193 1345 193 1345 273 1345 c 0,31,32
 320 1345 320 1345 362 1335 c 1,33,34
 362 1406 362 1406 294 1406 c 2,35,-1
 146 1406 l 1,36,-1
 146 1416 l 1,37,-1
 207 1570 l 1,38,-1
 294 1570 l 2,39,40
 400 1570 400 1570 476 1504 c 0,41,42
 551 1439 551 1439 551 1340 c 2,43,-1
 551 1040 l 1,44,-1
 371 969 l 1,19,-1
EndSplineSet
Validated: 1
EndChar

StartChar: guillemotleft
Encoding: 171 171 107
Width: 1292
GlyphClass: 2
Flags: W
VStem: 110 312<599 911> 591 312<599 911>
DStem2: 422 755 110 755 0.50792 -0.861404<0 424.298> 110 755 422 755 0.50792 0.861404<158.471 582.769> 903 755 591 755 0.50792 -0.861404<0 424.298> 591 755 903 755 0.50792 0.861404<158.471 582.769>
LayerCount: 2
Fore
SplineSet
591 755 m 1,0,-1
 887 1257 l 1,1,-1
 897 1257 l 1,2,-1
 1132 1145 l 1,3,-1
 903 755 l 1,4,-1
 1132 365 l 1,5,-1
 897 253 l 1,6,-1
 887 253 l 1,7,-1
 591 755 l 1,0,-1
110 755 m 1,8,-1
 406 1257 l 1,9,-1
 416 1257 l 1,10,-1
 651 1145 l 1,11,-1
 422 755 l 1,12,-1
 651 365 l 1,13,-1
 416 253 l 1,14,-1
 406 253 l 1,15,-1
 110 755 l 1,8,-1
EndSplineSet
Validated: 19457
EndChar

StartChar: logicalnot
Encoding: 172 172 108
Width: 1240
GlyphClass: 2
Flags: W
HStem: 620 270<235 759>
LayerCount: 2
Fore
SplineSet
235 890 m 1,0,-1
 1130 890 l 1,1,-1
 1130 880 l 1,2,-1
 879 358 l 1,3,-1
 633 358 l 1,4,-1
 759 620 l 1,5,-1
 110 620 l 1,6,-1
 110 630 l 1,7,-1
 235 890 l 1,0,-1
EndSplineSet
Validated: 19457
EndChar

StartChar: uni00AD
Encoding: 173 173 109
Width: 1240
GlyphClass: 2
Flags: W
HStem: 620 270<235 1005>
LayerCount: 2
Fore
SplineSet
235 890 m 1,0,-1
 1130 890 l 1,1,-1
 1130 880 l 1,2,-1
 1005 620 l 1,3,-1
 110 620 l 1,4,-1
 110 630 l 1,5,-1
 235 890 l 1,0,-1
EndSplineSet
Validated: 19457
EndChar

StartChar: registered
Encoding: 174 174 110
Width: 1321
GlyphClass: 2
Flags: W
HStem: 386 48<505.181 810.676> 778 192<588 662> 1164 191<588 740.153> 1478 52<504.168 816.773>
VStem: 110 50<794.694 1125.05> 388 200<623 778 970 1164> 768 199<991.38 1140.7> 1160 51<785.868 1126.58>
LayerCount: 2
Fore
SplineSet
398 548 m 1,0,-1
 388 548 l 1,1,-1
 388 1278 l 1,2,-1
 562 1355 l 1,3,-1
 671 1355 l 2,4,5
 799 1355 799 1355 883 1270 c 128,-1,6
 967 1185 967 1185 967 1066.5 c 128,-1,7
 967 948 967 948 883 863 c 0,8,9
 874 854 874 854 865 847 c 1,10,-1
 1027 624 l 1,11,-1
 835 548 l 1,12,-1
 825 548 l 1,13,-1
 662 778 l 1,14,-1
 588 778 l 1,15,-1
 588 623 l 1,16,-1
 398 548 l 1,0,-1
588 970 m 1,17,-1
 674 970 l 2,18,19
 719 970 719 970 743.5 999.5 c 128,-1,20
 768 1029 768 1029 768 1067 c 128,-1,21
 768 1105 768 1105 741 1135 c 0,22,23
 714 1164 714 1164 674 1164 c 2,24,-1
 588 1164 l 1,25,-1
 588 970 l 1,17,-1
661 1530 m 0,26,27
 903 1530 903 1530 1059 1357 c 0,28,29
 1211 1188 1211 1188 1211 953 c 0,30,31
 1211 701 1211 701 1050 549 c 0,32,33
 879 386 879 386 659 386 c 0,34,35
 436 386 436 386 271 549 c 0,36,37
 110 708 110 708 110 953 c 0,38,39
 110 1197 110 1197 268 1362 c 0,40,41
 429 1530 429 1530 661 1530 c 0,26,27
659 1478 m 0,42,43
 459 1478 459 1478 310 1330 c 0,44,45
 160 1181 160 1181 160 953 c 0,46,47
 160 750 160 750 307 587 c 0,48,49
 445 434 445 434 661 434 c 0,50,51
 862 434 862 434 1014 587 c 0,52,53
 1160 734 1160 734 1160 953 c 0,54,55
 1160 1185 1160 1185 1016 1327 c 0,56,57
 863 1478 863 1478 659 1478 c 0,42,43
EndSplineSet
Validated: 19457
EndChar

StartChar: macron
Encoding: 175 175 111
Width: 680
GlyphClass: 2
Flags: W
HStem: 1288 190<116 564>
VStem: 30 620
LayerCount: 2
Fore
SplineSet
116 1478 m 1,0,-1
 650 1478 l 1,1,-1
 650 1468 l 1,2,-1
 564 1288 l 1,3,-1
 30 1288 l 1,4,-1
 30 1298 l 1,5,-1
 116 1478 l 1,0,-1
EndSplineSet
Validated: 19457
EndChar

StartChar: degree
Encoding: 176 176 112
Width: 730
GlyphClass: 2
Flags: W
HStem: 895 188<274.27 455.794> 1383 187<274.947 456.245>
VStem: 30 207<1123.34 1343.06> 493 207<1122.44 1342.41>
LayerCount: 2
Fore
SplineSet
366 1383 m 128,-1,1
 311 1383 311 1383 274 1340 c 128,-1,2
 237 1297 237 1297 237 1233 c 128,-1,3
 237 1169 237 1169 274 1126 c 128,-1,4
 311 1083 311 1083 366 1083 c 128,-1,5
 421 1083 421 1083 457 1126 c 128,-1,6
 493 1169 493 1169 493 1233 c 128,-1,7
 493 1297 493 1297 457 1340 c 128,-1,0
 421 1383 421 1383 366 1383 c 128,-1,1
365 1570 m 0,8,9
 506 1570 506 1570 602 1471 c 0,10,11
 700 1371 700 1371 700 1232 c 0,12,13
 700 1092 700 1092 602 994 c 0,14,15
 504 895 504 895 365 895 c 0,16,17
 224 895 224 895 128 994 c 0,18,19
 30 1095 30 1095 30 1233 c 0,20,21
 30 1373 30 1373 128 1471 c 0,22,23
 227 1570 227 1570 365 1570 c 0,8,9
EndSplineSet
Validated: 19457
EndChar

StartChar: plusminus
Encoding: 177 177 113
Width: 1240
GlyphClass: 2
Flags: W
HStem: 154 270<235 1005> 828 270<235 485 755 1005>
VStem: 485 270<578 828 1098 1348>
LayerCount: 2
Fore
SplineSet
235 424 m 1,0,-1
 1130 424 l 1,1,-1
 1130 414 l 1,2,-1
 1005 154 l 1,3,-1
 110 154 l 1,4,-1
 110 164 l 1,5,-1
 235 424 l 1,0,-1
745 1473 m 1,6,-1
 755 1473 l 1,7,-1
 755 1098 l 1,8,-1
 1130 1098 l 1,9,-1
 1130 1088 l 1,10,-1
 1005 828 l 1,11,-1
 755 828 l 1,12,-1
 755 578 l 1,13,-1
 495 453 l 1,14,-1
 485 453 l 1,15,-1
 485 828 l 1,16,-1
 110 828 l 1,17,-1
 110 838 l 1,18,-1
 235 1098 l 1,19,-1
 485 1098 l 1,20,-1
 485 1348 l 1,21,-1
 745 1473 l 1,6,-1
EndSplineSet
Validated: 19457
EndChar

StartChar: uni00B2
Encoding: 178 178 114
Width: 671
GlyphClass: 2
Flags: W
HStem: 764 191<397 569> 1380 190<253.892 413.332>
VStem: 35 200<1221.19 1358.88> 437 203<1193.13 1361.19>
LayerCount: 2
Fore
SplineSet
338 1570 m 128,-1,1
 474 1570 474 1570 557 1489.5 c 128,-1,2
 640 1409 640 1409 640 1295 c 0,3,4
 640 1150 640 1150 483 1024 c 2,5,-1
 397 955 l 1,6,-1
 641 955 l 1,7,-1
 641 945 l 1,8,-1
 569 764 l 1,9,-1
 30 764 l 1,10,-1
 30 774 l 1,11,-1
 115 966 l 1,12,-1
 329 1134 l 2,13,14
 437 1219 437 1219 437 1288 c 0,15,16
 437 1331 437 1331 406 1357 c 0,17,18
 378 1380 378 1380 333 1380 c 0,19,20
 286 1380 286 1380 260 1353 c 0,21,22
 235 1327 235 1327 235 1299 c 0,23,24
 235 1264 235 1264 262 1234 c 1,25,-1
 88 1165 l 1,26,-1
 78 1165 l 1,27,28
 35 1229 35 1229 35 1318 c 0,29,30
 35 1409 35 1409 118 1489 c 0,31,0
 202 1570 202 1570 338 1570 c 128,-1,1
EndSplineSet
Validated: 19457
EndChar

StartChar: uni00B3
Encoding: 179 179 115
Width: 661
GlyphClass: 2
Flags: W
HStem: 753 191<244.898 410.872> 1100 21G<223.972 268> 1369 191<165 298>
VStem: 431 200<965.937 1098.33>
LayerCount: 2
Fore
SplineSet
165 1560 m 1,0,-1
 624 1560 l 1,1,-1
 450 1270 l 1,2,3
 515 1250 515 1250 557 1210 c 0,4,5
 631 1140 631 1140 631 1026 c 0,6,7
 631 914 631 914 547 833 c 0,8,9
 463 753 463 753 326 753 c 0,10,11
 187 753 187 753 115 829 c 0,12,13
 43 904 43 904 30 984 c 1,14,-1
 216 1066 l 1,15,-1
 226 1066 l 1,16,17
 228 944 228 944 330 944 c 0,18,19
 377 944 377 944 405 972 c 0,20,21
 431 999 431 999 431 1034 c 0,22,23
 431 1067 431 1067 412 1089 c 0,24,25
 384 1120 384 1120 339 1120 c 128,-1,26
 294 1120 294 1120 242 1100 c 1,27,-1
 178 1171 l 1,28,-1
 298 1369 l 1,29,-1
 85 1369 l 1,30,-1
 85 1379 l 1,31,-1
 165 1560 l 1,0,-1
EndSplineSet
Validated: 19457
EndChar

StartChar: acute
Encoding: 180 180 116
Width: 405
GlyphClass: 2
Flags: W
HStem: 1160 410
VStem: 30 345
DStem2: 30 1244 218 1160 0.429396 0.903116<4.86464 360.972>
LayerCount: 2
Fore
SplineSet
195 1570 m 1,0,-1
 375 1485 l 1,1,-1
 218 1160 l 1,2,-1
 208 1160 l 1,3,-1
 30 1244 l 1,4,-1
 185 1570 l 1,5,-1
 195 1570 l 1,0,-1
EndSplineSet
Validated: 19457
EndChar

StartChar: uni00B5
Encoding: 181 181 117
Width: 1230
GlyphClass: 2
Flags: W
HStem: -430 21G<140 192.029> -20 281<488.992 740.497> 1100 20G<387.971 440 1037.97 1090>
VStem: 140 300<-292 28 306.654 982> 790 300<311.077 982>
LayerCount: 2
Fore
SplineSet
150 -430 m 1,0,-1
 140 -430 l 1,1,-1
 140 982 l 1,2,-1
 430 1120 l 1,3,-1
 440 1120 l 1,4,-1
 440 406 l 2,5,6
 440 342 440 342 490.5 301.5 c 128,-1,7
 541 261 541 261 615.5 261 c 128,-1,8
 690 261 690 261 740 302 c 128,-1,9
 790 343 790 343 790 405 c 2,10,-1
 790 982 l 1,11,-1
 1080 1120 l 1,12,-1
 1090 1120 l 1,13,-1
 1090 403 l 2,14,15
 1090 222 1090 222 950 101 c 128,-1,16
 810 -20 810 -20 615 -20 c 0,17,18
 513 -20 513 -20 440 28 c 1,19,-1
 440 -292 l 1,20,-1
 150 -430 l 1,0,-1
EndSplineSet
Validated: 19457
EndChar

StartChar: paragraph
Encoding: 182 182 118
Width: 1220
GlyphClass: 2
Flags: W
HStem: -20 21G<740 792.308> 428 1102<383.027 734.713>
VStem: 740 120<32 451> 944 116<127 1142.88>
LayerCount: 2
Fore
SplineSet
740 -20 m 1,0,-1
 740 451 l 1,1,2
 667 428 667 428 585 428 c 0,3,4
 390 428 390 428 250 562.5 c 128,-1,5
 110 697 110 697 110 896 c 2,6,-1
 110 1062 l 2,7,8
 110 1263 110 1263 250 1396 c 0,9,10
 391 1530 391 1530 586 1530 c 0,11,12
 780 1530 780 1530 920 1404 c 0,13,14
 1060 1277 1060 1277 1060 1092 c 2,15,-1
 1060 127 l 1,16,-1
 944 72 l 1,17,-1
 944 1144 l 1,18,-1
 860 1106 l 1,19,-1
 860 32 l 1,20,-1
 750 -20 l 1,21,-1
 740 -20 l 1,0,-1
EndSplineSet
Validated: 19457
EndChar

StartChar: periodcentered
Encoding: 183 183 119
Width: 420
GlyphClass: 2
Flags: W
HStem: 573 365<92.1309 326.878>
VStem: 30 360<635.566 875.578>
LayerCount: 2
Fore
SplineSet
210 938 m 128,-1,1
 285 938 285 938 337.5 884.5 c 128,-1,2
 390 831 390 831 390 756 c 128,-1,3
 390 681 390 681 337 627 c 128,-1,4
 284 573 284 573 210 573 c 0,5,6
 134 573 134 573 82 627 c 128,-1,7
 30 681 30 681 30 755 c 0,8,9
 30 831 30 831 82 884 c 0,10,0
 135 938 135 938 210 938 c 128,-1,1
EndSplineSet
Validated: 19457
EndChar

StartChar: cedilla
Encoding: 184 184 120
Width: 440
GlyphClass: 2
Flags: W
HStem: -410 410 -20 20G<136 299>
VStem: 136 163<-61.7314 0> 202 208<-207.507 -85.3716>
LayerCount: 2
Fore
SplineSet
30 -410 m 1,0,-1
 30 -400 l 1,1,-1
 116 -220 l 1,2,3
 202 -204 202 -204 202 -145 c 0,4,5
 202 -100 202 -100 136 -76 c 1,6,-1
 136 0 l 1,7,-1
 299 0 l 1,8,-1
 299 -40 l 1,9,10
 410 -83 410 -83 410 -187 c 0,11,12
 410 -410 410 -410 30 -410 c 1,0,-1
EndSplineSet
Validated: 19457
EndChar

StartChar: uni00B9
Encoding: 185 185 121
Width: 412
GlyphClass: 2
Flags: W
VStem: 152 200<831 1294>
LayerCount: 2
Fore
SplineSet
342 1570 m 1,0,-1
 352 1570 l 1,1,-1
 352 831 l 1,2,-1
 162 756 l 1,3,-1
 152 756 l 1,4,-1
 152 1294 l 1,5,-1
 30 1242 l 1,6,-1
 30 1432 l 1,7,-1
 342 1570 l 1,0,-1
EndSplineSet
Validated: 19457
EndChar

StartChar: ordmasculine
Encoding: 186 186 122
Width: 594
GlyphClass: 2
Flags: W
HStem: 733 180<101 483> 961 180<250.396 364.831> 1390 180<250.477 363.189>
VStem: 50 190<1155.95 1374.53> 374 190<1156.47 1375.05>
LayerCount: 2
Fore
SplineSet
101 913 m 1,0,-1
 564 913 l 1,1,-1
 564 903 l 1,2,-1
 483 733 l 1,3,-1
 20 733 l 1,4,-1
 20 743 l 1,5,-1
 101 913 l 1,0,-1
306.5 1390 m 128,-1,7
 276 1390 276 1390 258 1375 c 128,-1,8
 240 1360 240 1360 240 1341 c 2,9,-1
 240 1190 l 2,10,11
 240 1170 240 1170 258.5 1155.5 c 128,-1,12
 277 1141 277 1141 307.5 1141 c 128,-1,13
 338 1141 338 1141 358 1156 c 0,14,15
 374 1171 374 1171 374 1190 c 2,16,-1
 374 1341 l 2,17,18
 374 1361 374 1361 355.5 1375.5 c 128,-1,6
 337 1390 337 1390 306.5 1390 c 128,-1,7
308.5 1570 m 128,-1,20
 414 1570 414 1570 489 1503 c 128,-1,21
 564 1436 564 1436 564 1340 c 2,22,-1
 564 1191 l 2,23,24
 564 1091 564 1091 487.5 1026 c 128,-1,25
 411 961 411 961 307 961 c 128,-1,26
 203 961 203 961 126.5 1028 c 128,-1,27
 50 1095 50 1095 50 1191 c 2,28,-1
 50 1340 l 2,29,30
 50 1440 50 1440 126.5 1505 c 128,-1,19
 203 1570 203 1570 308.5 1570 c 128,-1,20
EndSplineSet
Validated: 1
EndChar

StartChar: guillemotright
Encoding: 187 187 123
Width: 1292
GlyphClass: 2
Flags: W
VStem: 389 312<599 911> 870 312<599 911>
DStem2: 405 1257 160 1145 0.50792 -0.861404<0 424.298> 160 365 405 253 0.50792 0.861404<27.963 452.261> 886 1257 641 1145 0.50792 -0.861404<0 424.298> 641 365 886 253 0.50792 0.861404<27.963 452.261>
LayerCount: 2
Fore
SplineSet
701 755 m 1,0,-1
 405 253 l 1,1,-1
 395 253 l 1,2,-1
 160 365 l 1,3,-1
 389 755 l 1,4,-1
 160 1145 l 1,5,-1
 395 1257 l 1,6,-1
 405 1257 l 1,7,-1
 701 755 l 1,0,-1
1182 755 m 1,8,-1
 886 253 l 1,9,-1
 876 253 l 1,10,-1
 641 365 l 1,11,-1
 870 755 l 1,12,-1
 641 1145 l 1,13,-1
 876 1257 l 1,14,-1
 886 1257 l 1,15,-1
 1182 755 l 1,8,-1
EndSplineSet
Validated: 19457
EndChar

StartChar: onequarter
Encoding: 188 188 124
Width: 1543
GlyphClass: 2
Flags: W
HStem: -20 21G<450.053 511.325 1158 1218.67> 142 191<1070 1158> 1510 20G<376.783 432 916.661 977.77>
VStem: 232 200<791 1254> 1158 200<55 133 333 450>
DStem2: 255 93 502 -20 0.423093 0.906086<2.11609 1585.94>
LayerCount: 2
Fore
SplineSet
422 1530 m 1,0,-1
 432 1530 l 1,1,-1
 432 791 l 1,2,-1
 242 716 l 1,3,-1
 232 716 l 1,4,-1
 232 1254 l 1,5,-1
 110 1202 l 1,6,-1
 110 1392 l 1,7,-1
 422 1530 l 1,0,-1
492 -20 m 1,8,-1
 255 93 l 1,9,-1
 926 1530 l 1,10,-1
 936 1530 l 1,11,-1
 1172 1417 l 1,12,-1
 502 -20 l 1,13,-1
 492 -20 l 1,8,-1
1070 333 m 1,14,-1
 1158 333 l 1,15,-1
 1158 450 l 1,16,-1
 1070 333 l 1,14,-1
1168 -20 m 1,17,-1
 1158 -20 l 1,18,-1
 1158 142 l 1,19,-1
 770 142 l 1,20,-1
 770 152 l 1,21,-1
 1153 708 l 1,22,-1
 1348 794 l 1,23,-1
 1358 794 l 1,24,-1
 1358 333 l 1,25,-1
 1433 333 l 1,26,-1
 1433 323 l 1,27,-1
 1358 133 l 1,28,-1
 1358 55 l 1,29,-1
 1168 -20 l 1,17,-1
EndSplineSet
Validated: 19457
EndChar

StartChar: onehalf
Encoding: 189 189 125
Width: 1677
GlyphClass: 2
Flags: W
HStem: -20 21G<450.053 511.325> 0 191<1323 1495> 616 190<1179.89 1339.33> 1510 20G<376.783 432 916.661 977.77>
VStem: 232 200<791 1254> 961 200<457.19 594.877> 1363 203<429.131 597.195>
DStem2: 255 93 502 -20 0.423093 0.906086<2.11609 1585.94>
LayerCount: 2
Fore
SplineSet
1264 806 m 128,-1,1
 1400 806 1400 806 1483 725.5 c 128,-1,2
 1566 645 1566 645 1566 531 c 0,3,4
 1566 386 1566 386 1409 260 c 2,5,-1
 1323 191 l 1,6,-1
 1567 191 l 1,7,-1
 1567 181 l 1,8,-1
 1495 0 l 1,9,-1
 956 0 l 1,10,-1
 956 10 l 1,11,-1
 1041 202 l 1,12,-1
 1255 370 l 2,13,14
 1363 455 1363 455 1363 524 c 0,15,16
 1363 567 1363 567 1332 593 c 0,17,18
 1304 616 1304 616 1259 616 c 0,19,20
 1212 616 1212 616 1186 589 c 0,21,22
 1161 563 1161 563 1161 535 c 0,23,24
 1161 500 1161 500 1188 470 c 1,25,-1
 1014 401 l 1,26,-1
 1004 401 l 1,27,28
 961 465 961 465 961 554 c 0,29,30
 961 645 961 645 1044 725 c 0,31,0
 1128 806 1128 806 1264 806 c 128,-1,1
422 1530 m 1,32,-1
 432 1530 l 1,33,-1
 432 791 l 1,34,-1
 242 716 l 1,35,-1
 232 716 l 1,36,-1
 232 1254 l 1,37,-1
 110 1202 l 1,38,-1
 110 1392 l 1,39,-1
 422 1530 l 1,32,-1
492 -20 m 1,40,-1
 255 93 l 1,41,-1
 926 1530 l 1,42,-1
 936 1530 l 1,43,-1
 1172 1417 l 1,44,-1
 502 -20 l 1,45,-1
 492 -20 l 1,40,-1
EndSplineSet
Validated: 19457
EndChar

StartChar: threequarters
Encoding: 190 190 126
Width: 1780
GlyphClass: 2
Flags: W
HStem: -20 21G<687.053 748.325 1395 1455.67> 142 191<1307 1395> 723 191<324.898 490.872> 1339 191<245 378>
VStem: 511 200<935.937 1068.33> 1395 200<55 133 333 450>
DStem2: 492 93 739 -20 0.423093 0.906086<2.11609 1585.94>
LayerCount: 2
Fore
SplineSet
245 1530 m 1,0,-1
 704 1530 l 1,1,-1
 530 1240 l 1,2,3
 595 1220 595 1220 637 1180 c 0,4,5
 711 1110 711 1110 711 996 c 0,6,7
 711 884 711 884 627 803 c 0,8,9
 543 723 543 723 406 723 c 0,10,11
 267 723 267 723 195 799 c 0,12,13
 123 874 123 874 110 954 c 1,14,-1
 296 1036 l 1,15,-1
 306 1036 l 1,16,17
 308 914 308 914 410 914 c 0,18,19
 457 914 457 914 485 942 c 0,20,21
 511 969 511 969 511 1004 c 0,22,23
 511 1037 511 1037 492 1059 c 0,24,25
 464 1090 464 1090 419 1090 c 128,-1,26
 374 1090 374 1090 322 1070 c 1,27,-1
 258 1141 l 1,28,-1
 378 1339 l 1,29,-1
 165 1339 l 1,30,-1
 165 1349 l 1,31,-1
 245 1530 l 1,0,-1
729 -20 m 1,32,-1
 492 93 l 1,33,-1
 1163 1530 l 1,34,-1
 1173 1530 l 1,35,-1
 1409 1417 l 1,36,-1
 739 -20 l 1,37,-1
 729 -20 l 1,32,-1
1307 333 m 1,38,-1
 1395 333 l 1,39,-1
 1395 450 l 1,40,-1
 1307 333 l 1,38,-1
1405 -20 m 1,41,-1
 1395 -20 l 1,42,-1
 1395 142 l 1,43,-1
 1007 142 l 1,44,-1
 1007 152 l 1,45,-1
 1390 708 l 1,46,-1
 1585 794 l 1,47,-1
 1595 794 l 1,48,-1
 1595 333 l 1,49,-1
 1670 333 l 1,50,-1
 1670 323 l 1,51,-1
 1595 133 l 1,52,-1
 1595 55 l 1,53,-1
 1405 -20 l 1,41,-1
EndSplineSet
Validated: 19457
EndChar

StartChar: questiondown
Encoding: 191 191 127
Width: 1340
GlyphClass: 2
Flags: W
HStem: -430 299<511.058 824.166> 755 365<578.122 812.869>
VStem: 110 321<-56.165 204.282> 515 360<817.422 1057.43> 913 317<-44.5291 188.921>
LayerCount: 2
Fore
SplineSet
663 -430 m 0,0,1
 403 -430 403 -430 256 -285 c 0,2,3
 110 -140 110 -140 110 44 c 0,4,5
 110 364 110 364 472 529 c 0,6,7
 529 555 529 555 529 594 c 1,8,-1
 842 741 l 1,9,-1
 852 741 l 1,10,11
 852 408 852 408 609 304 c 24,12,13
 431 228 431 228 431 62 c 0,14,15
 431 -10 431 -10 478 -59 c 0,16,17
 547 -131 547 -131 666 -131 c 0,18,19
 786 -131 786 -131 850 -66 c 0,20,21
 913 -3 913 -3 913 86 c 0,22,23
 913 132 913 132 884 174 c 1,24,-1
 1154 301 l 1,25,-1
 1164 301 l 1,26,27
 1230 195 1230 195 1230 53 c 0,28,29
 1230 -134 1230 -134 1079 -279 c 0,30,31
 922 -430 922 -430 663 -430 c 0,0,1
695 1120 m 0,32,33
 771 1120 771 1120 823 1066 c 128,-1,34
 875 1012 875 1012 875 938 c 0,35,36
 875 862 875 862 823 809 c 0,37,38
 770 755 770 755 695 755 c 128,-1,39
 620 755 620 755 567.5 808.5 c 128,-1,40
 515 862 515 862 515 937 c 128,-1,41
 515 1012 515 1012 568 1066 c 128,-1,42
 621 1120 621 1120 695 1120 c 0,32,33
EndSplineSet
Validated: 19457
EndChar

StartChar: endash
Encoding: 8211 8211 128
Width: 1240
GlyphClass: 2
Flags: W
HStem: 620 270<235 1005>
LayerCount: 2
Fore
SplineSet
235 890 m 1,0,-1
 1130 890 l 1,1,-1
 1130 880 l 1,2,-1
 1005 620 l 1,3,-1
 110 620 l 1,4,-1
 110 630 l 1,5,-1
 235 890 l 1,0,-1
EndSplineSet
Validated: 19457
EndChar

StartChar: emdash
Encoding: 8212 8212 129
Width: 1570
GlyphClass: 2
Flags: W
HStem: 620 270<235 1335>
LayerCount: 2
Fore
SplineSet
235 890 m 1,0,-1
 1460 890 l 1,1,-1
 1460 880 l 1,2,-1
 1335 620 l 1,3,-1
 110 620 l 1,4,-1
 110 630 l 1,5,-1
 235 890 l 1,0,-1
EndSplineSet
Validated: 19457
EndChar

StartChar: afii00208
Encoding: 8213 8213 130
Width: 1570
GlyphClass: 2
Flags: W
HStem: 620 270<235 1335>
LayerCount: 2
Fore
SplineSet
235 890 m 1,0,-1
 1460 890 l 1,1,-1
 1460 880 l 1,2,-1
 1335 620 l 1,3,-1
 110 620 l 1,4,-1
 110 630 l 1,5,-1
 235 890 l 1,0,-1
EndSplineSet
Validated: 19457
EndChar

StartChar: quoteleft
Encoding: 8216 8216 131
Width: 496
GlyphClass: 2
Flags: W
HStem: 934 666
VStem: 30 264<1158.4 1384.82>
LayerCount: 2
Fore
SplineSet
366 1600 m 1,0,-1
 373 1593 l 1,1,2
 294 1444 294 1444 294 1296 c 0,3,4
 294 1140 294 1140 466 1060 c 1,5,-1
 197 934 l 1,6,-1
 187 934 l 1,7,8
 30 1036 30 1036 30 1218 c 0,9,10
 30 1475 30 1475 366 1600 c 1,0,-1
EndSplineSet
Validated: 19457
EndChar

StartChar: quoteright
Encoding: 8217 8217 132
Width: 496
GlyphClass: 2
Flags: W
HStem: 934 666
VStem: 202 264<1149.18 1375.6>
LayerCount: 2
Fore
SplineSet
30 1474 m 1,0,-1
 299 1600 l 1,1,-1
 309 1600 l 1,2,3
 466 1498 466 1498 466 1316 c 0,4,5
 466 1059 466 1059 130 934 c 1,6,-1
 123 941 l 1,7,8
 202 1090 202 1090 202 1238 c 0,9,10
 202 1394 202 1394 30 1474 c 1,0,-1
EndSplineSet
Validated: 19457
EndChar

StartChar: quotesinglbase
Encoding: 8218 8218 133
Width: 496
GlyphClass: 2
Flags: W
HStem: -328 666
VStem: 202 264<-112.817 113.6>
LayerCount: 2
Fore
SplineSet
30 212 m 1,0,-1
 299 338 l 1,1,-1
 309 338 l 1,2,3
 466 236 466 236 466 54 c 0,4,5
 466 -203 466 -203 130 -328 c 1,6,-1
 123 -321 l 1,7,8
 202 -172 202 -172 202 -24 c 0,9,10
 202 132 202 132 30 212 c 1,0,-1
EndSplineSet
Validated: 19457
EndChar

StartChar: quotereversed
Encoding: 8219 8219 134
Width: 496
GlyphClass: 2
Flags: W
HStem: 934 666
VStem: 30 264<1149.18 1375.6>
LayerCount: 2
Fore
SplineSet
466 1474 m 1,0,1
 294 1394 294 1394 294 1238 c 0,2,3
 294 1090 294 1090 373 941 c 1,4,-1
 366 934 l 1,5,6
 30 1059 30 1059 30 1316 c 0,7,8
 30 1498 30 1498 187 1600 c 1,9,-1
 197 1600 l 1,10,-1
 466 1474 l 1,0,1
EndSplineSet
Validated: 19457
EndChar

StartChar: quotedblleft
Encoding: 8220 8220 135
Width: 914
GlyphClass: 2
Flags: W
HStem: 934 666
VStem: 30 264<1158.4 1384.82> 448 264<1158.4 1384.82>
LayerCount: 2
Fore
SplineSet
366 1600 m 1,0,-1
 373 1593 l 1,1,2
 294 1444 294 1444 294 1296 c 0,3,4
 294 1140 294 1140 466 1060 c 1,5,-1
 197 934 l 1,6,-1
 187 934 l 1,7,8
 30 1036 30 1036 30 1218 c 0,9,10
 30 1475 30 1475 366 1600 c 1,0,-1
784 1600 m 1,11,-1
 791 1593 l 1,12,13
 712 1444 712 1444 712 1296 c 0,14,15
 712 1140 712 1140 884 1060 c 1,16,-1
 615 934 l 1,17,-1
 605 934 l 1,18,19
 448 1036 448 1036 448 1218 c 0,20,21
 448 1475 448 1475 784 1600 c 1,11,-1
EndSplineSet
Validated: 19457
EndChar

StartChar: quotedblright
Encoding: 8221 8221 136
Width: 914
GlyphClass: 2
Flags: W
HStem: 934 666
VStem: 202 264<1149.18 1375.6> 620 264<1149.18 1375.6>
LayerCount: 2
Fore
SplineSet
448 1474 m 1,0,-1
 717 1600 l 1,1,-1
 727 1600 l 1,2,3
 884 1498 884 1498 884 1316 c 0,4,5
 884 1059 884 1059 548 934 c 1,6,-1
 541 941 l 1,7,8
 620 1090 620 1090 620 1238 c 0,9,10
 620 1394 620 1394 448 1474 c 1,0,-1
30 1474 m 1,11,-1
 299 1600 l 1,12,-1
 309 1600 l 1,13,14
 466 1498 466 1498 466 1316 c 0,15,16
 466 1059 466 1059 130 934 c 1,17,-1
 123 941 l 1,18,19
 202 1090 202 1090 202 1238 c 0,20,21
 202 1394 202 1394 30 1474 c 1,11,-1
EndSplineSet
Validated: 19457
EndChar

StartChar: quotedblbase
Encoding: 8222 8222 137
Width: 914
GlyphClass: 2
Flags: W
HStem: -328 666
VStem: 202 264<-112.817 113.6> 620 264<-112.817 113.6>
LayerCount: 2
Fore
SplineSet
448 212 m 1,0,-1
 717 338 l 1,1,-1
 727 338 l 1,2,3
 884 236 884 236 884 54 c 0,4,5
 884 -203 884 -203 548 -328 c 1,6,-1
 541 -321 l 1,7,8
 620 -172 620 -172 620 -24 c 0,9,10
 620 132 620 132 448 212 c 1,0,-1
30 212 m 1,11,-1
 299 338 l 1,12,-1
 309 338 l 1,13,14
 466 236 466 236 466 54 c 0,15,16
 466 -203 466 -203 130 -328 c 1,17,-1
 123 -321 l 1,18,19
 202 -172 202 -172 202 -24 c 0,20,21
 202 132 202 132 30 212 c 1,11,-1
EndSplineSet
Validated: 19457
EndChar

StartChar: dagger
Encoding: 8224 8224 138
Width: 1254
GlyphClass: 2
Flags: W
HStem: -20 21G<467 519.177> 914 300<249 467 787 1005> 1510 20G<735.108 787>
VStem: 467 320<127 914 1214 1382>
LayerCount: 2
Fore
SplineSet
477 -20 m 1,0,-1
 467 -20 l 1,1,-1
 467 914 l 1,2,-1
 110 914 l 1,3,-1
 110 924 l 1,4,-1
 249 1214 l 1,5,-1
 467 1214 l 1,6,-1
 467 1382 l 1,7,-1
 777 1530 l 1,8,-1
 787 1530 l 1,9,-1
 787 1214 l 1,10,-1
 1144 1214 l 1,11,-1
 1144 1204 l 1,12,-1
 1005 914 l 1,13,-1
 787 914 l 1,14,-1
 787 127 l 1,15,-1
 477 -20 l 1,0,-1
EndSplineSet
Validated: 19457
EndChar

StartChar: daggerdbl
Encoding: 8225 8225 139
Width: 1254
GlyphClass: 2
Flags: W
HStem: -20 21G<467 518.892> 296 300<249 467 787 1005> 914 300<249 467 787 1005> 1510 20G<735.108 787>
VStem: 467 320<128 296 596 914 1214 1382>
LayerCount: 2
Fore
SplineSet
477 -20 m 1,0,-1
 467 -20 l 1,1,-1
 467 296 l 1,2,-1
 110 296 l 1,3,-1
 110 306 l 1,4,-1
 249 596 l 1,5,-1
 467 596 l 1,6,-1
 467 914 l 1,7,-1
 110 914 l 1,8,-1
 110 924 l 1,9,-1
 249 1214 l 1,10,-1
 467 1214 l 1,11,-1
 467 1382 l 1,12,-1
 777 1530 l 1,13,-1
 787 1530 l 1,14,-1
 787 1214 l 1,15,-1
 1144 1214 l 1,16,-1
 1144 1204 l 1,17,-1
 1005 914 l 1,18,-1
 787 914 l 1,19,-1
 787 596 l 1,20,-1
 1144 596 l 1,21,-1
 1144 586 l 1,22,-1
 1005 296 l 1,23,-1
 787 296 l 1,24,-1
 787 128 l 1,25,-1
 477 -20 l 1,0,-1
EndSplineSet
Validated: 19457
EndChar

StartChar: bullet
Encoding: 8226 8226 140
Width: 950
GlyphClass: 2
Flags: W
HStem: 387 735<301.641 650.872>
VStem: 110 730<579.229 929.44>
LayerCount: 2
Fore
SplineSet
476 1122 m 0,0,1
 630 1122 630 1122 734 1014 c 0,2,3
 840 903 840 903 840 755 c 0,4,5
 840 602 840 602 733 494 c 0,6,7
 627 387 627 387 475 387 c 0,8,9
 321 387 321 387 216 495 c 0,10,11
 110 605 110 605 110 755 c 0,12,13
 110 906 110 906 217 1014 c 128,-1,14
 324 1122 324 1122 476 1122 c 0,0,1
EndSplineSet
Validated: 19457
EndChar

StartChar: ellipsis
Encoding: 8230 8230 141
Width: 1292
GlyphClass: 2
Flags: W
HStem: -20 365<92.1309 326.878 528.131 762.878 964.131 1198.88>
VStem: 30 360<42.5657 282.578> 466 360<42.5657 282.578> 902 360<42.5657 282.578>
CounterMasks: 1 70
LayerCount: 2
Fore
SplineSet
1082 -20 m 0,0,1
 1006 -20 1006 -20 954 34 c 128,-1,2
 902 88 902 88 902 162 c 0,3,4
 902 238 902 238 954 291 c 0,5,6
 1007 345 1007 345 1082 345 c 128,-1,7
 1157 345 1157 345 1209.5 291.5 c 128,-1,8
 1262 238 1262 238 1262 163 c 128,-1,9
 1262 88 1262 88 1209 34 c 128,-1,10
 1156 -20 1156 -20 1082 -20 c 0,0,1
646 -20 m 0,11,12
 570 -20 570 -20 518 34 c 128,-1,13
 466 88 466 88 466 162 c 0,14,15
 466 238 466 238 518 291 c 0,16,17
 571 345 571 345 646 345 c 128,-1,18
 721 345 721 345 773.5 291.5 c 128,-1,19
 826 238 826 238 826 163 c 128,-1,20
 826 88 826 88 773 34 c 128,-1,21
 720 -20 720 -20 646 -20 c 0,11,12
210 -20 m 0,22,23
 134 -20 134 -20 82 34 c 128,-1,24
 30 88 30 88 30 162 c 0,25,26
 30 238 30 238 82 291 c 0,27,28
 135 345 135 345 210 345 c 128,-1,29
 285 345 285 345 337.5 291.5 c 128,-1,30
 390 238 390 238 390 163 c 128,-1,31
 390 88 390 88 337 34 c 128,-1,32
 284 -20 284 -20 210 -20 c 0,22,23
EndSplineSet
Validated: 19457
EndChar

StartChar: perthousand
Encoding: 8240 8240 142
Width: 2704
GlyphClass: 2
Flags: W
HStem: -20 205<1309.83 1503.27 2087.83 2281.27> 516 206<1310.49 1503.93 2088.49 2281.93> 788 206<422.069 615.512> 1325 205<422.73 616.173>
VStem: 150 228<1041.02 1278.79> 659 228<1039.71 1279.83> 1039 228<230.173 470.291> 1548 228<231.209 468.981> 1817 228<230.173 470.291> 2326 228<231.209 468.981>
DStem2: 504 93 751 -20 0.423093 0.906086<2.11609 1585.94>
LayerCount: 2
Fore
SplineSet
2184 185 m 128,-1,1
 2244 185 2244 185 2285 232.5 c 128,-1,2
 2326 280 2326 280 2326 350.5 c 128,-1,3
 2326 421 2326 421 2285 468.5 c 128,-1,4
 2244 516 2244 516 2184 516 c 128,-1,5
 2124 516 2124 516 2084.5 468.5 c 128,-1,6
 2045 421 2045 421 2045 350.5 c 128,-1,7
 2045 280 2045 280 2084.5 232.5 c 128,-1,0
 2124 185 2124 185 2184 185 c 128,-1,1
2185 -20 m 0,8,9
 2030 -20 2030 -20 1925 89 c 0,10,11
 1817 199 1817 199 1817 352 c 0,12,13
 1817 506 1817 506 1925 613 c 0,14,15
 2033 722 2033 722 2185 722 c 0,16,17
 2340 722 2340 722 2446 613 c 0,18,19
 2554 502 2554 502 2554 350 c 0,20,21
 2554 196 2554 196 2446 89 c 0,22,23
 2337 -20 2337 -20 2185 -20 c 0,8,9
1406 185 m 128,-1,25
 1466 185 1466 185 1507 232.5 c 128,-1,26
 1548 280 1548 280 1548 350.5 c 128,-1,27
 1548 421 1548 421 1507 468.5 c 128,-1,28
 1466 516 1466 516 1406 516 c 128,-1,29
 1346 516 1346 516 1306.5 468.5 c 128,-1,30
 1267 421 1267 421 1267 350.5 c 128,-1,31
 1267 280 1267 280 1306.5 232.5 c 128,-1,24
 1346 185 1346 185 1406 185 c 128,-1,25
1407 -20 m 0,32,33
 1252 -20 1252 -20 1147 89 c 0,34,35
 1039 199 1039 199 1039 352 c 0,36,37
 1039 506 1039 506 1147 613 c 0,38,39
 1255 722 1255 722 1407 722 c 0,40,41
 1562 722 1562 722 1668 613 c 0,42,43
 1776 502 1776 502 1776 350 c 0,44,45
 1776 196 1776 196 1668 89 c 0,46,47
 1559 -20 1559 -20 1407 -20 c 0,32,33
741 -20 m 1,48,-1
 504 93 l 1,49,-1
 1175 1530 l 1,50,-1
 1185 1530 l 1,51,-1
 1421 1417 l 1,52,-1
 751 -20 l 1,53,-1
 741 -20 l 1,48,-1
520 1325 m 128,-1,55
 460 1325 460 1325 419 1277.5 c 128,-1,56
 378 1230 378 1230 378 1159.5 c 128,-1,57
 378 1089 378 1089 419 1041.5 c 128,-1,58
 460 994 460 994 520 994 c 128,-1,59
 580 994 580 994 619.5 1041.5 c 128,-1,60
 659 1089 659 1089 659 1159.5 c 128,-1,61
 659 1230 659 1230 619.5 1277.5 c 128,-1,54
 580 1325 580 1325 520 1325 c 128,-1,55
519 1530 m 0,62,63
 674 1530 674 1530 779 1421 c 0,64,65
 887 1311 887 1311 887 1158 c 0,66,67
 887 1004 887 1004 779 897 c 0,68,69
 671 788 671 788 519 788 c 0,70,71
 364 788 364 788 258 897 c 0,72,73
 150 1008 150 1008 150 1160 c 0,74,75
 150 1314 150 1314 258 1421 c 0,76,77
 367 1530 367 1530 519 1530 c 0,62,63
EndSplineSet
Validated: 1
EndChar

StartChar: minute
Encoding: 8242 8242 143
Width: 450
GlyphClass: 2
Flags: W
HStem: 1140 460
VStem: 30 390
LayerCount: 2
Fore
SplineSet
203 1600 m 1,0,-1
 213 1600 l 1,1,-1
 420 1501 l 1,2,-1
 188 1140 l 1,3,-1
 178 1140 l 1,4,-1
 30 1210 l 1,5,-1
 203 1600 l 1,0,-1
EndSplineSet
Validated: 19457
EndChar

StartChar: second
Encoding: 8243 8243 144
Width: 770
GlyphClass: 2
Flags: W
HStem: 1140 460
LayerCount: 2
Fore
SplineSet
523 1600 m 1,0,-1
 533 1600 l 1,1,-1
 740 1501 l 1,2,-1
 508 1140 l 1,3,-1
 498 1140 l 1,4,-1
 350 1210 l 1,5,-1
 523 1600 l 1,0,-1
203 1600 m 1,6,-1
 213 1600 l 1,7,-1
 420 1501 l 1,8,-1
 188 1140 l 1,9,-1
 178 1140 l 1,10,-1
 30 1210 l 1,11,-1
 203 1600 l 1,6,-1
EndSplineSet
Validated: 19457
EndChar

StartChar: guilsinglleft
Encoding: 8249 8249 145
Width: 811
GlyphClass: 2
Flags: W
VStem: 110 312<599 911>
DStem2: 422 755 110 755 0.50792 -0.861404<0 424.298> 110 755 422 755 0.50792 0.861404<158.471 582.769>
LayerCount: 2
Fore
SplineSet
110 755 m 1,0,-1
 406 1257 l 1,1,-1
 416 1257 l 1,2,-1
 651 1145 l 1,3,-1
 422 755 l 1,4,-1
 651 365 l 1,5,-1
 416 253 l 1,6,-1
 406 253 l 1,7,-1
 110 755 l 1,0,-1
EndSplineSet
Validated: 19457
EndChar

StartChar: guilsinglright
Encoding: 8250 8250 146
Width: 811
GlyphClass: 2
Flags: W
VStem: 389 312<599 911>
DStem2: 405 1257 160 1145 0.50792 -0.861404<0 424.298> 160 365 405 253 0.50792 0.861404<27.963 452.261>
LayerCount: 2
Fore
SplineSet
701 755 m 1,0,-1
 405 253 l 1,1,-1
 395 253 l 1,2,-1
 160 365 l 1,3,-1
 389 755 l 1,4,-1
 160 1145 l 1,5,-1
 395 1257 l 1,6,-1
 405 1257 l 1,7,-1
 701 755 l 1,0,-1
EndSplineSet
Validated: 19457
EndChar

StartChar: fraction
Encoding: 8260 8260 147
Width: 937
GlyphClass: 2
Flags: W
HStem: -20 21G<205.053 266.325> 1510 20G<671.661 732.77>
DStem2: 10 93 257 -20 0.423093 0.906086<2.11609 1585.94>
LayerCount: 2
Fore
SplineSet
247 -20 m 1,0,-1
 10 93 l 1,1,-1
 681 1530 l 1,2,-1
 691 1530 l 1,3,-1
 927 1417 l 1,4,-1
 257 -20 l 1,5,-1
 247 -20 l 1,0,-1
EndSplineSet
Validated: 1
EndChar

StartChar: Euro
Encoding: 8364 8364 148
Width: 1440
GlyphClass: 2
Flags: W
HStem: -20 300<609.915 925.472> 586 140<101 200 520 909> 786 140<101 200 520 909> 1228 302<606.547 920.247>
VStem: 200 320<363.629 586 726 786 926 1147.33>
LayerCount: 2
Fore
SplineSet
765 -20 m 128,-1,1
 530 -20 530 -20 365 127 c 128,-1,2
 200 274 200 274 200 494 c 2,3,-1
 200 586 l 1,4,-1
 40 586 l 1,5,-1
 40 596 l 1,6,-1
 101 726 l 1,7,-1
 200 726 l 1,8,-1
 200 786 l 1,9,-1
 40 786 l 1,10,-1
 40 796 l 1,11,-1
 101 926 l 1,12,-1
 200 926 l 1,13,-1
 200 1016 l 2,14,15
 200 1238 200 1238 366 1384 c 128,-1,16
 532 1530 532 1530 766 1530 c 128,-1,17
 1000 1530 1000 1530 1164 1378 c 0,18,19
 1285 1266 1285 1266 1318 1116 c 1,20,-1
 1020 974 l 1,21,-1
 1010 974 l 1,22,23
 1010 1116 1010 1116 938 1172 c 128,-1,24
 866 1228 866 1228 764 1228 c 0,25,26
 664 1228 664 1228 590 1172 c 0,27,28
 520 1118 520 1118 520 1028 c 2,29,-1
 520 926 l 1,30,-1
 970 926 l 1,31,-1
 970 916 l 1,32,-1
 909 786 l 1,33,-1
 520 786 l 1,34,-1
 520 726 l 1,35,-1
 970 726 l 1,36,-1
 970 716 l 1,37,-1
 909 586 l 1,38,-1
 520 586 l 1,39,-1
 520 482 l 2,40,41
 520 392 520 392 592 336 c 128,-1,42
 664 280 664 280 767 280 c 128,-1,43
 870 280 870 280 930 328 c 0,44,45
 966 357 966 357 989 401 c 1,46,-1
 1320 558 l 1,47,-1
 1330 558 l 1,48,-1
 1330 502 l 2,49,50
 1330 278 1330 278 1164 128 c 0,51,0
 1000 -20 1000 -20 765 -20 c 128,-1,1
EndSplineSet
Validated: 19457
EndChar

StartChar: afii61248
Encoding: 8453 8453 149
Width: 1714
GlyphClass: 2
Flags: W
HStem: -20 191<1219.17 1384.28> 603 192<1218.11 1383.98> 716 191<330.926 504.433> 1340 190<330.112 490.551>
VStem: 110 201<930.721 1317.31> 998 200<195.237 579.248> 1404 200<195.721 579.794>
DStem2: 398 93 645 -20 0.423093 0.906086<2.11609 1585.94>
LayerCount: 2
Fore
SplineSet
413 1530 m 0,0,1
 541 1530 541 1530 626 1449 c 0,2,3
 691 1387 691 1387 714 1286 c 1,4,-1
 526 1212 l 1,5,-1
 516 1212 l 1,6,7
 515 1281 515 1281 486 1312 c 0,8,9
 460 1340 460 1340 412 1340 c 0,10,11
 367 1340 367 1340 338 1318 c 0,12,13
 311 1296 311 1296 311 1260 c 2,14,-1
 311 987 l 2,15,16
 311 953 311 953 340 930 c 128,-1,17
 369 907 369 907 414 907 c 0,18,19
 483 907 483 907 508 958 c 1,20,-1
 706 1045 l 1,21,-1
 716 1045 l 1,22,-1
 716 997 l 2,23,24
 715 876 715 876 626 796 c 128,-1,25
 537 716 537 716 412 716 c 0,26,27
 289 716 289 716 199 795 c 0,28,29
 110 873 110 873 110 992 c 2,30,-1
 110 1255 l 2,31,32
 110 1374 110 1374 199 1452 c 0,33,34
 289 1530 289 1530 413 1530 c 0,0,1
635 -20 m 1,35,-1
 398 93 l 1,36,-1
 1069 1530 l 1,37,-1
 1079 1530 l 1,38,-1
 1315 1417 l 1,39,-1
 645 -20 l 1,40,-1
 635 -20 l 1,35,-1
1302 171 m 128,-1,42
 1346 171 1346 171 1377 195 c 0,43,44
 1404 218 1404 218 1404 251 c 2,45,-1
 1404 524 l 2,46,47
 1404 558 1404 558 1374.5 580.5 c 128,-1,48
 1345 603 1345 603 1301 603 c 0,49,50
 1255 603 1255 603 1227 580 c 0,51,52
 1198 556 1198 556 1198 524 c 2,53,-1
 1198 251 l 2,54,55
 1198 218 1198 218 1228 194.5 c 128,-1,41
 1258 171 1258 171 1302 171 c 128,-1,42
1301 -20 m 128,-1,57
 1177 -20 1177 -20 1087.5 59.5 c 128,-1,58
 998 139 998 139 998 256 c 2,59,-1
 998 519 l 2,60,61
 998 641 998 641 1089 718 c 128,-1,62
 1180 795 1180 795 1303 795 c 0,63,64
 1427 795 1427 795 1515 716 c 0,65,66
 1603 636 1603 636 1604 519 c 2,67,-1
 1604 256 l 2,68,69
 1604 137 1604 137 1514 58 c 0,70,56
 1425 -20 1425 -20 1301 -20 c 128,-1,57
EndSplineSet
Validated: 19457
EndChar

StartChar: afii61289
Encoding: 8467 8467 150
Width: 1247
GlyphClass: 2
Flags: W
HStem: 0 1G<110 486.273 636 745> 1510 20G<804.5 902>
LayerCount: 2
Fore
SplineSet
690 -20 m 0,0,1
 582 -20 582 -20 501 44 c 1,2,-1
 474 0 l 1,3,-1
 110 0 l 1,4,5
 272 162 272 162 375 325 c 1,6,7
 364 420 364 420 364 524 c 0,8,9
 364 686 364 686 411 865 c 0,10,11
 509 1240 509 1240 661 1423 c 0,12,13
 749 1530 749 1530 860 1530 c 0,14,15
 944 1530 944 1530 994 1480 c 0,16,17
 1058 1416 1058 1416 1058 1281 c 0,18,19
 1058 1186 1058 1186 1029 1041 c 0,20,21
 959 688 959 688 676 272 c 1,22,23
 678 216 678 216 699 216 c 128,-1,24
 720 216 720 216 745 260 c 0,25,26
 760 286 760 286 771 319 c 1,27,-1
 1087 319 l 1,28,29
 994 144 994 144 897 62 c 128,-1,30
 800 -20 800 -20 690 -20 c 0,0,1
EndSplineSet
Validated: 19457
EndChar

StartChar: trademark
Encoding: 8482 8482 151
Width: 1791
GlyphClass: 2
Flags: W
HStem: 1339 191<140 273 473 614 890.796 1057.2 1295.79 1462.35>
VStem: 273 200<798 1339> 671 200<798 1322.73> 1076 200<798 1322.22> 1481 200<798 1323.22>
LayerCount: 2
Fore
SplineSet
1491 723 m 1,0,-1
 1481 723 l 1,1,-1
 1481 1263 l 2,2,3
 1481 1299 1481 1299 1452 1324 c 0,4,5
 1422 1348 1422 1348 1379 1348 c 128,-1,6
 1336 1348 1336 1348 1306 1323 c 128,-1,7
 1276 1298 1276 1298 1276 1263 c 2,8,-1
 1276 798 l 1,9,-1
 1086 723 l 1,10,-1
 1076 723 l 1,11,-1
 1076 1263 l 2,12,13
 1076 1299 1076 1299 1047 1324 c 0,14,15
 1017 1348 1017 1348 973.5 1348 c 128,-1,16
 930 1348 930 1348 900.5 1323.5 c 128,-1,17
 871 1299 871 1299 871 1263 c 2,18,-1
 871 798 l 1,19,-1
 681 723 l 1,20,-1
 671 723 l 1,21,-1
 671 1262 l 2,22,23
 671 1382 671 1382 760 1459.5 c 128,-1,24
 849 1537 849 1537 969.5 1537 c 128,-1,25
 1090 1537 1090 1537 1176 1469 c 1,26,27
 1263 1537 1263 1537 1384 1537 c 128,-1,28
 1505 1537 1505 1537 1594 1458 c 0,29,30
 1681 1379 1681 1379 1681 1262 c 2,31,-1
 1681 798 l 1,32,-1
 1491 723 l 1,0,-1
140 1530 m 1,33,-1
 686 1530 l 1,34,-1
 686 1520 l 1,35,-1
 614 1339 l 1,36,-1
 473 1339 l 1,37,-1
 473 798 l 1,38,-1
 283 723 l 1,39,-1
 273 723 l 1,40,-1
 273 1339 l 1,41,-1
 60 1339 l 1,42,-1
 60 1349 l 1,43,-1
 140 1530 l 1,33,-1
EndSplineSet
Validated: 19457
EndChar

StartChar: uni2126
Encoding: 8486 8486 152
Width: 1450
GlyphClass: 2
Flags: W
HStem: 0 300<296 452 997 1154> 1230 300<566.123 882.121>
VStem: 160 320<545.139 1147.83> 970 320<540.694 1148.66>
LayerCount: 2
Fore
SplineSet
688 0 m 1,0,-1
 160 0 l 1,1,-1
 160 10 l 1,2,-1
 296 300 l 1,3,-1
 452 300 l 1,4,5
 160 408 160 408 160 690 c 2,6,-1
 160 1025 l 2,7,8
 160 1243 160 1243 325 1386 c 0,9,10
 491 1530 491 1530 724 1530 c 128,-1,11
 957 1530 957 1530 1124 1386 c 0,12,13
 1290 1245 1290 1245 1290 1025 c 2,14,-1
 1290 690 l 2,15,16
 1290 426 1290 426 997 300 c 1,17,-1
 1290 300 l 1,18,-1
 1290 290 l 1,19,-1
 1154 0 l 1,20,-1
 762 0 l 1,21,-1
 762 442 l 1,22,23
 970 512 970 512 970 656 c 2,24,-1
 970 1028 l 2,25,26
 970 1118 970 1118 900 1173 c 0,27,28
 827 1230 827 1230 725 1230 c 0,29,30
 619 1230 619 1230 549 1173 c 0,31,32
 480 1117 480 1117 480 1028 c 2,33,-1
 480 656 l 2,34,35
 480 516 480 516 688 443 c 1,36,-1
 688 0 l 1,0,-1
EndSplineSet
Validated: 19457
EndChar

StartChar: estimated
Encoding: 8494 8494 153
Width: 1241
GlyphClass: 2
Flags: W
HStem: -20 183<441.95 798.867> 491 189<393 845> 935 185<439.039 799.176>
VStem: 60 333<316.826 491 680 791.88>
LayerCount: 2
Fore
SplineSet
619 -20 m 0,0,1
 368 -20 368 -20 214 145 c 128,-1,2
 60 310 60 310 60 553 c 0,3,4
 60 802 60 802 216 960 c 0,5,6
 374 1120 374 1120 616 1120 c 0,7,8
 859 1120 859 1120 1007 974 c 0,9,10
 1181 802 1181 802 1181 491 c 1,11,-1
 393 491 l 1,12,-1
 393 239 l 1,13,14
 488 163 488 163 619 163 c 0,15,16
 827 163 827 163 945 351 c 1,17,-1
 1109 255 l 1,18,19
 985 85 985 85 866 32.5 c 128,-1,20
 747 -20 747 -20 619 -20 c 0,0,1
845 680 m 1,21,-1
 845 862 l 1,22,23
 747 935 747 935 617 935 c 0,24,25
 485 935 485 935 393 861 c 1,26,-1
 393 680 l 1,27,-1
 845 680 l 1,21,-1
EndSplineSet
Validated: 19457
EndChar

StartChar: partialdiff
Encoding: 8706 8706 154
Width: 1325
GlyphClass: 2
Flags: W
HStem: -20 273<452.903 666.396> 823 260<577.1 826.76> 1257 273<502.596 826.913>
VStem: 110 305<291.814 617.824> 906 309<1024 1178.17>
LayerCount: 2
Fore
SplineSet
532 -20 m 0,0,1
 262 -20 262 -20 163 171 c 0,2,3
 110 273 110 273 110 416 c 0,4,5
 110 673 110 673 264 878 c 128,-1,6
 418 1083 418 1083 690 1083 c 0,7,8
 809 1083 809 1083 906 1024 c 1,9,10
 903 1115 903 1115 865 1173 c 0,11,12
 808 1257 808 1257 686 1257 c 0,13,14
 531 1257 531 1257 380 1132 c 1,15,-1
 380 1443 l 1,16,17
 526 1530 526 1530 723 1530 c 0,18,19
 1040 1530 1040 1530 1156 1271 c 0,20,21
 1215 1139 1215 1139 1215 950 c 0,22,23
 1215 563 1215 563 1032 272 c 0,24,25
 851 -20 851 -20 532 -20 c 0,0,1
879 699 m 1,26,27
 858 756 858 756 815 788 c 0,28,29
 768 823 768 823 700 823 c 0,30,31
 591 823 591 823 510 706 c 0,32,33
 415 567 415 567 415 431 c 0,34,35
 415 344 415 344 453 295 c 0,36,37
 485 253 485 253 545 253 c 0,38,39
 652 253 652 253 747 376 c 128,-1,40
 842 499 842 499 879 699 c 1,26,27
EndSplineSet
Validated: 19457
EndChar

StartChar: uni2206
Encoding: 8710 8710 155
Width: 1505
GlyphClass: 2
Flags: W
HStem: 0 300<440 1056> 1510 20G<822.846 883.17>
DStem2: 5 0 440 300 0.386112 0.922452<444.694 1255.31> 875 1530 750 1049 0.378162 -0.92574<398.011 1207.11>
LayerCount: 2
Fore
SplineSet
5 0 m 1,0,-1
 591 1400 l 1,1,-1
 865 1530 l 1,2,-1
 875 1530 l 1,3,-1
 1500 0 l 1,4,-1
 5 0 l 1,0,-1
440 300 m 1,5,-1
 1056 300 l 1,6,-1
 750 1049 l 1,7,-1
 440 300 l 1,5,-1
EndSplineSet
Validated: 1
EndChar

StartChar: product
Encoding: 8719 8719 156
Width: 1440
GlyphClass: 2
Flags: W
HStem: -430 21G<160 212.177 960 1012.18> 1210 300<480 960>
VStem: 160 320<-283 1210> 960 320<-283 1210>
LayerCount: 2
Fore
SplineSet
170 -430 m 1,0,-1
 160 -430 l 1,1,-1
 160 1384 l 1,2,-1
 428 1510 l 1,3,-1
 1280 1510 l 1,4,-1
 1280 -283 l 1,5,-1
 970 -430 l 1,6,-1
 960 -430 l 1,7,-1
 960 1210 l 1,8,-1
 480 1210 l 1,9,-1
 480 -283 l 1,10,-1
 170 -430 l 1,0,-1
EndSplineSet
Validated: 19457
EndChar

StartChar: summation
Encoding: 8721 8721 157
Width: 1284
GlyphClass: 2
Flags: W
HStem: -410 300<575 1038> 1210 300<578 1032>
DStem2: 60 -410 575 -110 0.462139 0.886807<504.044 1120.87> 578 1210 74 1427 0.513148 -0.8583<0 537.296>
LayerCount: 2
Fore
SplineSet
60 -410 m 1,0,-1
 578 584 l 1,1,-1
 74 1427 l 1,2,-1
 250 1510 l 1,3,-1
 1168 1510 l 1,4,-1
 1168 1500 l 1,5,-1
 1032 1210 l 1,6,-1
 578 1210 l 1,7,-1
 944 598 l 1,8,-1
 575 -110 l 1,9,-1
 1174 -110 l 1,10,-1
 1174 -120 l 1,11,-1
 1038 -410 l 1,12,-1
 60 -410 l 1,0,-1
EndSplineSet
Validated: 19457
EndChar

StartChar: minus
Encoding: 8722 8722 158
Width: 1240
GlyphClass: 2
Flags: W
HStem: 620 270<235 1005>
LayerCount: 2
Fore
SplineSet
235 890 m 1,0,-1
 1130 890 l 1,1,-1
 1130 880 l 1,2,-1
 1005 620 l 1,3,-1
 110 620 l 1,4,-1
 110 630 l 1,5,-1
 235 890 l 1,0,-1
EndSplineSet
Validated: 19457
EndChar

StartChar: uni2215
Encoding: 8725 8725 159
Width: 937
GlyphClass: 2
Flags: W
HStem: -20 21G<205.053 266.325> 1510 20G<671.661 732.77>
DStem2: 10 93 257 -20 0.423093 0.906086<2.11609 1585.94>
LayerCount: 2
Fore
SplineSet
247 -20 m 1,0,-1
 10 93 l 1,1,-1
 681 1530 l 1,2,-1
 691 1530 l 1,3,-1
 927 1417 l 1,4,-1
 257 -20 l 1,5,-1
 247 -20 l 1,0,-1
EndSplineSet
Validated: 1
EndChar

StartChar: uni2219
Encoding: 8729 8729 160
Width: 420
GlyphClass: 2
Flags: W
HStem: 573 365<92.1309 326.878>
VStem: 30 360<635.566 875.578>
LayerCount: 2
Fore
SplineSet
210 938 m 128,-1,1
 285 938 285 938 337.5 884.5 c 128,-1,2
 390 831 390 831 390 756 c 128,-1,3
 390 681 390 681 337 627 c 128,-1,4
 284 573 284 573 210 573 c 0,5,6
 134 573 134 573 82 627 c 128,-1,7
 30 681 30 681 30 755 c 0,8,9
 30 831 30 831 82 884 c 0,10,0
 135 938 135 938 210 938 c 128,-1,1
EndSplineSet
Validated: 19457
EndChar

StartChar: radical
Encoding: 8730 8730 161
Width: 1120
GlyphClass: 2
Flags: W
HStem: -20 21G<294.255 354.222> 1510 20G<846.886 907.609>
DStem2: 429 480 578 106 0.37651 0.926413<0 1122.6>
LayerCount: 2
Fore
SplineSet
312 -20 m 1,0,-1
 302 -20 l 1,1,-1
 10 734 l 1,2,-1
 273 858 l 1,3,-1
 283 858 l 1,4,-1
 429 480 l 1,5,-1
 855 1530 l 1,6,-1
 865 1530 l 1,7,-1
 1110 1415 l 1,8,-1
 578 106 l 1,9,-1
 312 -20 l 1,0,-1
EndSplineSet
Validated: 19457
EndChar

StartChar: infinity
Encoding: 8734 8734 162
Width: 1476
GlyphClass: 2
Flags: W
HStem: 384 204<362.406 585.594 890.406 1113.59> 920 204<362.406 585.594 890.406 1113.59>
VStem: 110 200<640.129 867.871> 638 200<639.551 868.449> 1166 200<640.129 867.871>
CounterMasks: 1 38
LayerCount: 2
Fore
SplineSet
474 1124 m 128,-1,1
 626 1124 626 1124 732 1016 c 0,2,3
 735 1013 735 1013 738 1010 c 1,4,5
 741 1013 741 1013 744 1016 c 0,6,7
 850 1124 850 1124 1002 1124 c 128,-1,8
 1154 1124 1154 1124 1260 1016 c 128,-1,9
 1366 908 1366 908 1366 754 c 128,-1,10
 1366 600 1366 600 1260 492 c 128,-1,11
 1154 384 1154 384 1002 384 c 128,-1,12
 850 384 850 384 744 492 c 0,13,14
 741 495 741 495 738 498 c 1,15,16
 735 495 735 495 732 492 c 0,17,18
 626 384 626 384 474 384 c 128,-1,19
 322 384 322 384 216 492 c 128,-1,20
 110 600 110 600 110 754 c 128,-1,21
 110 908 110 908 216 1016 c 128,-1,0
 322 1124 322 1124 474 1124 c 128,-1,1
474 920 m 128,-1,23
 406 920 406 920 358 871.5 c 128,-1,24
 310 823 310 823 310 754 c 128,-1,25
 310 685 310 685 358 636.5 c 128,-1,26
 406 588 406 588 474 588 c 128,-1,27
 542 588 542 588 590 636.5 c 128,-1,28
 638 685 638 685 638 754 c 128,-1,29
 638 823 638 823 590 871.5 c 128,-1,22
 542 920 542 920 474 920 c 128,-1,23
1002 920 m 128,-1,31
 934 920 934 920 886 871.5 c 128,-1,32
 838 823 838 823 838 754 c 128,-1,33
 838 685 838 685 886 636.5 c 128,-1,34
 934 588 934 588 1002 588 c 128,-1,35
 1070 588 1070 588 1118 636.5 c 128,-1,36
 1166 685 1166 685 1166 754 c 128,-1,37
 1166 823 1166 823 1118 871.5 c 128,-1,30
 1070 920 1070 920 1002 920 c 128,-1,31
EndSplineSet
Validated: 19457
EndChar

StartChar: approxequal
Encoding: 8776 8776 163
Width: 1178
GlyphClass: 2
Flags: W
VStem: 110 277<392 475.875 892 975.875> 791 277<536.125 620 1036.12 1120>
LayerCount: 2
Fore
SplineSet
1058 747 m 1,0,-1
 1068 747 l 1,1,2
 1068 265 1068 265 752 265 c 0,3,4
 616 265 616 265 489 416 c 0,5,6
 453 459 453 459 444 468 c 0,7,8
 433 479 433 479 421 479 c 0,9,10
 387 479 387 479 387 392 c 1,11,-1
 120 265 l 1,12,-1
 110 265 l 1,13,14
 110 747 110 747 426 747 c 0,15,16
 562 747 562 747 689 596 c 0,17,18
 725 553 725 553 734 544 c 0,19,20
 745 533 745 533 757 533 c 0,21,22
 791 533 791 533 791 620 c 1,23,-1
 1058 747 l 1,0,-1
1058 1247 m 1,24,-1
 1068 1247 l 1,25,26
 1068 765 1068 765 752 765 c 0,27,28
 616 765 616 765 489 916 c 0,29,30
 453 959 453 959 444 968 c 0,31,32
 433 979 433 979 421 979 c 0,33,34
 387 979 387 979 387 892 c 1,35,-1
 120 765 l 1,36,-1
 110 765 l 1,37,38
 110 1247 110 1247 426 1247 c 0,39,40
 562 1247 562 1247 689 1096 c 0,41,42
 725 1053 725 1053 734 1044 c 0,43,44
 745 1033 745 1033 757 1033 c 0,45,46
 791 1033 791 1033 791 1120 c 1,47,-1
 1058 1247 l 1,24,-1
EndSplineSet
Validated: 19457
EndChar

StartChar: notequal
Encoding: 8800 8800 164
Width: 1240
GlyphClass: 2
Flags: W
HStem: 390 270<235 365 660 1005> 850 270<235 579 875 1005>
DStem2: 262 170 430 166 0.422674 0.906282<67.3842 242.917 612.302 750.259 1120.07 1296.51>
LayerCount: 2
Fore
SplineSet
235 1120 m 1,0,-1
 705 1120 l 1,1,-1
 810 1345 l 1,2,-1
 969 1345 l 1,3,-1
 978 1341 l 1,4,-1
 875 1120 l 1,5,-1
 1130 1120 l 1,6,-1
 1130 1110 l 1,7,-1
 1005 850 l 1,8,-1
 749 850 l 1,9,-1
 660 660 l 1,10,-1
 1130 660 l 1,11,-1
 1130 650 l 1,12,-1
 1005 390 l 1,13,-1
 534 390 l 1,14,-1
 430 166 l 1,15,-1
 271 166 l 1,16,-1
 262 170 l 1,17,-1
 365 390 l 1,18,-1
 110 390 l 1,19,-1
 110 400 l 1,20,-1
 235 660 l 1,21,-1
 491 660 l 1,22,-1
 579 850 l 1,23,-1
 110 850 l 1,24,-1
 110 860 l 1,25,-1
 235 1120 l 1,0,-1
EndSplineSet
Validated: 19457
EndChar

StartChar: lessequal
Encoding: 8804 8804 165
Width: 1355
GlyphClass: 2
Flags: W
HStem: 154 270<235 1070>
DStem2: 586 919 110 806 0.942398 -0.334493<0 620.627> 227 1059 586 919 0.937801 0.347172<288.067 915.972>
LayerCount: 2
Fore
SplineSet
235 424 m 1,0,-1
 1195 424 l 1,1,-1
 1195 414 l 1,2,-1
 1070 154 l 1,3,-1
 110 154 l 1,4,-1
 110 164 l 1,5,-1
 235 424 l 1,0,-1
110 806 m 1,6,-1
 110 816 l 1,7,-1
 227 1059 l 1,8,-1
 1086 1377 l 1,9,-1
 1195 1151 l 1,10,-1
 1195 1141 l 1,11,-1
 586 919 l 1,12,-1
 1195 707 l 1,13,-1
 1195 697 l 1,14,-1
 1082 461 l 1,15,-1
 110 806 l 1,6,-1
EndSplineSet
Validated: 19457
EndChar

StartChar: greaterequal
Encoding: 8805 8805 166
Width: 1355
GlyphClass: 2
Flags: W
HStem: 154 270<285 1120>
DStem2: 273 1377 160 1131 0.942398 -0.334493<0 620.627> 160 697 269 461 0.937801 0.347172<20.2877 648.193>
LayerCount: 2
Fore
SplineSet
285 424 m 1,0,-1
 1245 424 l 1,1,-1
 1245 414 l 1,2,-1
 1120 154 l 1,3,-1
 160 154 l 1,4,-1
 160 164 l 1,5,-1
 285 424 l 1,0,-1
1245 1032 m 1,6,-1
 1245 1022 l 1,7,-1
 1128 779 l 1,8,-1
 269 461 l 1,9,-1
 160 687 l 1,10,-1
 160 697 l 1,11,-1
 769 919 l 1,12,-1
 160 1131 l 1,13,-1
 160 1141 l 1,14,-1
 273 1377 l 1,15,-1
 1245 1032 l 1,6,-1
EndSplineSet
Validated: 19457
EndChar

StartChar: lozenge
Encoding: 9674 9674 167
Width: 1178
GlyphClass: 2
Flags: W
HStem: -20 21G<575.042 602.903> 1510 20G<575.641 602.409>
DStem2: 60 738 365 756 0.555427 0.831565<184.373 560.738> 365 756 60 738 0.5723 -0.820044<0 422.804> 589 1530 574 1069 0.556885 -0.83059<374.549 800.569> 608 410 589 -20 0.57078 0.821103<0 369.659>
LayerCount: 2
Fore
SplineSet
608 410 m 1,0,-1
 814 717 l 1,1,-1
 574 1069 l 1,2,-1
 365 756 l 1,3,-1
 608 410 l 1,0,-1
589 -20 m 1,4,-1
 60 738 l 1,5,-1
 589 1530 l 1,6,-1
 1118 741 l 1,7,-1
 589 -20 l 1,4,-1
EndSplineSet
Validated: 19457
EndChar

StartChar: Oslash
Encoding: 216 216 168
Width: 1370
Flags: W
HStem: -20 300<547.935 840.345> 1229 301<527.388 822.979>
VStem: 120 320<407.637 1146.27> 930 320<362.672 1102.36>
DStem2: 250 -36 380 -40 0.422823 0.906212<51.3421 139.441 487.647 1313.84 1662.94 1750.14>
LayerCount: 2
Fore
SplineSet
380 -40 m 1,0,-1
 259 -40 l 1,1,-1
 250 -36 l 1,2,-1
 315 103 l 1,3,4
 300 115 300 115 286 127 c 0,5,6
 120 274 120 274 120 494 c 2,7,-1
 120 1016 l 2,8,9
 120 1238 120 1238 286 1384 c 0,10,11
 453 1530 453 1530 687 1530 c 0,12,13
 834 1530 834 1530 953 1472 c 1,14,-1
 990 1550 l 1,15,-1
 1111 1550 l 1,16,-1
 1120 1546 l 1,17,-1
 1055 1408 l 1,18,19
 1070 1396 1070 1396 1085 1383 c 0,20,21
 1250 1236 1250 1236 1250 1016 c 2,22,-1
 1250 494 l 2,23,24
 1250 272 1250 272 1085 126 c 128,-1,25
 920 -20 920 -20 686 -20 c 0,26,27
 538 -20 538 -20 417 39 c 1,28,-1
 380 -40 l 1,0,-1
686 280 m 0,29,30
 790 280 790 280 860 337 c 128,-1,31
 930 394 930 394 930 482 c 2,32,-1
 930 1028 l 2,33,34
 930 1070 930 1070 914 1104 c 1,35,-1
 545 314 l 1,36,37
 606 280 606 280 686 280 c 0,29,30
456 406 m 1,38,-1
 825 1196 l 1,39,40
 765 1229 765 1229 685 1229 c 0,41,42
 582 1229 582 1229 511.5 1172.5 c 128,-1,43
 441 1116 441 1116 440 1028 c 2,44,-1
 440 482 l 2,45,46
 440 441 440 441 456 406 c 1,38,-1
EndSplineSet
Validated: 19457
EndChar

StartChar: oslash
Encoding: 248 248 169
Width: 1190
Flags: W
HStem: -20 280<530.754 723.522> 840 280<466.709 659.261>
VStem: 120 300<348.718 794.471> 770 300<306.338 751.282>
DStem2: 255 -36 386 -40 0.423012 0.906124<51.7901 114.723 419.2 930.425 1235.92 1297.84>
LayerCount: 2
Fore
SplineSet
386 -40 m 1,0,-1
 265 -40 l 1,1,-1
 255 -36 l 1,2,-1
 304 68 l 1,3,4
 282 84 282 84 260 102 c 0,5,6
 120 225 120 225 120 403 c 2,7,-1
 120 697 l 2,8,9
 120 879 120 879 260 999 c 0,10,11
 401 1120 401 1120 596 1120 c 0,12,13
 695 1120 695 1120 780 1089 c 1,14,-1
 804 1140 l 1,15,-1
 925 1140 l 1,16,-1
 935 1136 l 1,17,-1
 887 1032 l 1,18,19
 909 1016 909 1016 930 998 c 0,20,21
 1070 875 1070 875 1070 697 c 2,22,-1
 1070 403 l 2,23,24
 1070 223 1070 223 930 101 c 0,25,26
 790 -20 790 -20 594 -20 c 0,27,28
 495 -20 495 -20 410 12 c 1,29,-1
 386 -40 l 1,0,-1
596 260 m 0,30,31
 670 260 670 260 721 299 c 0,32,33
 770 338 770 338 770 398 c 2,34,-1
 770 702 l 2,35,36
 770 732 770 732 758 756 c 1,37,-1
 530 269 l 1,38,39
 561 260 561 260 596 260 c 0,30,31
432 344 m 1,40,-1
 660 831 l 1,41,42
 630 840 630 840 594 840 c 0,43,44
 520 840 520 840 469 801 c 0,45,46
 420 762 420 762 420 702 c 2,47,-1
 420 398 l 2,48,49
 420 368 420 368 432 344 c 1,40,-1
EndSplineSet
Validated: 19457
EndChar

StartChar: multiply
Encoding: 215 215 170
Width: 1232
Flags: W
DStem2: 439 1123 160 1020 0.707107 -0.707107<0 250.316 520.431 770.746> 160 490 439 387 0.707107 0.707107<124.451 374.767 644.881 895.197>
LayerCount: 2
Fore
SplineSet
1065 1027 m 1,0,-1
 1072 1020 l 1,1,-1
 807 755 l 1,2,-1
 1072 490 l 1,3,-1
 1065 483 l 1,4,-1
 793 387 l 1,5,-1
 616 564 l 1,6,-1
 439 387 l 1,7,-1
 167 483 l 1,8,-1
 160 490 l 1,9,-1
 425 755 l 1,10,-1
 160 1020 l 1,11,-1
 167 1027 l 1,12,-1
 439 1123 l 1,13,-1
 616 946 l 1,14,-1
 793 1123 l 1,15,-1
 1065 1027 l 1,0,-1
EndSplineSet
Validated: 19457
EndChar

StartChar: divide
Encoding: 247 247 171
Width: 1240
Flags: W
HStem: 155 365<502.131 736.878> 620 270<235 1005> 990 365<502.131 736.878>
VStem: 440 360<217.566 457.578 1052.57 1292.58>
CounterMasks: 1 e0
LayerCount: 2
Fore
SplineSet
235 890 m 1,0,-1
 1130 890 l 1,1,-1
 1130 880 l 1,2,-1
 1005 620 l 1,3,-1
 110 620 l 1,4,-1
 110 630 l 1,5,-1
 235 890 l 1,0,-1
620 1355 m 128,-1,7
 695 1355 695 1355 747.5 1301.5 c 128,-1,8
 800 1248 800 1248 800 1173 c 128,-1,9
 800 1098 800 1098 747 1044 c 128,-1,10
 694 990 694 990 620 990 c 0,11,12
 544 990 544 990 492 1044 c 128,-1,13
 440 1098 440 1098 440 1172 c 0,14,15
 440 1248 440 1248 492 1301 c 0,16,6
 545 1355 545 1355 620 1355 c 128,-1,7
620 155 m 0,17,18
 544 155 544 155 492 209 c 128,-1,19
 440 263 440 263 440 337 c 0,20,21
 440 413 440 413 492 466 c 0,22,23
 545 520 545 520 620 520 c 128,-1,24
 695 520 695 520 747.5 466.5 c 128,-1,25
 800 413 800 413 800 338 c 128,-1,26
 800 263 800 263 747 209 c 128,-1,27
 694 155 694 155 620 155 c 0,17,18
EndSplineSet
Validated: 19457
EndChar

StartChar: uni1E02
Encoding: 7682 7682 172
Width: 1300
Flags: W
HStem: 0 300<480 853.147> 676 285<480 815.588> 1225 285<480 815.711> 1590 364<533.131 767.338>
VStem: 160 320<300 676 961 1225> 471 360<1654.3 1891.73> 859 300<1000.39 1184.85> 930 320<372.01 603.283>
LayerCount: 2
Fore
SplineSet
651 1954 m 0,0,1
 727 1954 727 1954 779 1901 c 128,-1,2
 831 1848 831 1848 831 1773 c 0,3,4
 831 1699 831 1699 778 1644 c 0,5,6
 726 1590 726 1590 651 1590 c 0,7,8
 574 1590 574 1590 522.5 1644 c 128,-1,9
 471 1698 471 1698 471 1772 c 0,10,11
 471 1848 471 1848 523 1900 c 0,12,13
 576 1954 576 1954 651 1954 c 0,0,1
480 1225 m 1,14,-1
 480 961 l 1,15,-1
 705 961 l 2,16,17
 772 961 772 961 817 1000 c 0,18,19
 859 1036 859 1036 859 1093 c 0,20,21
 859 1146 859 1146 817 1186 c 0,22,23
 776 1225 776 1225 705 1225 c 2,24,-1
 480 1225 l 1,14,-1
480 300 m 1,25,-1
 685 300 l 2,26,27
 814 301 814 301 872 356 c 128,-1,28
 930 411 930 411 930 487 c 128,-1,29
 930 563 930 563 872.5 619.5 c 128,-1,30
 815 676 815 676 685 676 c 2,31,-1
 480 676 l 1,32,-1
 480 300 l 1,25,-1
160 0 m 1,33,-1
 160 1384 l 1,34,-1
 428 1510 l 1,35,-1
 685 1510 l 2,36,37
 870 1510 870 1510 1003 1413 c 0,38,39
 1159 1299 1159 1299 1159 1112 c 0,40,41
 1159 966 1159 966 1050 858 c 1,42,43
 1070 845 1070 845 1086 831 c 0,44,45
 1250 691 1250 691 1250 485 c 0,46,47
 1250 278 1250 278 1100 139 c 0,48,49
 949 0 949 0 685 0 c 2,50,-1
 160 0 l 1,33,-1
EndSplineSet
Validated: 19457
EndChar

StartChar: uni1E03
Encoding: 7683 7683 173
Width: 1210
Flags: W
HStem: -20 280<489.669 743.624> 839 281<489.569 740.976> 1180 364<574.131 808.338> 1510 20G<387.971 440>
VStem: 140 300<307.226 792.793 1072 1392> 512 360<1244.3 1481.73> 790 300<306.338 792.662>
LayerCount: 2
Fore
SplineSet
692 1544 m 0,0,1
 768 1544 768 1544 820 1491 c 128,-1,2
 872 1438 872 1438 872 1363 c 0,3,4
 872 1289 872 1289 819 1234 c 0,5,6
 767 1180 767 1180 692 1180 c 0,7,8
 615 1180 615 1180 563.5 1234 c 128,-1,9
 512 1288 512 1288 512 1362 c 0,10,11
 512 1438 512 1438 564 1490 c 0,12,13
 617 1544 617 1544 692 1544 c 0,0,1
615.5 260 m 128,-1,15
 690 260 690 260 741 299 c 0,16,17
 790 338 790 338 790 398 c 2,18,-1
 790 694 l 2,19,20
 790 758 790 758 739.5 798.5 c 128,-1,21
 689 839 689 839 614.5 839 c 128,-1,22
 540 839 540 839 490 798 c 128,-1,23
 440 757 440 757 440 695 c 2,24,-1
 440 398 l 2,25,26
 441 337 441 337 491 298.5 c 128,-1,14
 541 260 541 260 615.5 260 c 128,-1,15
614.5 -20 m 128,-1,28
 419 -20 419 -20 280 102 c 0,29,30
 140 225 140 225 140 403 c 2,31,-1
 140 1392 l 1,32,-1
 430 1530 l 1,33,-1
 440 1530 l 1,34,-1
 440 1072 l 1,35,36
 517 1120 517 1120 615 1120 c 0,37,38
 813 1120 813 1120 951 998 c 0,39,40
 1090 876 1090 876 1090 696 c 2,41,-1
 1090 403 l 2,42,43
 1090 223 1090 223 950 101 c 0,44,27
 810 -20 810 -20 614.5 -20 c 128,-1,28
EndSplineSet
Validated: 19457
EndChar

StartChar: uni1E0A
Encoding: 7690 7690 174
Width: 1390
Flags: W
HStem: 0 300<480 858.291> 1210 300<480 857.84> 1590 364<568.131 802.338>
VStem: 160 320<300 1210> 506 360<1654.3 1891.73> 950 320<384.113 1126.75>
LayerCount: 2
Fore
SplineSet
686 1954 m 0,0,1
 762 1954 762 1954 814 1901 c 128,-1,2
 866 1848 866 1848 866 1773 c 0,3,4
 866 1699 866 1699 813 1644 c 0,5,6
 761 1590 761 1590 686 1590 c 0,7,8
 609 1590 609 1590 557.5 1644 c 128,-1,9
 506 1698 506 1698 506 1772 c 0,10,11
 506 1848 506 1848 558 1900 c 0,12,13
 611 1954 611 1954 686 1954 c 0,0,1
480 300 m 1,14,-1
 705 300 l 2,15,16
 808 300 808 300 880 357 c 0,17,18
 950 413 950 413 950 501 c 2,19,-1
 950 1009 l 2,20,21
 950 1097 950 1097 878 1153 c 0,22,23
 806 1210 806 1210 705 1210 c 2,24,-1
 480 1210 l 1,25,-1
 480 300 l 1,14,-1
160 0 m 1,26,-1
 160 1383 l 1,27,-1
 428 1510 l 1,28,-1
 705 1510 l 2,29,30
 939 1510 939 1510 1105 1362 c 0,31,32
 1270 1216 1270 1216 1270 997 c 2,33,-1
 1270 513 l 2,34,35
 1270 296 1270 296 1105 148 c 128,-1,36
 940 0 940 0 705 0 c 2,37,-1
 160 0 l 1,26,-1
EndSplineSet
Validated: 19457
EndChar

StartChar: uni1E0B
Encoding: 7691 7691 175
Width: 1210
Flags: W
HStem: -20 280<466.376 720.331> 839 281<469.024 720.431> 1180 364<390.131 624.338>
VStem: 120 300<306.338 792.662> 328 360<1244.3 1481.73> 770 300<307.63 792.793 1072 1392>
LayerCount: 2
Fore
SplineSet
508 1544 m 0,0,1
 584 1544 584 1544 636 1491 c 128,-1,2
 688 1438 688 1438 688 1363 c 0,3,4
 688 1289 688 1289 635 1234 c 0,5,6
 583 1180 583 1180 508 1180 c 0,7,8
 431 1180 431 1180 379.5 1234 c 128,-1,9
 328 1288 328 1288 328 1362 c 0,10,11
 328 1438 328 1438 380 1490 c 0,12,13
 433 1544 433 1544 508 1544 c 0,0,1
594.5 260 m 128,-1,15
 669 260 669 260 719 298.5 c 128,-1,16
 769 337 769 337 770 398 c 2,17,-1
 770 695 l 2,18,19
 770 757 770 757 720 798 c 128,-1,20
 670 839 670 839 595.5 839 c 128,-1,21
 521 839 521 839 470.5 798.5 c 128,-1,22
 420 758 420 758 420 694 c 2,23,-1
 420 398 l 2,24,25
 420 338 420 338 469 299 c 0,26,14
 520 260 520 260 594.5 260 c 128,-1,15
595.5 -20 m 128,-1,28
 400 -20 400 -20 260 101 c 0,29,30
 120 223 120 223 120 403 c 2,31,-1
 120 696 l 2,32,33
 120 876 120 876 259 998 c 0,34,35
 397 1120 397 1120 595 1120 c 0,36,37
 693 1120 693 1120 770 1072 c 1,38,-1
 770 1392 l 1,39,-1
 1060 1530 l 1,40,-1
 1070 1530 l 1,41,-1
 1070 403 l 2,42,43
 1070 226 1070 226 930 102 c 0,44,27
 791 -20 791 -20 595.5 -20 c 128,-1,28
EndSplineSet
Validated: 19457
EndChar

StartChar: uni1E1E
Encoding: 7710 7710 176
Width: 1050
Flags: W
HStem: -20 21G<160 212.177> 605 300<480 904> 1210 300<480 904> 1590 364<491.131 725.338>
VStem: 160 320<127 605 905 1210> 429 360<1654.3 1891.73>
LayerCount: 2
Fore
SplineSet
609 1954 m 0,0,1
 685 1954 685 1954 737 1901 c 128,-1,2
 789 1848 789 1848 789 1773 c 0,3,4
 789 1699 789 1699 736 1644 c 0,5,6
 684 1590 684 1590 609 1590 c 0,7,8
 532 1590 532 1590 480.5 1644 c 128,-1,9
 429 1698 429 1698 429 1772 c 0,10,11
 429 1848 429 1848 481 1900 c 0,12,13
 534 1954 534 1954 609 1954 c 0,0,1
170 -20 m 1,14,-1
 160 -20 l 1,15,-1
 160 1384 l 1,16,-1
 428 1510 l 1,17,-1
 1040 1510 l 1,18,-1
 1040 1500 l 1,19,-1
 904 1210 l 1,20,-1
 480 1210 l 1,21,-1
 480 905 l 1,22,-1
 1040 905 l 1,23,-1
 1040 895 l 1,24,-1
 904 605 l 1,25,-1
 480 605 l 1,26,-1
 480 127 l 1,27,-1
 170 -20 l 1,14,-1
EndSplineSet
Validated: 19457
EndChar

StartChar: uni1E1F
Encoding: 7711 7711 177
Width: 860
Flags: W
HStem: -20 21G<140 192.029> 662 280<440 682> 1230 280<490.538 721> 1590 364<348.131 582.338>
VStem: 140 300<118 662 942 1180.56> 286 360<1654.3 1891.73>
LayerCount: 2
Fore
SplineSet
466 1954 m 0,0,1
 542 1954 542 1954 594 1901 c 128,-1,2
 646 1848 646 1848 646 1773 c 0,3,4
 646 1699 646 1699 593 1644 c 0,5,6
 541 1590 541 1590 466 1590 c 0,7,8
 389 1590 389 1590 337.5 1644 c 128,-1,9
 286 1698 286 1698 286 1772 c 0,10,11
 286 1848 286 1848 338 1900 c 0,12,13
 391 1954 391 1954 466 1954 c 0,0,1
150 -20 m 1,14,-1
 140 -20 l 1,15,-1
 140 1076 l 2,16,17
 140 1261 140 1261 280 1386 c 0,18,19
 420 1510 420 1510 615 1510 c 2,20,-1
 850 1510 l 1,21,-1
 850 1500 l 1,22,-1
 721 1230 l 1,23,-1
 615 1230 l 2,24,25
 538 1230 538 1230 489 1189 c 128,-1,26
 440 1148 440 1148 440 1085 c 2,27,-1
 440 942 l 1,28,-1
 811 942 l 1,29,-1
 811 932 l 1,30,-1
 682 662 l 1,31,-1
 440 662 l 1,32,-1
 440 118 l 1,33,-1
 150 -20 l 1,14,-1
EndSplineSet
Validated: 19457
EndChar

StartChar: uni1E40
Encoding: 7744 7744 178
Width: 2220
Flags: W
HStem: -20 21G<140 192.177 950 1002.18 1760 1812.18> 1230 300<552.691 860.104 1362.54 1670.3> 1590 364<986.131 1220.34>
VStem: 140 320<127 1141.11> 924 360<1654.3 1891.73> 950 320<127 1143.7> 1760 320<127 1140.19>
LayerCount: 2
Fore
SplineSet
1104 1954 m 0,0,1
 1180 1954 1180 1954 1232 1901 c 128,-1,2
 1284 1848 1284 1848 1284 1773 c 0,3,4
 1284 1699 1284 1699 1231 1644 c 0,5,6
 1179 1590 1179 1590 1104 1590 c 0,7,8
 1027 1590 1027 1590 975.5 1644 c 128,-1,9
 924 1698 924 1698 924 1772 c 0,10,11
 924 1848 924 1848 976 1900 c 0,12,13
 1029 1954 1029 1954 1104 1954 c 0,0,1
150 -20 m 1,14,-1
 140 -20 l 1,15,-1
 140 1016 l 2,16,17
 140 1238 140 1238 306 1384 c 128,-1,18
 472 1530 472 1530 706 1530 c 0,19,20
 942 1530 942 1530 1110 1379 c 1,21,22
 1281 1530 1281 1530 1518 1530 c 0,23,24
 1752 1530 1752 1530 1916 1383 c 128,-1,25
 2080 1236 2080 1236 2080 1016 c 2,26,-1
 2080 127 l 1,27,-1
 1770 -20 l 1,28,-1
 1760 -20 l 1,29,-1
 1760 1022 l 2,30,31
 1760 1113 1760 1113 1688 1172 c 0,32,33
 1618 1230 1618 1230 1515.5 1230 c 128,-1,34
 1413 1230 1413 1230 1341.5 1171 c 128,-1,35
 1270 1112 1270 1112 1270 1022 c 2,36,-1
 1270 127 l 1,37,-1
 960 -20 l 1,38,-1
 950 -20 l 1,39,-1
 950 1022 l 2,40,41
 950 1113 950 1113 878 1172 c 0,42,43
 808 1230 808 1230 705.5 1230 c 128,-1,44
 603 1230 603 1230 531.5 1171 c 128,-1,45
 460 1112 460 1112 460 1022 c 2,46,-1
 460 127 l 1,47,-1
 150 -20 l 1,14,-1
EndSplineSet
Validated: 19457
EndChar

StartChar: uni1E41
Encoding: 7745 7745 179
Width: 1880
Flags: W
HStem: -20 21G<140 192.029 790 842.029 1440 1492.03> 839 281<489.503 741.123 1138.72 1390.98> 1180 364<814.131 1048.34>
VStem: 140 300<118 788.923> 752 360<1244.3 1481.73> 790 300<118 792.793> 1440 300<118 792.662>
LayerCount: 2
Fore
SplineSet
932 1544 m 0,0,1
 1008 1544 1008 1544 1060 1491 c 128,-1,2
 1112 1438 1112 1438 1112 1363 c 0,3,4
 1112 1289 1112 1289 1059 1234 c 0,5,6
 1007 1180 1007 1180 932 1180 c 0,7,8
 855 1180 855 1180 803.5 1234 c 128,-1,9
 752 1288 752 1288 752 1362 c 0,10,11
 752 1438 752 1438 804 1490 c 0,12,13
 857 1544 857 1544 932 1544 c 0,0,1
150 -20 m 1,14,-1
 140 -20 l 1,15,-1
 140 697 l 2,16,17
 140 878 140 878 280 999 c 128,-1,18
 420 1120 420 1120 615 1120 c 0,19,20
 805 1120 805 1120 939 1007 c 1,21,22
 1076 1120 1076 1120 1265 1120 c 0,23,24
 1463 1120 1463 1120 1601 998 c 0,25,26
 1740 876 1740 876 1740 696 c 2,27,-1
 1740 118 l 1,28,-1
 1450 -20 l 1,29,-1
 1440 -20 l 1,30,-1
 1440 694 l 2,31,32
 1440 758 1440 758 1389.5 798.5 c 128,-1,33
 1339 839 1339 839 1264.5 839 c 128,-1,34
 1190 839 1190 839 1140 798 c 128,-1,35
 1090 757 1090 757 1090 695 c 2,36,-1
 1090 118 l 1,37,-1
 800 -20 l 1,38,-1
 790 -20 l 1,39,-1
 790 694 l 2,40,41
 790 758 790 758 739.5 798.5 c 128,-1,42
 689 839 689 839 614.5 839 c 128,-1,43
 540 839 540 839 490 798 c 128,-1,44
 440 757 440 757 440 695 c 2,45,-1
 440 118 l 1,46,-1
 150 -20 l 1,14,-1
EndSplineSet
Validated: 19457
EndChar

StartChar: uni1E56
Encoding: 7766 7766 180
Width: 1270
Flags: W
HStem: -20 21G<160 212.177> 440 301<480 824.983> 1210 300<480 821.097> 1590 364<524.131 758.338>
VStem: 160 320<127 440 741 1210> 462 360<1654.3 1891.73> 920 320<836.943 1113.23>
LayerCount: 2
Fore
SplineSet
642 1954 m 0,0,1
 718 1954 718 1954 770 1901 c 128,-1,2
 822 1848 822 1848 822 1773 c 0,3,4
 822 1699 822 1699 769 1644 c 0,5,6
 717 1590 717 1590 642 1590 c 0,7,8
 565 1590 565 1590 513.5 1644 c 128,-1,9
 462 1698 462 1698 462 1772 c 0,10,11
 462 1848 462 1848 514 1900 c 0,12,13
 567 1954 567 1954 642 1954 c 0,0,1
480 741 m 1,14,-1
 692 741 l 2,15,16
 790 741 790 741 855 812 c 128,-1,17
 920 883 920 883 920 975 c 128,-1,18
 920 1067 920 1067 855 1138.5 c 128,-1,19
 790 1210 790 1210 692 1210 c 2,20,-1
 480 1210 l 1,21,-1
 480 741 l 1,14,-1
170 -20 m 1,22,-1
 160 -20 l 1,23,-1
 160 1383 l 1,24,-1
 428 1510 l 1,25,-1
 686 1510 l 2,26,27
 926 1510 926 1510 1082 1353 c 0,28,29
 1240 1196 1240 1196 1240 975 c 128,-1,30
 1240 754 1240 754 1081 597 c 128,-1,31
 922 440 922 440 686 440 c 2,32,-1
 480 440 l 1,33,-1
 480 127 l 1,34,-1
 170 -20 l 1,22,-1
EndSplineSet
Validated: 19457
EndChar

StartChar: uni1E57
Encoding: 7767 7767 181
Width: 1210
Flags: W
HStem: -430 21G<140 192.029> -20 281<489.569 740.976> 840 280<489.669 743.624> 1180 364<495.131 729.338>
VStem: 140 300<-292 28 307.207 792.37> 433 360<1244.3 1481.73> 790 300<307.338 793.662>
LayerCount: 2
Fore
SplineSet
613 1544 m 0,0,1
 689 1544 689 1544 741 1491 c 128,-1,2
 793 1438 793 1438 793 1363 c 0,3,4
 793 1289 793 1289 740 1234 c 0,5,6
 688 1180 688 1180 613 1180 c 0,7,8
 536 1180 536 1180 484.5 1234 c 128,-1,9
 433 1288 433 1288 433 1362 c 0,10,11
 433 1438 433 1438 485 1490 c 0,12,13
 538 1544 538 1544 613 1544 c 0,0,1
615.5 840 m 128,-1,15
 541 840 541 840 491 801.5 c 128,-1,16
 441 763 441 763 440 702 c 2,17,-1
 440 405 l 2,18,19
 440 343 440 343 490 302 c 128,-1,20
 540 261 540 261 614.5 261 c 128,-1,21
 689 261 689 261 739.5 301.5 c 128,-1,22
 790 342 790 342 790 406 c 2,23,-1
 790 702 l 2,24,25
 790 762 790 762 741 801 c 0,26,14
 690 840 690 840 615.5 840 c 128,-1,15
150 -430 m 1,27,-1
 140 -430 l 1,28,-1
 140 697 l 2,29,30
 140 874 140 874 280 998 c 0,31,32
 419 1120 419 1120 614.5 1120 c 128,-1,33
 810 1120 810 1120 950 999 c 0,34,35
 1090 877 1090 877 1090 697 c 2,36,-1
 1090 404 l 2,37,38
 1090 224 1090 224 951 102 c 0,39,40
 813 -20 813 -20 615 -20 c 0,41,42
 517 -20 517 -20 440 28 c 1,43,-1
 440 -292 l 1,44,-1
 150 -430 l 1,27,-1
EndSplineSet
Validated: 19457
EndChar

StartChar: uni1E6A
Encoding: 7786 7786 182
Width: 1190
Flags: W
HStem: -20 21G<435 487.466> 1210 300<146 435 755 1044> 1590 364<471.131 705.338>
VStem: 409 360<1654.3 1891.73> 435 320<126 1210>
LayerCount: 2
Fore
SplineSet
589 1954 m 0,0,1
 665 1954 665 1954 717 1901 c 128,-1,2
 769 1848 769 1848 769 1773 c 0,3,4
 769 1699 769 1699 716 1644 c 0,5,6
 664 1590 664 1590 589 1590 c 0,7,8
 512 1590 512 1590 460.5 1644 c 128,-1,9
 409 1698 409 1698 409 1772 c 0,10,11
 409 1848 409 1848 461 1900 c 0,12,13
 514 1954 514 1954 589 1954 c 0,0,1
445 -20 m 1,14,-1
 435 -20 l 1,15,-1
 435 1210 l 1,16,-1
 10 1210 l 1,17,-1
 10 1220 l 1,18,-1
 146 1510 l 1,19,-1
 1180 1510 l 1,20,-1
 1180 1500 l 1,21,-1
 1044 1210 l 1,22,-1
 755 1210 l 1,23,-1
 755 126 l 1,24,-1
 445 -20 l 1,14,-1
EndSplineSet
Validated: 1
EndChar

StartChar: uni1E6B
Encoding: 7787 7787 183
Width: 890
Flags: W
HStem: -20 21G<300 352.105> 820 280<139 300 590 751> 1510 20G<537.895 590> 1590 364<327.131 561.338>
VStem: 265 360<1654.3 1891.73> 300 290<113 820 1100 1397>
LayerCount: 2
Fore
SplineSet
310 -20 m 1,0,-1
 300 -20 l 1,1,-1
 300 820 l 1,2,-1
 10 820 l 1,3,-1
 10 830 l 1,4,-1
 139 1100 l 1,5,-1
 300 1100 l 1,6,-1
 300 1397 l 1,7,-1
 580 1530 l 1,8,-1
 590 1530 l 1,9,-1
 590 1100 l 1,10,-1
 880 1100 l 1,11,-1
 880 1090 l 1,12,-1
 751 820 l 1,13,-1
 590 820 l 1,14,-1
 590 113 l 1,15,-1
 310 -20 l 1,0,-1
445 1954 m 0,16,17
 521 1954 521 1954 573 1901 c 128,-1,18
 625 1848 625 1848 625 1773 c 0,19,20
 625 1699 625 1699 572 1644 c 0,21,22
 520 1590 520 1590 445 1590 c 0,23,24
 368 1590 368 1590 316.5 1644 c 128,-1,25
 265 1698 265 1698 265 1772 c 0,26,27
 265 1848 265 1848 317 1900 c 0,28,29
 370 1954 370 1954 445 1954 c 0,16,17
EndSplineSet
Validated: 1
EndChar

StartChar: uni1E60
Encoding: 7776 7776 184
Width: 1199
Flags: W
HStem: -20 300<424.428 738.784> 1263 267<476.62 698.991> 1590 364<471.131 705.338>
VStem: 122 305<1025.53 1217.96> 409 360<1654.3 1891.73> 823 326<358.537 591.8>
LayerCount: 2
Fore
SplineSet
583.5 -20 m 128,-1,1
 349 -20 349 -20 184 131 c 0,2,3
 66 239 66 239 30 395 c 1,4,-1
 328 536 l 1,5,-1
 338 536 l 1,6,7
 338 391 338 391 409 335 c 0,8,9
 480 280 480 280 584 280 c 0,10,11
 693 280 693 280 758 337 c 0,12,13
 823 395 823 395 823 481 c 0,14,15
 823 547 823 547 772 599 c 0,16,17
 718 654 718 654 584 668 c 0,18,19
 380 689 380 689 252 793 c 0,20,21
 122 899 122 899 122 1096 c 128,-1,22
 122 1293 122 1293 259 1411.5 c 128,-1,23
 396 1530 396 1530 593 1530 c 0,24,25
 787 1530 787 1530 919 1404 c 0,26,27
 1019 1309 1019 1309 1046 1194 c 1,28,-1
 753 1055 l 1,29,-1
 743 1055 l 1,30,31
 743 1168 743 1168 706 1213 c 0,32,33
 665 1263 665 1263 595 1263 c 0,34,35
 524 1263 524 1263 476 1223 c 0,36,37
 427 1182 427 1182 427 1115 c 0,38,39
 427 1035 427 1035 516 1002 c 0,40,41
 561 985 561 985 634 977 c 0,42,43
 882 951 882 951 1015 822 c 0,44,45
 1149 692 1149 692 1149 488 c 0,46,47
 1149 271 1149 271 983 125 c 0,48,0
 818 -20 818 -20 583.5 -20 c 128,-1,1
589 1954 m 0,49,50
 665 1954 665 1954 717 1901 c 128,-1,51
 769 1848 769 1848 769 1773 c 0,52,53
 769 1699 769 1699 716 1644 c 0,54,55
 664 1590 664 1590 589 1590 c 0,56,57
 512 1590 512 1590 460.5 1644 c 128,-1,58
 409 1698 409 1698 409 1772 c 0,59,60
 409 1848 409 1848 461 1900 c 0,61,62
 514 1954 514 1954 589 1954 c 0,49,50
EndSplineSet
Validated: 19457
EndChar

StartChar: uni1E61
Encoding: 7777 7777 185
Width: 967
Flags: W
HStem: -20 240<349.605 613.959> 895 225<382.092 565.329> 1180 364<342.131 576.338>
VStem: 86 274<742.993 876.015> 280 360<1244.3 1481.73> 649 278<258.009 416.32>
LayerCount: 2
Fore
SplineSet
467 -20 m 0,0,1
 267 -20 267 -20 142 92 c 0,2,3
 47 177 47 177 20 300 c 1,4,-1
 281 423 l 1,5,-1
 291 423 l 1,6,7
 291 307 291 307 358 258 c 0,8,9
 410 220 410 220 493 220 c 0,10,11
 565 220 565 220 609 260 c 0,12,13
 649 295 649 295 649 342 c 0,14,15
 649 399 649 399 589 424 c 0,16,17
 559 437 559 437 467 446 c 0,18,19
 320 461 320 461 209 538 c 0,20,21
 86 623 86 623 86 784 c 0,22,23
 86 943 86 943 198.5 1031.5 c 128,-1,24
 311 1120 311 1120 478 1120 c 0,25,26
 640 1120 640 1120 746 1023 c 0,27,28
 825 951 825 951 852 854 c 1,29,-1
 605 736 l 1,30,-1
 595 736 l 1,31,32
 595 809 595 809 568 848 c 0,33,34
 536 895 536 895 466 895 c 0,35,36
 418 895 418 895 389 872 c 128,-1,37
 360 849 360 849 360 807 c 0,38,39
 360 749 360 749 434 730 c 0,40,41
 472 720 472 720 513 716 c 0,42,43
 716 695 716 695 821 602 c 0,44,45
 927 507 927 507 927 358 c 0,46,47
 927 191 927 191 794 86 c 0,48,49
 660 -20 660 -20 467 -20 c 0,0,1
460 1544 m 0,50,51
 536 1544 536 1544 588 1491 c 128,-1,52
 640 1438 640 1438 640 1363 c 0,53,54
 640 1289 640 1289 587 1234 c 0,55,56
 535 1180 535 1180 460 1180 c 0,57,58
 383 1180 383 1180 331.5 1234 c 128,-1,59
 280 1288 280 1288 280 1362 c 0,60,61
 280 1438 280 1438 332 1490 c 0,62,63
 385 1544 385 1544 460 1544 c 0,50,51
EndSplineSet
Validated: 19457
EndChar

StartChar: Wgrave
Encoding: 7808 7808 186
Width: 2220
Flags: W
HStem: -20 300<549.702 857.458 1359.9 1667.31> 1510 20G<407.823 460 1217.82 1270 2027.82 2080>
VStem: 140 320<369.809 1383> 950 320<366.296 1383> 1760 320<368.886 1383>
DStem2: 1090 1980 900 1895 0.429396 -0.903116<0 356.108>
CounterMasks: 1 38
LayerCount: 2
Fore
SplineSet
1080 1980 m 1,0,-1
 1090 1980 l 1,1,-1
 1245 1654 l 1,2,-1
 1067 1570 l 1,3,-1
 1057 1570 l 1,4,-1
 900 1895 l 1,5,-1
 1080 1980 l 1,0,-1
702 -20 m 0,6,7
 468 -20 468 -20 304 127 c 128,-1,8
 140 274 140 274 140 494 c 2,9,-1
 140 1383 l 1,10,-1
 450 1530 l 1,11,-1
 460 1530 l 1,12,-1
 460 488 l 2,13,14
 460 397 460 397 532 338 c 0,15,16
 602 280 602 280 704.5 280 c 128,-1,17
 807 280 807 280 878.5 339 c 128,-1,18
 950 398 950 398 950 488 c 2,19,-1
 950 1383 l 1,20,-1
 1260 1530 l 1,21,-1
 1270 1530 l 1,22,-1
 1270 488 l 2,23,24
 1270 397 1270 397 1342 338 c 0,25,26
 1412 280 1412 280 1514.5 280 c 128,-1,27
 1617 280 1617 280 1688.5 339 c 128,-1,28
 1760 398 1760 398 1760 488 c 2,29,-1
 1760 1383 l 1,30,-1
 2070 1530 l 1,31,-1
 2080 1530 l 1,32,-1
 2080 494 l 2,33,34
 2080 272 2080 272 1914 126 c 128,-1,35
 1748 -20 1748 -20 1514 -20 c 0,36,37
 1278 -20 1278 -20 1110 131 c 1,38,39
 939 -20 939 -20 702 -20 c 0,6,7
EndSplineSet
Validated: 19457
EndChar

StartChar: wgrave
Encoding: 7809 7809 187
Width: 1880
Flags: W
HStem: -20 281<489.024 741.28 1138.88 1390.5> 1100 20G<387.971 440 1037.97 1090 1687.97 1740>
VStem: 140 300<307.338 982> 790 300<307.207 982> 1440 300<311.077 982>
DStem2: 909 1570 719 1485 0.429396 -0.903116<0 356.108>
CounterMasks: 1 38
LayerCount: 2
Fore
SplineSet
899 1570 m 1,0,-1
 909 1570 l 1,1,-1
 1064 1244 l 1,2,-1
 886 1160 l 1,3,-1
 876 1160 l 1,4,-1
 719 1485 l 1,5,-1
 899 1570 l 1,0,-1
615 -20 m 0,6,7
 417 -20 417 -20 279 102 c 0,8,9
 140 224 140 224 140 404 c 2,10,-1
 140 982 l 1,11,-1
 430 1120 l 1,12,-1
 440 1120 l 1,13,-1
 440 406 l 2,14,15
 440 342 440 342 490.5 301.5 c 128,-1,16
 541 261 541 261 615.5 261 c 128,-1,17
 690 261 690 261 740 302 c 128,-1,18
 790 343 790 343 790 405 c 2,19,-1
 790 982 l 1,20,-1
 1080 1120 l 1,21,-1
 1090 1120 l 1,22,-1
 1090 406 l 2,23,24
 1090 342 1090 342 1140.5 301.5 c 128,-1,25
 1191 261 1191 261 1265.5 261 c 128,-1,26
 1340 261 1340 261 1390 302 c 128,-1,27
 1440 343 1440 343 1440 405 c 2,28,-1
 1440 982 l 1,29,-1
 1730 1120 l 1,30,-1
 1740 1120 l 1,31,-1
 1740 403 l 2,32,33
 1740 222 1740 222 1600 101 c 128,-1,34
 1460 -20 1460 -20 1265 -20 c 0,35,36
 1075 -20 1075 -20 941 93 c 1,37,38
 804 -20 804 -20 615 -20 c 0,6,7
EndSplineSet
Validated: 19457
EndChar

StartChar: Wacute
Encoding: 7810 7810 188
Width: 2220
Flags: W
HStem: -20 300<549.702 857.458 1359.9 1667.31> 1510 20G<407.823 460 1217.82 1270 2027.82 2080>
VStem: 140 320<369.809 1383> 950 320<366.296 1383> 1760 320<368.886 1383>
DStem2: 946 1654 1134 1570 0.429396 0.903116<4.86464 360.972>
CounterMasks: 1 38
LayerCount: 2
Fore
SplineSet
1111 1980 m 1,0,-1
 1291 1895 l 1,1,-1
 1134 1570 l 1,2,-1
 1124 1570 l 1,3,-1
 946 1654 l 1,4,-1
 1101 1980 l 1,5,-1
 1111 1980 l 1,0,-1
702 -20 m 0,6,7
 468 -20 468 -20 304 127 c 128,-1,8
 140 274 140 274 140 494 c 2,9,-1
 140 1383 l 1,10,-1
 450 1530 l 1,11,-1
 460 1530 l 1,12,-1
 460 488 l 2,13,14
 460 397 460 397 532 338 c 0,15,16
 602 280 602 280 704.5 280 c 128,-1,17
 807 280 807 280 878.5 339 c 128,-1,18
 950 398 950 398 950 488 c 2,19,-1
 950 1383 l 1,20,-1
 1260 1530 l 1,21,-1
 1270 1530 l 1,22,-1
 1270 488 l 2,23,24
 1270 397 1270 397 1342 338 c 0,25,26
 1412 280 1412 280 1514.5 280 c 128,-1,27
 1617 280 1617 280 1688.5 339 c 128,-1,28
 1760 398 1760 398 1760 488 c 2,29,-1
 1760 1383 l 1,30,-1
 2070 1530 l 1,31,-1
 2080 1530 l 1,32,-1
 2080 494 l 2,33,34
 2080 272 2080 272 1914 126 c 128,-1,35
 1748 -20 1748 -20 1514 -20 c 0,36,37
 1278 -20 1278 -20 1110 131 c 1,38,39
 939 -20 939 -20 702 -20 c 0,6,7
EndSplineSet
Validated: 19457
EndChar

StartChar: wacute
Encoding: 7811 7811 189
Width: 1880
Flags: W
HStem: -20 281<489.024 741.28 1138.88 1390.5> 1100 20G<387.971 440 1037.97 1090 1687.97 1740>
VStem: 140 300<307.338 982> 790 300<307.207 982> 1440 300<311.077 982>
DStem2: 766 1244 954 1160 0.429396 0.903116<4.86464 360.972>
CounterMasks: 1 38
LayerCount: 2
Fore
SplineSet
931 1570 m 1,0,-1
 1111 1485 l 1,1,-1
 954 1160 l 1,2,-1
 944 1160 l 1,3,-1
 766 1244 l 1,4,-1
 921 1570 l 1,5,-1
 931 1570 l 1,0,-1
615 -20 m 0,6,7
 417 -20 417 -20 279 102 c 0,8,9
 140 224 140 224 140 404 c 2,10,-1
 140 982 l 1,11,-1
 430 1120 l 1,12,-1
 440 1120 l 1,13,-1
 440 406 l 2,14,15
 440 342 440 342 490.5 301.5 c 128,-1,16
 541 261 541 261 615.5 261 c 128,-1,17
 690 261 690 261 740 302 c 128,-1,18
 790 343 790 343 790 405 c 2,19,-1
 790 982 l 1,20,-1
 1080 1120 l 1,21,-1
 1090 1120 l 1,22,-1
 1090 406 l 2,23,24
 1090 342 1090 342 1140.5 301.5 c 128,-1,25
 1191 261 1191 261 1265.5 261 c 128,-1,26
 1340 261 1340 261 1390 302 c 128,-1,27
 1440 343 1440 343 1440 405 c 2,28,-1
 1440 982 l 1,29,-1
 1730 1120 l 1,30,-1
 1740 1120 l 1,31,-1
 1740 403 l 2,32,33
 1740 222 1740 222 1600 101 c 128,-1,34
 1460 -20 1460 -20 1265 -20 c 0,35,36
 1075 -20 1075 -20 941 93 c 1,37,38
 804 -20 804 -20 615 -20 c 0,6,7
EndSplineSet
Validated: 19457
EndChar

StartChar: Wdieresis
Encoding: 7812 7812 190
Width: 2220
Flags: W
HStem: -20 300<549.702 857.458 1359.9 1667.31> 1510 20G<407.823 460 1217.82 1270 2027.82 2080> 1620 297<821.833 1025.65 1159.83 1364.17>
VStem: 140 320<369.809 1383> 778 292<1665.38 1871.62> 950 320<366.296 1383> 1116 292<1665.38 1871.62> 1760 320<368.886 1383>
LayerCount: 2
Fore
SplineSet
1262.5 1917 m 128,-1,1
 1323 1917 1323 1917 1365.5 1873 c 128,-1,2
 1408 1829 1408 1829 1408 1768.5 c 128,-1,3
 1408 1708 1408 1708 1365.5 1664 c 128,-1,4
 1323 1620 1323 1620 1262 1620 c 128,-1,5
 1201 1620 1201 1620 1158.5 1664 c 128,-1,6
 1116 1708 1116 1708 1116 1768 c 0,7,8
 1116 1829 1116 1829 1159 1872 c 0,9,0
 1202 1917 1202 1917 1262.5 1917 c 128,-1,1
923.5 1917 m 128,-1,11
 984 1917 984 1917 1027 1873 c 128,-1,12
 1070 1829 1070 1829 1070 1768.5 c 128,-1,13
 1070 1708 1070 1708 1027 1664 c 128,-1,14
 984 1620 984 1620 924 1620 c 0,15,16
 863 1620 863 1620 820.5 1664 c 128,-1,17
 778 1708 778 1708 778 1768 c 0,18,19
 778 1829 778 1829 820 1872 c 0,20,10
 863 1917 863 1917 923.5 1917 c 128,-1,11
702 -20 m 0,21,22
 468 -20 468 -20 304 127 c 128,-1,23
 140 274 140 274 140 494 c 2,24,-1
 140 1383 l 1,25,-1
 450 1530 l 1,26,-1
 460 1530 l 1,27,-1
 460 488 l 2,28,29
 460 397 460 397 532 338 c 0,30,31
 602 280 602 280 704.5 280 c 128,-1,32
 807 280 807 280 878.5 339 c 128,-1,33
 950 398 950 398 950 488 c 2,34,-1
 950 1383 l 1,35,-1
 1260 1530 l 1,36,-1
 1270 1530 l 1,37,-1
 1270 488 l 2,38,39
 1270 397 1270 397 1342 338 c 0,40,41
 1412 280 1412 280 1514.5 280 c 128,-1,42
 1617 280 1617 280 1688.5 339 c 128,-1,43
 1760 398 1760 398 1760 488 c 2,44,-1
 1760 1383 l 1,45,-1
 2070 1530 l 1,46,-1
 2080 1530 l 1,47,-1
 2080 494 l 2,48,49
 2080 272 2080 272 1914 126 c 128,-1,50
 1748 -20 1748 -20 1514 -20 c 0,51,52
 1278 -20 1278 -20 1110 131 c 1,53,54
 939 -20 939 -20 702 -20 c 0,21,22
EndSplineSet
Validated: 19457
EndChar

StartChar: wdieresis
Encoding: 7813 7813 191
Width: 1880
Flags: W
HStem: -20 281<489.024 741.28 1138.88 1390.5> 1100 20G<387.971 440 1037.97 1090 1687.97 1740> 1210 297<657.833 861.652 995.833 1200.17>
VStem: 140 300<307.338 982> 614 292<1255.38 1461.62> 790 300<307.207 982> 952 292<1255.38 1461.62> 1440 300<311.077 982>
LayerCount: 2
Fore
SplineSet
1098.5 1507 m 128,-1,1
 1159 1507 1159 1507 1201.5 1463 c 128,-1,2
 1244 1419 1244 1419 1244 1358.5 c 128,-1,3
 1244 1298 1244 1298 1201.5 1254 c 128,-1,4
 1159 1210 1159 1210 1098 1210 c 128,-1,5
 1037 1210 1037 1210 994.5 1254 c 128,-1,6
 952 1298 952 1298 952 1358 c 0,7,8
 952 1419 952 1419 995 1462 c 0,9,0
 1038 1507 1038 1507 1098.5 1507 c 128,-1,1
759.5 1507 m 128,-1,11
 820 1507 820 1507 863 1463 c 128,-1,12
 906 1419 906 1419 906 1358.5 c 128,-1,13
 906 1298 906 1298 863 1254 c 128,-1,14
 820 1210 820 1210 760 1210 c 0,15,16
 699 1210 699 1210 656.5 1254 c 128,-1,17
 614 1298 614 1298 614 1358 c 0,18,19
 614 1419 614 1419 656 1462 c 0,20,10
 699 1507 699 1507 759.5 1507 c 128,-1,11
615 -20 m 0,21,22
 417 -20 417 -20 279 102 c 0,23,24
 140 224 140 224 140 404 c 2,25,-1
 140 982 l 1,26,-1
 430 1120 l 1,27,-1
 440 1120 l 1,28,-1
 440 406 l 2,29,30
 440 342 440 342 490.5 301.5 c 128,-1,31
 541 261 541 261 615.5 261 c 128,-1,32
 690 261 690 261 740 302 c 128,-1,33
 790 343 790 343 790 405 c 2,34,-1
 790 982 l 1,35,-1
 1080 1120 l 1,36,-1
 1090 1120 l 1,37,-1
 1090 406 l 2,38,39
 1090 342 1090 342 1140.5 301.5 c 128,-1,40
 1191 261 1191 261 1265.5 261 c 128,-1,41
 1340 261 1340 261 1390 302 c 128,-1,42
 1440 343 1440 343 1440 405 c 2,43,-1
 1440 982 l 1,44,-1
 1730 1120 l 1,45,-1
 1740 1120 l 1,46,-1
 1740 403 l 2,47,48
 1740 222 1740 222 1600 101 c 128,-1,49
 1460 -20 1460 -20 1265 -20 c 0,50,51
 1075 -20 1075 -20 941 93 c 1,52,53
 804 -20 804 -20 615 -20 c 0,21,22
EndSplineSet
Validated: 19457
EndChar

StartChar: Ygrave
Encoding: 7922 7922 192
Width: 1270
Flags: W
HStem: -20 21G<475 527.177> 1510 20G<347.823 400 1137.82 1190>
VStem: 80 320<766.809 1383> 475 320<127 410.017> 870 320<759.672 1383>
DStem2: 688 1980 498 1895 0.429396 -0.903116<0 356.108>
CounterMasks: 1 38
LayerCount: 2
Fore
SplineSet
678 1980 m 1,0,-1
 688 1980 l 1,1,-1
 843 1654 l 1,2,-1
 665 1570 l 1,3,-1
 655 1570 l 1,4,-1
 498 1895 l 1,5,-1
 678 1980 l 1,0,-1
485 -20 m 1,6,-1
 475 -20 l 1,7,-1
 475 397 l 1,8,9
 348 431 348 431 244 524 c 0,10,11
 80 671 80 671 80 891 c 2,12,-1
 80 1383 l 1,13,-1
 390 1530 l 1,14,-1
 400 1530 l 1,15,-1
 400 885 l 2,16,17
 400 799 400 799 472 735 c 0,18,19
 534 677 534 677 635 677 c 128,-1,20
 736 677 736 677 803 736 c 128,-1,21
 870 795 870 795 870 885 c 2,22,-1
 870 1383 l 1,23,-1
 1180 1530 l 1,24,-1
 1190 1530 l 1,25,-1
 1190 891 l 2,26,27
 1190 669 1190 669 1024 523 c 0,28,29
 921 432 921 432 795 398 c 1,30,-1
 795 127 l 1,31,-1
 485 -20 l 1,6,-1
EndSplineSet
Validated: 19457
EndChar

StartChar: ygrave
Encoding: 7923 7923 193
Width: 1250
Flags: W
HStem: -410 250<395 725.934> -20 280<489.562 743.396> 1100 20G<387.971 440 1037.97 1090>
VStem: 140 300<307.226 982> 790 300<-96.0977 28 302.702 982>
DStem2: 649 1570 459 1485 0.429396 -0.903116<0 356.108>
LayerCount: 2
Fore
SplineSet
639 1570 m 1,0,-1
 649 1570 l 1,1,-1
 804 1244 l 1,2,-1
 626 1160 l 1,3,-1
 616 1160 l 1,4,-1
 459 1485 l 1,5,-1
 639 1570 l 1,0,-1
280 -410 m 1,6,-1
 280 -400 l 1,7,-1
 395 -160 l 1,8,-1
 601 -160 l 2,9,10
 694 -160 694 -160 747 -96 c 0,11,12
 785 -51 785 -51 789 28 c 1,13,14
 714 -20 714 -20 614 -20 c 0,15,16
 419 -20 419 -20 280 102 c 0,17,18
 140 225 140 225 140 403 c 2,19,-1
 140 982 l 1,20,-1
 430 1120 l 1,21,-1
 440 1120 l 1,22,-1
 440 398 l 2,23,24
 441 337 441 337 491 298.5 c 128,-1,25
 541 260 541 260 615.5 260 c 128,-1,26
 690 260 690 260 741 299 c 0,27,28
 790 338 790 338 790 398 c 2,29,-1
 790 982 l 1,30,-1
 1080 1120 l 1,31,-1
 1090 1120 l 1,32,-1
 1090 24 l 2,33,34
 1090 -161 1090 -161 950 -286 c 0,35,36
 810 -410 810 -410 615 -410 c 2,37,-1
 280 -410 l 1,6,-1
EndSplineSet
Validated: 19457
EndChar

StartChar: AE
Encoding: 198 198 194
Width: 1728
Flags: W
HStem: -20 21G<140 192.177> 0 300<1108 1582> 605 300<460 788 1108 1532> 1210 300<1108 1532> 1230 300<546.442 786.765>
VStem: 140 320<127 605 905 1146.37> 788 320<300 605 905 1210>
LayerCount: 2
Fore
SplineSet
1582 0 m 1,0,-1
 788 0 l 1,1,-1
 788 605 l 1,2,-1
 460 605 l 1,3,-1
 460 127 l 1,4,-1
 150 -20 l 1,5,-1
 140 -20 l 1,6,-1
 140 1016 l 2,7,8
 140 1236 140 1236 306.5 1383 c 128,-1,9
 473 1530 473 1530 706 1530 c 0,10,11
 789 1530 789 1530 863 1510 c 1,12,-1
 1668 1510 l 1,13,-1
 1668 1500 l 1,14,-1
 1532 1210 l 1,15,-1
 1108 1210 l 1,16,-1
 1108 905 l 1,17,-1
 1668 905 l 1,18,-1
 1668 895 l 1,19,-1
 1532 605 l 1,20,-1
 1108 605 l 1,21,-1
 1108 300 l 1,22,-1
 1718 300 l 1,23,-1
 1718 290 l 1,24,-1
 1582 0 l 1,0,-1
788 1218 m 1,25,26
 749 1230 749 1230 706 1230 c 0,27,28
 604 1230 604 1230 532 1175.5 c 128,-1,29
 460 1121 460 1121 460 1038 c 2,30,-1
 460 905 l 1,31,-1
 788 905 l 1,32,-1
 788 1218 l 1,25,26
EndSplineSet
Validated: 19457
EndChar

StartChar: Eth
Encoding: 208 208 195
Width: 1390
Flags: W
HStem: 0 300<480 858.291> 665 180<81 160 480 724> 1210 300<480 857.84>
VStem: 160 320<300 665 845 1210> 950 320<384.113 1126.75>
CounterMasks: 1 e0
LayerCount: 2
Fore
SplineSet
480 300 m 1,0,-1
 705 300 l 2,1,2
 808 300 808 300 880 357 c 0,3,4
 950 413 950 413 950 501 c 2,5,-1
 950 1009 l 2,6,7
 950 1097 950 1097 878 1153 c 0,8,9
 806 1210 806 1210 705 1210 c 2,10,-1
 480 1210 l 1,11,-1
 480 845 l 1,12,-1
 805 845 l 1,13,-1
 805 835 l 1,14,-1
 724 665 l 1,15,-1
 480 665 l 1,16,-1
 480 300 l 1,0,-1
160 0 m 1,17,-1
 160 665 l 1,18,-1
 0 665 l 1,19,-1
 0 675 l 1,20,-1
 81 845 l 1,21,-1
 160 845 l 1,22,-1
 160 1383 l 1,23,-1
 428 1510 l 1,24,-1
 705 1510 l 2,25,26
 939 1510 939 1510 1105 1362 c 0,27,28
 1270 1216 1270 1216 1270 997 c 2,29,-1
 1270 513 l 2,30,31
 1270 296 1270 296 1105 148 c 128,-1,32
 940 0 940 0 705 0 c 2,33,-1
 160 0 l 1,17,-1
EndSplineSet
Validated: 19457
EndChar

StartChar: Dcroat
Encoding: 272 272 196
Width: 1390
Flags: W
HStem: 0 300<480 858.291> 665 180<81 160 480 724> 1210 300<480 857.84>
VStem: 160 320<300 665 845 1210> 950 320<384.113 1126.75>
CounterMasks: 1 e0
LayerCount: 2
Fore
SplineSet
480 300 m 1,0,-1
 705 300 l 2,1,2
 808 300 808 300 880 357 c 0,3,4
 950 413 950 413 950 501 c 2,5,-1
 950 1009 l 2,6,7
 950 1097 950 1097 878 1153 c 0,8,9
 806 1210 806 1210 705 1210 c 2,10,-1
 480 1210 l 1,11,-1
 480 845 l 1,12,-1
 805 845 l 1,13,-1
 805 835 l 1,14,-1
 724 665 l 1,15,-1
 480 665 l 1,16,-1
 480 300 l 1,0,-1
160 0 m 1,17,-1
 160 665 l 1,18,-1
 0 665 l 1,19,-1
 0 675 l 1,20,-1
 81 845 l 1,21,-1
 160 845 l 1,22,-1
 160 1383 l 1,23,-1
 428 1510 l 1,24,-1
 705 1510 l 2,25,26
 939 1510 939 1510 1105 1362 c 0,27,28
 1270 1216 1270 1216 1270 997 c 2,29,-1
 1270 513 l 2,30,31
 1270 296 1270 296 1105 148 c 128,-1,32
 940 0 940 0 705 0 c 2,33,-1
 160 0 l 1,17,-1
EndSplineSet
Validated: 19457
EndChar

StartChar: Hbar
Encoding: 294 294 197
Width: 1440
Flags: W
HStem: -20 21G<160 212.177 960 1012.18> 605 300<480 960> 1197 180<111 160 480 960 1280 1329> 1510 20G<427.823 480 1227.82 1280>
VStem: 160 320<127 605 905 1197 1377 1383> 960 320<127 605 905 1197 1377 1383>
LayerCount: 2
Fore
SplineSet
170 -20 m 1,0,-1
 160 -20 l 1,1,-1
 160 1197 l 1,2,-1
 30 1197 l 1,3,-1
 30 1207 l 1,4,-1
 111 1377 l 1,5,-1
 160 1377 l 1,6,-1
 160 1383 l 1,7,-1
 470 1530 l 1,8,-1
 480 1530 l 1,9,-1
 480 1377 l 1,10,-1
 960 1377 l 1,11,-1
 960 1383 l 1,12,-1
 1270 1530 l 1,13,-1
 1280 1530 l 1,14,-1
 1280 1377 l 1,15,-1
 1410 1377 l 1,16,-1
 1410 1367 l 1,17,-1
 1329 1197 l 1,18,-1
 1280 1197 l 1,19,-1
 1280 127 l 1,20,-1
 970 -20 l 1,21,-1
 960 -20 l 1,22,-1
 960 605 l 1,23,-1
 480 605 l 1,24,-1
 480 127 l 1,25,-1
 170 -20 l 1,0,-1
480 1197 m 1,26,-1
 480 905 l 1,27,-1
 960 905 l 1,28,-1
 960 1197 l 1,29,-1
 480 1197 l 1,26,-1
EndSplineSet
Validated: 19457
EndChar

StartChar: IJ
Encoding: 306 306 198
Width: 1831
Flags: W
HStem: -20 300<1007.53 1308.47> 1210 300<862 1391> 1510 20G<427.823 480>
VStem: 160 320<127 1383> 1391 320<359.16 1210>
LayerCount: 2
Fore
SplineSet
1160 -20 m 0,0,1
 927 -20 927 -20 765 131 c 0,2,3
 650 238 650 238 617 397 c 1,4,-1
 910 535 l 1,5,-1
 920 535 l 1,6,-1
 920 482 l 2,7,8
 920 393 920 393 991 336.5 c 128,-1,9
 1062 280 1062 280 1160 280 c 0,10,11
 1257 280 1257 280 1325 337 c 0,12,13
 1391 393 1391 393 1391 482 c 2,14,-1
 1391 1210 l 1,15,-1
 726 1210 l 1,16,-1
 726 1220 l 1,17,-1
 862 1510 l 1,18,-1
 1711 1510 l 1,19,-1
 1711 494 l 2,20,21
 1711 274 1711 274 1550 127 c 128,-1,22
 1389 -20 1389 -20 1160 -20 c 0,0,1
170 -20 m 1,23,-1
 160 -20 l 1,24,-1
 160 1383 l 1,25,-1
 470 1530 l 1,26,-1
 480 1530 l 1,27,-1
 480 127 l 1,28,-1
 170 -20 l 1,23,-1
EndSplineSet
Validated: 19457
EndChar

StartChar: lslash
Encoding: 322 322 199
Width: 766
Flags: W
HStem: -20 21G<233 285.029> 1510 20G<480.971 533>
VStem: 233 300<118 588 926 1392>
LayerCount: 2
Fore
SplineSet
243 -20 m 1,0,-1
 233 -20 l 1,1,-1
 233 588 l 1,2,-1
 54 505 l 1,3,-1
 50 514 l 1,4,-1
 50 701 l 1,5,-1
 233 786 l 1,6,-1
 233 1392 l 1,7,-1
 523 1530 l 1,8,-1
 533 1530 l 1,9,-1
 533 926 l 1,10,-1
 712 1009 l 1,11,-1
 716 1000 l 1,12,-1
 716 813 l 1,13,-1
 533 728 l 1,14,-1
 533 118 l 1,15,-1
 243 -20 l 1,0,-1
EndSplineSet
Validated: 19457
EndChar

StartChar: Lslash
Encoding: 321 321 200
Width: 1100
Flags: W
HStem: 0 300<480 954> 1510 20G<427.534 480>
VStem: 160 320<300 540 887 1384>
LayerCount: 2
Fore
SplineSet
160 0 m 1,0,-1
 160 540 l 1,1,-1
 84 505 l 1,2,-1
 80 514 l 1,3,-1
 80 701 l 1,4,-1
 160 738 l 1,5,-1
 160 1384 l 1,6,-1
 470 1530 l 1,7,-1
 480 1530 l 1,8,-1
 480 887 l 1,9,-1
 742 1009 l 1,10,-1
 746 1000 l 1,11,-1
 746 813 l 1,12,-1
 480 689 l 1,13,-1
 480 300 l 1,14,-1
 1090 300 l 1,15,-1
 1090 290 l 1,16,-1
 954 0 l 1,17,-1
 160 0 l 1,0,-1
EndSplineSet
Validated: 19457
EndChar

StartChar: Eng
Encoding: 330 330 201
Width: 1410
Flags: W
HStem: -410 21G<646 823> -20 21G<140 192.177> 1230 300<552.799 859.72>
VStem: 140 320<127 1141.11> 950 320<-27.3281 1140.19>
LayerCount: 2
Fore
SplineSet
150 -20 m 1,0,-1
 140 -20 l 1,1,-1
 140 1016 l 2,2,3
 140 1238 140 1238 306 1384 c 128,-1,4
 472 1530 472 1530 706.5 1530 c 128,-1,5
 941 1530 941 1530 1105.5 1383 c 128,-1,6
 1270 1236 1270 1236 1270 1016 c 2,7,-1
 1270 104 l 2,8,9
 1270 -118 1270 -118 1105 -264 c 128,-1,10
 940 -410 940 -410 706 -410 c 2,11,-1
 646 -410 l 1,12,-1
 646 -400 l 1,13,-1
 790 -99 l 1,14,15
 840 -85 840 -85 880 -53 c 0,16,17
 950 4 950 4 950 92 c 2,18,-1
 950 1022 l 2,19,20
 950 1113 950 1113 878 1172 c 0,21,22
 808 1230 808 1230 705.5 1230 c 128,-1,23
 603 1230 603 1230 531.5 1171 c 128,-1,24
 460 1112 460 1112 460 1022 c 2,25,-1
 460 127 l 1,26,-1
 150 -20 l 1,0,-1
EndSplineSet
Validated: 19457
EndChar

StartChar: OE
Encoding: 338 338 202
Width: 1714
Flags: W
HStem: -20 300<530.919 773.171> 0 300<1094 1568> 605 300<1094 1518> 1210 300<1094 1518> 1230 300<532.4 772.182>
VStem: 120 320<364.059 1146.47> 774 320<300 605 905 1210>
LayerCount: 2
Fore
SplineSet
1568 0 m 1,0,-1
 843 0 l 1,1,2
 768 -20 768 -20 686 -20 c 0,3,4
 453 -20 453 -20 287 127 c 0,5,6
 120 275 120 275 120 494 c 2,7,-1
 120 1016 l 2,8,9
 120 1236 120 1236 287 1384 c 0,10,11
 453 1530 453 1530 686 1530 c 0,12,13
 769 1530 769 1530 843 1510 c 1,14,15
 1654 1510 l 1,16,-1
 1654 1500 l 1,17,-1
 1518 1210 l 1,18,-1
 1094 1210 l 1,19,-1
 1094 905 l 1,20,-1
 1654 905 l 1,21,-1
 1654 895 l 1,22,-1
 1518 605 l 1,23,-1
 1094 605 l 1,24,-1
 1094 300 l 1,25,-1
 1704 300 l 1,26,-1
 1704 290 l 1,27,-1
 1568 0 l 1,0,-1
774 294 m 1,28,-1
 774 1216 l 1,29,30
 733 1230 733 1230 686 1230 c 0,31,32
 585 1230 585 1230 512.5 1173 c 128,-1,33
 440 1116 440 1116 440 1028 c 2,34,-1
 440 482 l 2,35,36
 440 393 440 393 512 336.5 c 128,-1,37
 584 280 584 280 686 280 c 0,38,39
 734 280 734 280 774 294 c 1,28,-1
EndSplineSet
Validated: 19457
EndChar

StartChar: Thorn
Encoding: 222 222 203
Width: 1270
Flags: W
HStem: -20 21G<160 212.177> 220 301<480 824.983> 990 300<480 821.097> 1510 20G<427.823 480>
VStem: 160 320<127 220 521 990 1290 1383> 920 320<616.943 893.228>
LayerCount: 2
Fore
SplineSet
170 -20 m 1,0,-1
 160 -20 l 1,1,-1
 160 1383 l 1,2,-1
 470 1530 l 1,3,-1
 480 1530 l 1,4,-1
 480 1290 l 1,5,-1
 686 1290 l 2,6,7
 926 1290 926 1290 1082 1133 c 0,8,9
 1240 976 1240 976 1240 755 c 128,-1,10
 1240 534 1240 534 1081 377 c 128,-1,11
 922 220 922 220 686 220 c 2,12,-1
 480 220 l 1,13,-1
 480 127 l 1,14,-1
 170 -20 l 1,0,-1
480 990 m 1,15,-1
 480 521 l 1,16,-1
 692 521 l 2,17,18
 790 521 790 521 855 592 c 128,-1,19
 920 663 920 663 920 755 c 128,-1,20
 920 847 920 847 855 918.5 c 128,-1,21
 790 990 790 990 692 990 c 2,22,-1
 480 990 l 1,15,-1
EndSplineSet
Validated: 19457
EndChar

StartChar: Tbar
Encoding: 358 358 204
Width: 1190
Flags: W
HStem: -20 21G<435 487.466> 416 180<321 435 755 869> 1210 300<146 435 755 1044>
VStem: 435 320<126 416 596 1210>
LayerCount: 2
Fore
SplineSet
445 -20 m 1,0,-1
 435 -20 l 1,1,-1
 435 416 l 1,2,-1
 240 416 l 1,3,-1
 240 426 l 1,4,-1
 321 596 l 1,5,-1
 435 596 l 1,6,-1
 435 1210 l 1,7,-1
 10 1210 l 1,8,-1
 10 1220 l 1,9,-1
 146 1510 l 1,10,-1
 1180 1510 l 1,11,-1
 1180 1500 l 1,12,-1
 1044 1210 l 1,13,-1
 755 1210 l 1,14,-1
 755 596 l 1,15,-1
 950 596 l 1,16,-1
 950 586 l 1,17,-1
 869 416 l 1,18,-1
 755 416 l 1,19,-1
 755 126 l 1,20,-1
 445 -20 l 1,0,-1
EndSplineSet
Validated: 1
EndChar

StartChar: tbar
Encoding: 359 359 205
Width: 890
Flags: W
HStem: -20 21G<300 352.105> 416 180<176 300 590 714> 820 280<139 300 590 751> 1510 20G<537.895 590>
VStem: 300 290<113 416 596 820 1100 1397>
LayerCount: 2
Fore
SplineSet
95 416 m 1,0,-1
 95 426 l 1,1,-1
 176 596 l 1,2,-1
 300 596 l 1,3,-1
 300 820 l 1,4,-1
 10 820 l 1,5,-1
 10 830 l 1,6,-1
 139 1100 l 1,7,-1
 300 1100 l 1,8,-1
 300 1397 l 1,9,-1
 580 1530 l 1,10,-1
 590 1530 l 1,11,-1
 590 1100 l 1,12,-1
 880 1100 l 1,13,-1
 880 1090 l 1,14,-1
 751 820 l 1,15,-1
 590 820 l 1,16,-1
 590 596 l 1,17,-1
 795 596 l 1,18,-1
 795 586 l 1,19,-1
 714 416 l 1,20,-1
 590 416 l 1,21,-1
 590 113 l 1,22,-1
 310 -20 l 1,23,-1
 300 -20 l 1,24,-1
 300 416 l 1,25,-1
 95 416 l 1,0,-1
EndSplineSet
Validated: 1
EndChar

StartChar: thorn
Encoding: 254 254 206
Width: 1230
Flags: W
HStem: -430 21G<160 212.029> -20 281<509.569 760.976> 840 280<508.771 761.718> 1510 20G<407.971 460>
VStem: 160 300<-292 28 307.207 796.6 1072 1392> 810 300<307.338 792.774>
LayerCount: 2
Fore
SplineSet
635.5 840 m 128,-1,1
 561 840 561 840 511 801.5 c 128,-1,2
 461 763 461 763 460 702 c 2,3,-1
 460 405 l 2,4,5
 460 343 460 343 510 302 c 128,-1,6
 560 261 560 261 634.5 261 c 128,-1,7
 709 261 709 261 759.5 301.5 c 128,-1,8
 810 342 810 342 810 406 c 2,9,-1
 810 702 l 2,10,11
 810 762 810 762 761 801 c 0,12,0
 710 840 710 840 635.5 840 c 128,-1,1
160 -430 m 1,13,-1
 160 1392 l 1,14,-1
 450 1530 l 1,15,-1
 460 1530 l 1,16,-1
 460 1072 l 1,17,18
 537 1120 537 1120 635 1120 c 0,19,20
 833 1120 833 1120 971 998 c 0,21,22
 1110 875 1110 875 1110 697 c 2,23,24
 1110 404 l 2,25,26
 1110 224 1110 224 971 102 c 0,27,28
 833 -20 833 -20 635 -20 c 0,29,30
 537 -20 537 -20 460 28 c 1,31,-1
 460 -292 l 1,32,-1
 170 -430 l 1,33,-1
 160 -430 l 1,13,-1
EndSplineSet
Validated: 19457
EndChar

StartChar: eth
Encoding: 240 240 207
Width: 1190
Flags: W
HStem: -20 280<472.518 720.967> 1510 20G<470.886 539.4>
VStem: 120 300<311.862 849.539> 770 300<309.521 847.922>
LayerCount: 2
Fore
SplineSet
595 -20 m 128,-1,1
 400 -20 400 -20 260 106 c 128,-1,2
 120 232 120 232 120 416 c 2,3,-1
 120 718 l 2,4,5
 120 906 120 906 258 1029 c 0,6,7
 358 1118 358 1118 496 1144 c 1,8,-1
 427 1219 l 1,9,-1
 245 1134 l 1,10,-1
 241 1143 l 1,11,-1
 241 1330 l 1,12,-1
 300 1357 l 1,13,-1
 254 1407 l 1,14,-1
 513 1530 l 1,15,-1
 523 1530 l 1,16,-1
 564 1480 l 1,17,-1
 740 1562 l 1,18,-1
 744 1553 l 1,19,-1
 744 1366 l 1,20,-1
 683 1338 l 1,21,-1
 959 1005 l 2,22,23
 1070 871 1070 871 1070 717 c 2,24,-1
 1070 415 l 2,25,26
 1070 228 1070 228 930 104 c 128,-1,0
 790 -20 790 -20 595 -20 c 128,-1,1
420 411 m 2,27,28
 420 345 420 345 470.5 302.5 c 128,-1,29
 521 260 521 260 595 260 c 128,-1,30
 669 260 669 260 721 303 c 0,31,32
 770 344 770 344 770 411 c 2,33,-1
 770 747 l 2,34,35
 770 814 770 814 719.5 856 c 128,-1,36
 669 898 669 898 594.5 898 c 128,-1,37
 520 898 520 898 470 855 c 128,-1,38
 420 812 420 812 420 747 c 2,39,-1
 420 411 l 2,27,28
EndSplineSet
Validated: 19457
EndChar

StartChar: oe
Encoding: 339 339 208
Width: 1777
Flags: W
HStem: -20 280<469.336 721.567 1058.21 1310.02> 840 280<466.709 721.094 1058.29 1311.61>
VStem: 120 300<307.226 794.471> 770 300<588 795.73>
DStem2: 1070 588 1068 362 0.903456 0.428681<0 319.595>
LayerCount: 2
Fore
SplineSet
595.5 260 m 128,-1,1
 670 260 670 260 721 299 c 0,2,3
 770 338 770 338 770 398 c 2,4,-1
 770 702 l 2,5,6
 769 763 769 763 719 801.5 c 128,-1,7
 669 840 669 840 594.5 840 c 128,-1,8
 520 840 520 840 469 801 c 0,9,10
 420 762 420 762 420 702 c 2,11,-1
 420 398 l 2,12,13
 421 337 421 337 471 298.5 c 128,-1,0
 521 260 521 260 595.5 260 c 128,-1,1
594 -20 m 0,14,15
 398 -20 398 -20 260 102 c 0,16,17
 120 225 120 225 120 403 c 2,18,-1
 120 697 l 2,19,20
 120 879 120 879 260 999 c 0,21,22
 401 1120 401 1120 596 1120 c 0,23,24
 763 1120 763 1120 888 1031 c 1,25,26
 1016 1120 1016 1120 1182 1120 c 0,27,28
 1376 1120 1376 1120 1516 993 c 128,-1,29
 1656 866 1656 866 1656 692 c 2,30,-1
 1656 641 l 1,31,-1
 1068 362 l 1,32,33
 1065 329 1065 329 1057 299 c 1,34,35
 1109 260 1109 260 1182 260 c 0,36,37
 1258 260 1258 260 1314 307 c 1,38,-1
 1647 465 l 1,39,-1
 1657 465 l 1,40,-1
 1657 410 l 2,41,42
 1657 226 1657 226 1517 103 c 128,-1,43
 1377 -20 1377 -20 1182 -20 c 0,44,45
 1015 -20 1015 -20 889 69 c 1,46,47
 762 -20 762 -20 594 -20 c 0,14,15
1070 588 m 1,48,-1
 1355 724 l 1,49,50
 1347 770 1347 770 1307 801 c 0,51,52
 1257 839 1257 839 1181 839 c 0,53,54
 1104 839 1104 839 1057 802 c 1,55,56
 1070 752 1070 752 1070 697 c 2,57,-1
 1070 588 l 1,48,-1
EndSplineSet
Validated: 19457
EndChar

StartChar: eng
Encoding: 331 331 209
Width: 1230
Flags: W
HStem: -410 21G<555 699.5> -20 21G<140 192.029> 839 281<489.503 740.976>
VStem: 140 300<118 788.923> 790 300<-92.9999 792.258>
LayerCount: 2
Fore
SplineSet
150 -20 m 1,0,-1
 140 -20 l 1,1,-1
 140 697 l 2,2,3
 140 878 140 878 280 999 c 128,-1,4
 420 1120 420 1120 615 1120 c 0,5,6
 813 1120 813 1120 951 998 c 0,7,8
 1090 875 1090 875 1090 696 c 2,9,-1
 1090 41 l 2,10,11
 1090 -177 1090 -177 909 -315 c 0,12,13
 784 -410 784 -410 615 -410 c 2,14,-1
 555 -410 l 1,15,-1
 555 -400 l 1,16,-1
 684 -130 l 1,17,18
 721 -119 721 -119 755.5 -83.5 c 128,-1,19
 790 -48 790 -48 790 20 c 2,20,-1
 790 694 l 2,21,22
 790 758 790 758 739.5 798.5 c 128,-1,23
 689 839 689 839 614.5 839 c 128,-1,24
 540 839 540 839 490 798 c 128,-1,25
 440 757 440 757 440 695 c 2,26,-1
 440 118 l 1,27,-1
 150 -20 l 1,0,-1
EndSplineSet
Validated: 19457
EndChar

StartChar: kgreenlandic
Encoding: 312 312 210
Width: 1210
Flags: W
HStem: -20 21G<160 212.029 790 842.029> 1100 20G<407.971 460 790.4 866.034>
VStem: 160 300<118 498.712 820 982> 790 300<118 490.211>
LayerCount: 2
Fore
SplineSet
170 -20 m 1,0,-1
 160 -20 l 1,1,-1
 160 982 l 1,2,-1
 450 1120 l 1,3,-1
 460 1120 l 1,4,-1
 460 820 l 1,5,-1
 814 1120 l 1,6,-1
 824 1120 l 1,7,-1
 1072 1002 l 1,8,-1
 800 780 l 1,9,10
 896 755 896 755 950 709 c 0,11,12
 1090 591 1090 591 1090 408 c 2,13,-1
 1090 118 l 1,14,-1
 800 -20 l 1,15,-1
 790 -20 l 1,16,-1
 790 392 l 2,17,18
 790 457 790 457 739 500 c 0,19,20
 688 542 688 542 621 542 c 0,21,22
 553 542 553 542 506 500 c 0,23,24
 460 459 460 459 460 392 c 2,25,-1
 460 118 l 1,26,-1
 170 -20 l 1,0,-1
EndSplineSet
Validated: 19457
EndChar

StartChar: ij
Encoding: 307 307 211
Width: 1220
Flags: W
HStem: -410 21G<525 669.5> -20 21G<160 212.029> 1100 20G<407.971 460 1007.97 1060> 1180 364<192.131 426.338 792.131 1026.34>
VStem: 130 360<1244.3 1481.73> 160 300<118 982> 730 360<1244.3 1481.73> 760 300<-92.9999 982>
LayerCount: 2
Fore
SplineSet
910 1544 m 0,0,1
 986 1544 986 1544 1038 1491 c 128,-1,2
 1090 1438 1090 1438 1090 1363 c 0,3,4
 1090 1289 1090 1289 1037 1234 c 0,5,6
 985 1180 985 1180 910 1180 c 0,7,8
 833 1180 833 1180 781.5 1234 c 128,-1,9
 730 1288 730 1288 730 1362 c 0,10,11
 730 1438 730 1438 782 1490 c 0,12,13
 835 1544 835 1544 910 1544 c 0,0,1
525 -410 m 1,14,-1
 525 -400 l 1,15,-1
 654 -130 l 1,16,17
 691 -119 691 -119 725.5 -83.5 c 128,-1,18
 760 -48 760 -48 760 20 c 2,19,-1
 760 982 l 1,20,-1
 1050 1120 l 1,21,-1
 1060 1120 l 1,22,-1
 1060 41 l 2,23,24
 1060 -177 1060 -177 879 -315 c 0,25,26
 754 -410 754 -410 585 -410 c 2,27,-1
 525 -410 l 1,14,-1
170 -20 m 1,28,-1
 160 -20 l 1,29,-1
 160 982 l 1,30,-1
 450 1120 l 1,31,-1
 460 1120 l 1,32,-1
 460 118 l 1,33,-1
 170 -20 l 1,28,-1
310 1544 m 0,34,35
 386 1544 386 1544 438 1491 c 128,-1,36
 490 1438 490 1438 490 1363 c 0,37,38
 490 1289 490 1289 437 1234 c 0,39,40
 385 1180 385 1180 310 1180 c 0,41,42
 233 1180 233 1180 181.5 1234 c 128,-1,43
 130 1288 130 1288 130 1362 c 0,44,45
 130 1438 130 1438 182 1490 c 0,46,47
 235 1544 235 1544 310 1544 c 0,34,35
EndSplineSet
Validated: 19457
EndChar

StartChar: hbar
Encoding: 295 295 212
Width: 1250
Flags: W
HStem: -20 21G<160 212.029 810 862.029> 839 281<509.569 760.976> 1197 180<111 160 460 609> 1510 20G<407.971 460>
VStem: 160 300<118 792.793 1072 1197 1377 1392> 810 300<118 792.662>
LayerCount: 2
Fore
SplineSet
170 -20 m 1,0,-1
 160 -20 l 1,1,-1
 160 1197 l 1,2,-1
 30 1197 l 1,3,-1
 30 1207 l 1,4,-1
 111 1377 l 1,5,-1
 160 1377 l 1,6,-1
 160 1392 l 1,7,-1
 450 1530 l 1,8,-1
 460 1530 l 1,9,-1
 460 1377 l 1,10,-1
 690 1377 l 1,11,-1
 690 1367 l 1,12,-1
 609 1197 l 1,13,-1
 460 1197 l 1,14,-1
 460 1072 l 1,15,16
 537 1120 537 1120 635 1120 c 0,17,18
 833 1120 833 1120 971 998 c 0,19,20
 1110 876 1110 876 1110 696 c 2,21,-1
 1110 118 l 1,22,-1
 820 -20 l 1,23,-1
 810 -20 l 1,24,-1
 810 694 l 2,25,26
 810 758 810 758 759.5 798.5 c 128,-1,27
 709 839 709 839 634.5 839 c 128,-1,28
 560 839 560 839 510 798 c 128,-1,29
 460 757 460 757 460 695 c 2,30,-1
 460 118 l 1,31,-1
 170 -20 l 1,0,-1
EndSplineSet
Validated: 19457
EndChar

StartChar: longs
Encoding: 383 383 213
Width: 940
Flags: W
HStem: -20 21G<220 272.029> 1230 280<570.538 801>
VStem: 220 300<118 662 942 1180.56>
LayerCount: 2
Fore
SplineSet
230 -20 m 1,0,-1
 220 -20 l 1,1,-1
 220 662 l 1,2,-1
 10 662 l 1,3,-1
 10 672 l 1,4,-1
 139 942 l 1,5,-1
 220 942 l 1,6,-1
 220 1076 l 2,7,8
 220 1261 220 1261 360 1386 c 0,9,10
 500 1510 500 1510 695 1510 c 2,11,-1
 930 1510 l 1,12,-1
 930 1500 l 1,13,-1
 801 1230 l 1,14,-1
 695 1230 l 2,15,16
 618 1230 618 1230 569 1189 c 128,-1,17
 520 1148 520 1148 520 1085 c 2,18,-1
 520 118 l 1,19,-1
 230 -20 l 1,0,-1
EndSplineSet
Validated: 1
EndChar

StartChar: florin
Encoding: 402 402 214
Width: 880
Flags: W
HStem: -410 21G<-75 69.5> 662 280<460 702> 1230 280<510.538 741>
VStem: 160 300<-92.9999 662 942 1180.56>
LayerCount: 2
Fore
SplineSet
-75 -410 m 1,0,-1
 -75 -400 l 1,1,-1
 54 -130 l 1,2,3
 91 -119 91 -119 125.5 -83.5 c 128,-1,4
 160 -48 160 -48 160 20 c 2,5,-1
 160 1076 l 2,6,7
 160 1261 160 1261 300 1386 c 0,8,9
 440 1510 440 1510 635 1510 c 2,10,-1
 870 1510 l 1,11,-1
 870 1500 l 1,12,-1
 741 1230 l 1,13,-1
 635 1230 l 2,14,15
 558 1230 558 1230 509 1189 c 128,-1,16
 460 1148 460 1148 460 1085 c 2,17,-1
 460 942 l 1,18,-1
 831 942 l 1,19,-1
 831 932 l 1,20,-1
 702 662 l 1,21,-1
 460 662 l 1,22,-1
 460 41 l 2,23,24
 460 -177 460 -177 279 -315 c 0,25,26
 154 -410 154 -410 -15 -410 c 2,27,-1
 -75 -410 l 1,0,-1
EndSplineSet
Validated: 19457
EndChar

StartChar: dcroat
Encoding: 273 273 215
Width: 1210
Flags: W
HStem: -20 280<466.376 720.331> 839 281<469.024 720.431> 1197 180<621 770 1070 1089> 1510 20G<1017.97 1070>
VStem: 120 300<306.338 792.662> 770 300<307.63 792.793 1072 1197 1377 1392>
LayerCount: 2
Fore
SplineSet
595.5 -20 m 128,-1,1
 400 -20 400 -20 260 101 c 0,2,3
 120 223 120 223 120 403 c 2,4,-1
 120 696 l 2,5,6
 120 876 120 876 259 998 c 0,7,8
 397 1120 397 1120 595 1120 c 0,9,10
 693 1120 693 1120 770 1072 c 1,11,-1
 770 1197 l 1,12,-1
 540 1197 l 1,13,-1
 540 1207 l 1,14,-1
 621 1377 l 1,15,-1
 770 1377 l 1,16,-1
 770 1392 l 1,17,-1
 1060 1530 l 1,18,-1
 1070 1530 l 1,19,-1
 1070 1377 l 1,20,-1
 1170 1377 l 1,21,-1
 1170 1367 l 1,22,-1
 1089 1197 l 1,23,-1
 1070 1197 l 1,24,-1
 1070 403 l 2,25,26
 1070 226 1070 226 930 102 c 0,27,0
 791 -20 791 -20 595.5 -20 c 128,-1,1
594.5 260 m 128,-1,29
 669 260 669 260 719 298.5 c 128,-1,30
 769 337 769 337 770 398 c 2,31,-1
 770 695 l 2,32,33
 770 757 770 757 720 798 c 128,-1,34
 670 839 670 839 595.5 839 c 128,-1,35
 521 839 521 839 470.5 798.5 c 128,-1,36
 420 758 420 758 420 694 c 2,37,-1
 420 398 l 2,38,39
 420 338 420 338 469 299 c 0,40,28
 520 260 520 260 594.5 260 c 128,-1,29
EndSplineSet
Validated: 19457
EndChar

StartChar: germandbls
Encoding: 223 223 216
Width: 1219
Flags: W
HStem: -20 280<604 779.968> 691 280<603 742.076> 1262 268<488.531 743.788>
VStem: 140 300<118 1215.94> 789 301<1019.3 1223.1> 880 299<358.364 613.333>
LayerCount: 2
Fore
SplineSet
150 -20 m 1,0,-1
 140 -20 l 1,1,-1
 140 1105 l 2,2,3
 140 1317 140 1317 281 1424 c 0,4,5
 420 1530 420 1530 615 1530 c 128,-1,6
 810 1530 810 1530 950 1424 c 0,7,8
 1090 1317 1090 1317 1090 1144 c 128,-1,9
 1090 971 1090 971 967 866 c 1,10,11
 997 849 997 849 1023 828 c 0,12,13
 1179 700 1179 700 1179 491 c 0,14,15
 1179 281 1179 281 1026 130.5 c 128,-1,16
 873 -20 873 -20 615 -20 c 2,17,-1
 475 -20 l 1,18,-1
 475 -10 l 1,19,-1
 604 260 l 1,20,21
 749 261 749 261 815 332 c 0,22,23
 880 404 880 404 880 489 c 0,24,25
 880 573 880 573 818 632 c 0,26,27
 757 691 757 691 639 691 c 2,28,-1
 474 691 l 1,29,-1
 474 701 l 1,30,-1
 603 971 l 1,31,32
 699 971 699 971 745 1018 c 0,33,34
 789 1062 789 1062 789 1126.5 c 128,-1,35
 789 1191 789 1191 741 1227 c 0,36,37
 694 1262 694 1262 615 1262 c 128,-1,38
 536 1262 536 1262 488 1222 c 128,-1,39
 440 1182 440 1182 440 1102 c 2,40,-1
 440 118 l 1,41,-1
 150 -20 l 1,0,-1
EndSplineSet
Validated: 19457
EndChar

StartChar: ae
Encoding: 230 230 217
Width: 1671
Flags: W
HStem: -20 267<372.502 632.963 966.385 1186.62> 505 212<370.558 630.528> 820 280<363 608.771> 839 281<950.398 1208.92>
VStem: 40 285<288.644 464.733> 664 300<284.099 363 664 776.326>
DStem2: 964 588 964 363 0.903487 0.428616<0 319.592>
LayerCount: 2
Fore
SplineSet
462 -20 m 0,0,1
 296 -20 296 -20 175 75 c 0,2,3
 40 181 40 181 40 353 c 0,4,5
 40 526 40 526 198 636 c 0,6,7
 314 717 314 717 462 717 c 0,8,9
 579 717 579 717 664 664 c 1,10,11
 664 740 664 740 610 786 c 0,12,13
 571 820 571 820 489 820 c 2,14,-1
 234 820 l 1,15,-1
 234 830 l 1,16,-1
 363 1100 l 1,17,-1
 489 1100 l 2,18,19
 653 1100 653 1100 773 1024 c 1,20,21
 904 1120 904 1120 1076 1120 c 0,22,23
 1270 1120 1270 1120 1410 993 c 128,-1,24
 1550 866 1550 866 1550 692 c 2,25,-1
 1550 641 l 1,26,-1
 964 363 l 1,27,-1
 964 290 l 1,28,29
 1011 260 1011 260 1076 260 c 0,30,31
 1152 260 1152 260 1208 307 c 1,32,-1
 1541 465 l 1,33,-1
 1551 465 l 1,34,-1
 1551 410 l 2,35,36
 1551 226 1551 226 1411 103 c 128,-1,37
 1271 -20 1271 -20 1076 -20 c 0,38,39
 931 -20 931 -20 816 48 c 1,40,-1
 674 -20 l 1,41,-1
 664 -20 l 1,42,-1
 664 35 l 1,43,44
 590 -20 590 -20 462 -20 c 0,0,1
501.5 247 m 128,-1,46
 576 247 576 247 628 283 c 0,47,48
 678 318 678 318 678 376 c 0,49,50
 678 435 678 435 626 470 c 0,51,52
 575 505 575 505 500.5 505 c 128,-1,53
 426 505 426 505 375.5 469.5 c 128,-1,54
 325 434 325 434 325 375.5 c 128,-1,55
 325 317 325 317 376 282 c 128,-1,45
 427 247 427 247 501.5 247 c 128,-1,46
964 588 m 1,56,-1
 1249 724 l 1,57,58
 1241 770 1241 770 1201 801 c 0,59,60
 1151 839 1151 839 1075 839 c 0,61,62
 997 839 997 839 950 801 c 0,63,64
 949 800 949 800 948 799 c 0,65,66
 964 744 964 744 964 681 c 2,67,-1
 964 588 l 1,56,-1
EndSplineSet
Validated: 19457
EndChar

StartChar: S
Encoding: 83 83 218
Width: 1199
Flags: W
HStem: -20 300<424.428 738.784> 1263 267<476.62 698.991>
VStem: 122 305<1025.53 1217.96> 823 326<358.537 591.8>
LayerCount: 2
Fore
SplineSet
583.5 -20 m 128,-1,1
 349 -20 349 -20 184 131 c 0,2,3
 66 239 66 239 30 395 c 1,4,-1
 328 536 l 1,5,-1
 338 536 l 1,6,7
 338 391 338 391 409 335 c 0,8,9
 480 280 480 280 584 280 c 0,10,11
 693 280 693 280 758 337 c 0,12,13
 823 395 823 395 823 481 c 0,14,15
 823 547 823 547 772 599 c 0,16,17
 718 654 718 654 584 668 c 0,18,19
 380 689 380 689 252 793 c 0,20,21
 122 899 122 899 122 1096 c 128,-1,22
 122 1293 122 1293 259 1411.5 c 128,-1,23
 396 1530 396 1530 593 1530 c 0,24,25
 787 1530 787 1530 919 1404 c 0,26,27
 1019 1309 1019 1309 1046 1194 c 1,28,-1
 753 1055 l 1,29,-1
 743 1055 l 1,30,31
 743 1168 743 1168 706 1213 c 0,32,33
 665 1263 665 1263 595 1263 c 0,34,35
 524 1263 524 1263 476 1223 c 0,36,37
 427 1182 427 1182 427 1115 c 0,38,39
 427 1035 427 1035 516 1002 c 0,40,41
 561 985 561 985 634 977 c 0,42,43
 882 951 882 951 1015 822 c 0,44,45
 1149 692 1149 692 1149 488 c 0,46,47
 1149 271 1149 271 983 125 c 0,48,0
 818 -20 818 -20 583.5 -20 c 128,-1,1
EndSplineSet
Validated: 19457
EndChar

StartChar: s
Encoding: 115 115 219
Width: 967
Flags: W
HStem: -20 240<349.605 613.959> 895 225<382.092 565.329>
VStem: 86 274<742.993 876.015> 649 278<258.009 416.32>
LayerCount: 2
Fore
SplineSet
467 -20 m 0,0,1
 267 -20 267 -20 142 92 c 0,2,3
 47 177 47 177 20 300 c 1,4,-1
 281 423 l 1,5,-1
 291 423 l 1,6,7
 291 307 291 307 358 258 c 0,8,9
 410 220 410 220 493 220 c 0,10,11
 565 220 565 220 609 260 c 0,12,13
 649 295 649 295 649 342 c 0,14,15
 649 399 649 399 589 424 c 0,16,17
 559 437 559 437 467 446 c 0,18,19
 320 461 320 461 209 538 c 0,20,21
 86 623 86 623 86 784 c 0,22,23
 86 943 86 943 198.5 1031.5 c 128,-1,24
 311 1120 311 1120 478 1120 c 0,25,26
 640 1120 640 1120 746 1023 c 0,27,28
 825 951 825 951 852 854 c 1,29,-1
 605 736 l 1,30,-1
 595 736 l 1,31,32
 595 809 595 809 568 848 c 0,33,34
 536 895 536 895 466 895 c 0,35,36
 418 895 418 895 389 872 c 128,-1,37
 360 849 360 849 360 807 c 0,38,39
 360 749 360 749 434 730 c 0,40,41
 472 720 472 720 513 716 c 0,42,43
 716 695 716 695 821 602 c 0,44,45
 927 507 927 507 927 358 c 0,46,47
 927 191 927 191 794 86 c 0,48,49
 660 -20 660 -20 467 -20 c 0,0,1
EndSplineSet
Validated: 19457
EndChar

StartChar: circumflex
Encoding: 710 710 220
Width: 642
Flags: W
HStem: 1160 410
VStem: 30 582
LayerCount: 2
Fore
SplineSet
386 1570 m 1,0,-1
 396 1570 l 1,1,-1
 612 1245 l 1,2,-1
 434 1160 l 1,3,-1
 424 1160 l 1,4,-1
 323 1322 l 1,5,-1
 218 1160 l 1,6,-1
 208 1160 l 1,7,-1
 30 1245 l 1,8,-1
 206 1484 l 1,9,-1
 386 1570 l 1,0,-1
EndSplineSet
Validated: 19457
EndChar

StartChar: caron
Encoding: 711 711 221
Width: 642
Flags: W
HStem: 1160 410
VStem: 30 582
LayerCount: 2
Fore
SplineSet
208 1570 m 1,0,-1
 218 1570 l 1,1,-1
 319 1408 l 1,2,-1
 424 1570 l 1,3,-1
 434 1570 l 1,4,-1
 612 1485 l 1,5,-1
 436 1246 l 1,6,-1
 256 1160 l 1,7,-1
 246 1160 l 1,8,-1
 30 1485 l 1,9,-1
 208 1570 l 1,0,-1
EndSplineSet
Validated: 19457
EndChar

StartChar: uni02C9
Encoding: 713 713 222
Width: 680
Flags: W
HStem: 1270 190<116 564>
VStem: 30 620
LayerCount: 2
Fore
SplineSet
116 1460 m 1,0,-1
 650 1460 l 1,1,-1
 650 1450 l 1,2,-1
 564 1270 l 1,3,-1
 30 1270 l 1,4,-1
 30 1280 l 1,5,-1
 116 1460 l 1,0,-1
EndSplineSet
Validated: 19457
EndChar

StartChar: breve
Encoding: 728 728 223
Width: 680
Flags: W
HStem: 1240 200<172.531 507.469>
VStem: 30 620<1308.34 1346>
LayerCount: 2
Fore
SplineSet
120 1535 m 1,0,1
 190 1440 190 1440 340 1440 c 128,-1,2
 490 1440 490 1440 560 1535 c 1,3,-1
 650 1346 l 1,4,-1
 650 1336 l 1,5,6
 518 1240 518 1240 340 1240 c 128,-1,7
 162 1240 162 1240 30 1336 c 1,8,-1
 30 1346 l 1,9,-1
 120 1535 l 1,0,1
EndSplineSet
Validated: 19457
EndChar

StartChar: dotaccent
Encoding: 729 729 224
Width: 420
Flags: W
HStem: 1180 364<92.1309 326.338>
VStem: 30 360<1244.3 1481.73>
LayerCount: 2
Fore
SplineSet
210 1544 m 0,0,1
 286 1544 286 1544 338 1491 c 128,-1,2
 390 1438 390 1438 390 1363 c 0,3,4
 390 1289 390 1289 337 1234 c 0,5,6
 285 1180 285 1180 210 1180 c 0,7,8
 133 1180 133 1180 81.5 1234 c 128,-1,9
 30 1288 30 1288 30 1362 c 0,10,11
 30 1438 30 1438 82 1490 c 0,12,13
 135 1544 135 1544 210 1544 c 0,0,1
EndSplineSet
Validated: 19457
EndChar

StartChar: ring
Encoding: 730 730 225
Width: 456
Flags: W
HStem: 1160 112<160.15 297.342> 1448 112<159.9 297.373>
VStem: 30 111<1291.16 1428.97> 315 111<1292.14 1428.97>
LayerCount: 2
Fore
SplineSet
229.5 1448 m 128,-1,1
 192 1448 192 1448 166.5 1422 c 128,-1,2
 141 1396 141 1396 141 1360 c 128,-1,3
 141 1324 141 1324 166.5 1298 c 128,-1,4
 192 1272 192 1272 228 1272 c 256,5,6
 266 1272 266 1272 292 1300 c 0,7,8
 315 1325 315 1325 315 1360 c 0,9,10
 315 1396 315 1396 291 1422 c 128,-1,0
 267 1448 267 1448 229.5 1448 c 128,-1,1
230 1560 m 0,11,12
 310 1560 310 1560 368 1502 c 0,13,14
 426 1442 426 1442 426 1361 c 0,15,16
 426 1277 426 1277 368 1219 c 0,17,18
 309 1160 309 1160 228 1160 c 256,19,20
 148 1160 148 1160 88 1219 c 0,21,22
 30 1277 30 1277 30 1361 c 0,23,24
 30 1442 30 1442 88 1502 c 0,25,26
 146 1560 146 1560 230 1560 c 0,11,12
EndSplineSet
Validated: 19457
EndChar

StartChar: ogonek
Encoding: 731 731 226
Width: 399
Flags: W
HStem: -430 430 -20 20G<191 274>
VStem: 30 207<-275.73 -100.771>
LayerCount: 2
Fore
SplineSet
191 0 m 1,0,-1
 311 0 l 1,1,2
 237 -75 237 -75 237 -164 c 0,3,4
 237 -287 237 -287 369 -320 c 1,5,-1
 139 -430 l 1,6,-1
 129 -430 l 1,7,8
 30 -354 30 -354 30 -236 c 0,9,10
 30 -94 30 -94 191 0 c 1,0,-1
EndSplineSet
Validated: 19457
EndChar

StartChar: tilde
Encoding: 732 732 227
Width: 680
Flags: W
HStem: 1210 182<400.253 463.619> 1339 182<216.381 279.747>
VStem: 30 620
LayerCount: 2
Fore
SplineSet
640 1521 m 1,0,-1
 650 1521 l 1,1,2
 650 1210 650 1210 451 1210 c 0,3,4
 353 1210 353 1210 272 1305 c 0,5,6
 243 1339 243 1339 234 1339 c 0,7,8
 216 1339 216 1339 216 1294 c 1,9,-1
 40 1210 l 1,10,-1
 30 1210 l 1,11,12
 30 1521 30 1521 229 1521 c 0,13,14
 327 1521 327 1521 408 1426 c 0,15,16
 437 1392 437 1392 446 1392 c 0,17,18
 464 1392 464 1392 464 1437 c 1,19,-1
 640 1521 l 1,0,-1
EndSplineSet
Validated: 19457
EndChar

StartChar: hungarumlaut
Encoding: 733 733 228
Width: 668
Flags: W
HStem: 1170 390
VStem: 30 608
DStem2: 30 1246 199 1170 0.426352 0.904557<3.30711 347.131> 319 1246 488 1170 0.426352 0.904557<3.30711 347.131>
LayerCount: 2
Fore
SplineSet
477 1560 m 1,0,-1
 638 1483 l 1,1,-1
 488 1170 l 1,2,-1
 478 1170 l 1,3,-1
 319 1246 l 1,4,-1
 467 1560 l 1,5,-1
 477 1560 l 1,0,-1
188 1560 m 1,6,-1
 349 1483 l 1,7,-1
 199 1170 l 1,8,-1
 189 1170 l 1,9,-1
 30 1246 l 1,10,-1
 178 1560 l 1,11,-1
 188 1560 l 1,6,-1
EndSplineSet
Validated: 19457
EndChar

StartChar: uni1E9E
Encoding: 7838 7838 229
Width: 1290
Flags: W
HStem: -20 300<681 853.088> 1210 300<480 772.81>
VStem: 160 320<127 1210> 930 320<353.806 619.729>
LayerCount: 2
Fore
SplineSet
170 -20 m 1,0,-1
 160 -20 l 1,1,-1
 160 1383 l 1,2,-1
 428 1510 l 1,3,-1
 685 1510 l 2,4,5
 881 1510 881 1510 1003 1405 c 0,6,7
 1065 1351 1065 1351 1107 1285 c 1,8,-1
 931 910 l 1,9,10
 1017 889 1017 889 1089 830 c 0,11,12
 1250 697 1250 697 1250 481 c 0,13,14
 1250 255 1250 255 1099.5 117.5 c 128,-1,15
 949 -20 949 -20 685 -20 c 2,16,-1
 545 -20 l 1,17,-1
 545 -10 l 1,18,-1
 681 280 l 1,19,20
 814 280 814 280 872 338 c 128,-1,21
 930 396 930 396 930 486 c 128,-1,22
 930 576 930 576 872 635 c 0,23,24
 815 694 815 694 685 694 c 2,25,-1
 545 694 l 1,26,-1
 545 704 l 1,27,-1
 774 1191 l 1,28,29
 741 1210 741 1210 685 1210 c 2,30,-1
 480 1210 l 1,31,-1
 480 127 l 1,32,-1
 170 -20 l 1,0,-1
EndSplineSet
Validated: 19457
EndChar

StartChar: uni203D
Encoding: 8253 8253 230
Width: 1340
Flags: W
HStem: -20 365<527.131 761.878> 1231 299<515.834 828.942>
VStem: 110 317<911.079 1144.53> 465 360<42.5657 282.578> 541 230<815 963> 909 321<896.013 1156.17>
LayerCount: 2
Fore
SplineSet
645 -20 m 0,0,1
 569 -20 569 -20 517 34 c 128,-1,2
 465 88 465 88 465 162 c 0,3,4
 465 238 465 238 517 291 c 0,5,6
 570 345 570 345 645 345 c 128,-1,7
 720 345 720 345 772.5 291.5 c 128,-1,8
 825 238 825 238 825 163 c 128,-1,9
 825 88 825 88 772 34 c 128,-1,10
 719 -20 719 -20 645 -20 c 0,0,1
677 1530 m 0,11,12
 937 1530 937 1530 1084 1385 c 0,13,14
 1230 1240 1230 1240 1230 1056 c 0,15,16
 1230 736 1230 736 868 571 c 0,17,18
 811 545 811 545 811 506 c 1,19,-1
 498 359 l 1,20,-1
 488 359 l 1,21,22
 488 515 488 515 541 620 c 1,23,-1
 541 963 l 1,24,-1
 761 1068 l 1,25,-1
 771 1068 l 1,26,-1
 771 815 l 1,27,28
 909 891 909 891 909 1038 c 0,29,30
 909 1110 909 1110 862 1159 c 0,31,32
 793 1231 793 1231 674 1231 c 0,33,34
 554 1231 554 1231 490 1166 c 0,35,36
 427 1103 427 1103 427 1014 c 0,37,38
 427 968 427 968 456 926 c 1,39,-1
 186 799 l 1,40,-1
 176 799 l 1,41,42
 110 905 110 905 110 1047 c 0,43,44
 110 1234 110 1234 261 1379 c 0,45,46
 418 1530 418 1530 677 1530 c 0,11,12
EndSplineSet
Validated: 19457
EndChar

StartChar: afii61352
Encoding: 8470 8470 231
Width: 2010
Flags: W
HStem: -20 21G<140 192.177 950 1002.18> 0 180<1437 1819> 228 180<1586.4 1700.83> 657 180<1586.48 1699.19> 1230 300<552.799 859.72>
VStem: 140 320<127 1141.11> 950 320<127 1140.19> 1386 190<422.954 641.53> 1710 190<423.47 642.046>
LayerCount: 2
Fore
SplineSet
1819 0 m 1,0,-1
 1356 0 l 1,1,-1
 1356 10 l 1,2,-1
 1437 180 l 1,3,-1
 1900 180 l 1,4,-1
 1900 170 l 1,5,-1
 1819 0 l 1,0,-1
1642.5 657 m 128,-1,7
 1612 657 1612 657 1594 642 c 128,-1,8
 1576 627 1576 627 1576 608 c 2,9,-1
 1576 457 l 2,10,11
 1576 437 1576 437 1594.5 422.5 c 128,-1,12
 1613 408 1613 408 1643.5 408 c 128,-1,13
 1674 408 1674 408 1694 423 c 0,14,15
 1710 438 1710 438 1710 457 c 2,16,-1
 1710 608 l 2,17,18
 1710 628 1710 628 1691.5 642.5 c 128,-1,6
 1673 657 1673 657 1642.5 657 c 128,-1,7
1644.5 837 m 128,-1,20
 1750 837 1750 837 1825 770 c 128,-1,21
 1900 703 1900 703 1900 607 c 2,22,-1
 1900 458 l 2,23,24
 1900 358 1900 358 1823.5 293 c 128,-1,25
 1747 228 1747 228 1643 228 c 128,-1,26
 1539 228 1539 228 1462.5 295 c 128,-1,27
 1386 362 1386 362 1386 458 c 2,28,-1
 1386 607 l 2,29,30
 1386 707 1386 707 1462.5 772 c 128,-1,19
 1539 837 1539 837 1644.5 837 c 128,-1,20
150 -20 m 1,31,-1
 140 -20 l 1,32,-1
 140 1016 l 2,33,34
 140 1238 140 1238 306 1384 c 128,-1,35
 472 1530 472 1530 706.5 1530 c 128,-1,36
 941 1530 941 1530 1105.5 1383 c 128,-1,37
 1270 1236 1270 1236 1270 1016 c 2,38,-1
 1270 127 l 1,39,-1
 960 -20 l 1,40,-1
 950 -20 l 1,41,-1
 950 1022 l 2,42,43
 950 1113 950 1113 878 1172 c 0,44,45
 808 1230 808 1230 705.5 1230 c 128,-1,46
 603 1230 603 1230 531.5 1171 c 128,-1,47
 460 1112 460 1112 460 1022 c 2,48,-1
 460 127 l 1,49,-1
 150 -20 l 1,31,-1
EndSplineSet
Validated: 19457
EndChar

StartChar: uni2117
Encoding: 8471 8471 232
Width: 1321
Flags: W
HStem: 386 48<505.181 810.676> 757 192<611 765.729> 1143 191<611 763.153> 1478 52<504.168 816.773>
VStem: 110 50<794.694 1125.05> 411 200<602 757 949 1143> 791 199<971.546 1120.03> 1160 51<785.868 1126.58>
LayerCount: 2
Fore
SplineSet
421 527 m 1,0,-1
 411 527 l 1,1,-1
 411 1257 l 1,2,-1
 585 1334 l 1,3,-1
 694 1334 l 2,4,5
 823 1334 823 1334 908 1248 c 0,6,7
 990 1165 990 1165 990 1054 c 0,8,9
 990 929 990 929 918 852 c 0,10,11
 829 757 829 757 685 757 c 2,12,-1
 611 757 l 1,13,-1
 611 602 l 1,14,-1
 421 527 l 1,0,-1
611 949 m 1,15,-1
 697 949 l 2,16,17
 742 949 742 949 766.5 978.5 c 128,-1,18
 791 1008 791 1008 791 1046 c 128,-1,19
 791 1084 791 1084 764 1114 c 0,20,21
 737 1143 737 1143 697 1143 c 2,22,-1
 611 1143 l 1,23,-1
 611 949 l 1,15,-1
661 1530 m 0,24,25
 903 1530 903 1530 1059 1357 c 0,26,27
 1211 1188 1211 1188 1211 953 c 0,28,29
 1211 701 1211 701 1050 549 c 0,30,31
 879 386 879 386 659 386 c 0,32,33
 436 386 436 386 271 549 c 0,34,35
 110 708 110 708 110 953 c 0,36,37
 110 1197 110 1197 268 1362 c 0,38,39
 429 1530 429 1530 661 1530 c 0,24,25
659 1478 m 0,40,41
 459 1478 459 1478 310 1330 c 0,42,43
 160 1181 160 1181 160 953 c 0,44,45
 160 750 160 750 307 587 c 0,46,47
 445 434 445 434 661 434 c 0,48,49
 862 434 862 434 1014 587 c 0,50,51
 1160 734 1160 734 1160 953 c 0,52,53
 1160 1185 1160 1185 1016 1327 c 0,54,55
 863 1478 863 1478 659 1478 c 0,40,41
EndSplineSet
Validated: 19457
EndChar

StartChar: integral
Encoding: 8747 8747 233
Width: 948
Flags: W
HStem: -430 21G<10 187>
VStem: 314 320<-47.3281 1417.33>
LayerCount: 2
Fore
SplineSet
10 -430 m 1,0,-1
 10 -420 l 1,1,-1
 154 -119 l 1,2,3
 204 -105 204 -105 244 -73 c 0,4,5
 314 -16 314 -16 314 72 c 2,6,-1
 314 1286 l 2,7,8
 314 1508 314 1508 479 1654 c 128,-1,9
 644 1800 644 1800 878 1800 c 2,10,-1
 938 1800 l 1,11,-1
 938 1790 l 1,12,-1
 794 1489 l 1,13,14
 744 1475 744 1475 704 1443 c 0,15,16
 634 1386 634 1386 634 1298 c 2,17,-1
 634 84 l 2,18,19
 634 -138 634 -138 469 -284 c 128,-1,20
 304 -430 304 -430 70 -430 c 2,21,-1
 10 -430 l 1,0,-1
EndSplineSet
Validated: 19457
EndChar

